<?xml version="1.0" encoding="utf-8"?>
<!-- Generator: Adobe Illustrator 19.2.1, SVG Export Plug-In . SVG Version: 6.00 Build 0)  -->
<svg version="1.1" id="Layer_1" xmlns="http://www.w3.org/2000/svg" xmlns:xlink="http://www.w3.org/1999/xlink" x="0px" y="0px"
	 viewBox="0 0 642.1 1137.1" style="enable-background:new 0 0 642.1 1137.1;" xml:space="preserve">
<style type="text/css">
	.st0{fill:#24334F;}
	.st1{opacity:0.1;fill:#EFF7F1;}
	.st2{fill:#445777;}
	.st3{fill-rule:evenodd;clip-rule:evenodd;fill:#445777;}
	.st4{fill:none;stroke:#445777;stroke-miterlimit:10;}
	.st5{opacity:0.23;fill:#EFF7F1;}
	.st6{fill:#EFF7F1;}
	.st7{fill:#23324E;}
</style>
<g>
	<rect x="0.1" y="1.2" class="st0" width="641.5" height="1136.2"/>
	<path class="st1" d="M640.2,336.2l0.7-53.3c-48.7-41.2-181.1-121.7-455.8-116.2C126.8,167.8,75.7,62.7,75.7,62L0.4,105v151.3
		c12.6,13,73.2,37.8,123.9,38.4c97.9,1.3,148.2,3.8,271.2,15c76,6.9,204.4,51,216.5,54.5c0,0,19.1-16.3,30.8-31"/>
	<polyline class="st2" points="66.7,225.5 26.5,810 23.2,686.9 17.7,749.6 9.9,686.6 0.7,1136.8 639.7,1136.1 640.7,1034.6 
		602.9,1034.8 602.9,1068.9 575.9,1068.9 575.9,1034.9 539.9,1034.9 539.9,1068.9 514.9,1068.9 514.9,1034.9 479.9,1034.9 
		479.9,1068.9 454.9,1068.9 454.9,1034.9 452.8,1034.9 420.1,1034.9 418.9,1034.9 418.9,1068.9 392.9,1068.9 392.9,1034.9 
		357.9,1034.9 357.9,1068.9 331.9,1068.9 331.9,1034.9 302.3,1034.9 297.2,1034.9 270.6,1034.9 235.8,1034.9 210.9,1034.9 
		176.2,1102.9 135.9,1102.9 125.4,927.4 123.8,875.6 117.7,688.9 111,747.8 109,686.9 106.8,706 106.3,696.6 66.7,225.5 	"/>
	<path class="st2" d="M342.9,539.5c3.7-7.1,5.4-14.6,9.3-20.7c67.9-107.9,98.8-96.6,103.9-93c0.7,0.5,33.9,58.3,62.9,101
		c14.9,21.9,17.4,28.3,31.5,34.2c0,0-0.2,3.5-11.5,3.4c-6.6,0-14.4-8.9-18.9-12.7c-2.8-2.5-6.4-0.6-14.4-4.9
		c-6.4-3.4-1.9-10.6-2.8-15c-0.8-4.5-17.3-18.6-17.3-18.6S467,501.4,454,490.4c-14.3-12.1-17.8-25.7-17.8-25.7l2.6,10.2
		c0,0-10.6,31.4-15.7,47.2c0,0-8.9,62.7-42.5,64.9c-20.6,1.3-28.4-3.9-31.1-7c-1.5,3.9-6.9,11.5-26.6,17.6
		c-32.2,9.9-62.8-45.5-62.8-45.5c-10.4-13-31.4-38.6-31.4-38.6l-1.2-10.5c0,0,1.6,14-7.4,30.4c-8.2,14.8-21.3,32.6-21.3,32.6
		s-10.4,19.1-9.5,23.5c0.8,4.5,7.5,9.6,2.8,15c-6,6.8-10,6.4-11.8,9.7c-2.8,5.2-7,16.2-13.1,18.6c-10.6,4.1-12,0.9-12,0.9
		c11-10.4,11.2-17.4,17.2-43.1c11.9-50.3,22.4-116.1,22.8-116.8c3.5-5.2,28.3-26.8,130.2,49.9c5.8,4.3,10,10.7,16,16L342.9,539.5z"
		/>
	<path class="st2" d="M203.3,413.9c0.5,2.3-0.1-14.3-0.5,9.1c0,0,98.7,69.2,142,44c44.2-25.7,45.6-85.5,45-86
		c-10.6-10.5-11.4-9.4-23.6-34.3c-3.1-6.3-5.3-13-8.3-20.8c-0.4-0.9,0.2-2,1.2-2.1c19-2.5,36.2-5.3,53.6-6.8
		c8.9-0.8,18.1,0.5,27,1.6c2.3,0.3,5.2,2.7,6.3,4.9c4.2,7.9,7.4,10.2,16.4,9.5c4.5-0.3,9-0.9,13.4-1.9c2.1-0.5,4.6-1.8,5.7-3.5
		c5.3-7.9,10.2-15.9,15.2-24c9.5-15.7,1.3-32.3-11.3-39.9c-41.3-25-78.7-55.2-117.8-83.1c-1.5-1.1-3.2-3.1-3.4-4.8
		c0-0.1,0-0.2,0-0.3l6.9-141.3c0.1-1.8-2.5-2.3-3-0.5c-8.8,31.4-25.8,112.9-31.6,124.7c-1.5,3.1-2.8,6.4-7.9,6
		c-4.8-0.3-5.9-3.1-7.4-6.6c-5.1-11.8-10.3-23.5-15.5-35.2c-3.4,0.4-3.1,0.4-6.4,0.9l0,0.1c-2.2,13.6-4.3,27.3-7,40.8
		c-0.6,3.3-2.7,6.6-4.9,9.3c-10.2,12.2-22.7,23-30.7,36.4c-13.3,22.3-25.1,45.7-35.1,69.7c-8,19.2-13.7,39.6-17.9,59.9
		c-3.5,17-4.7,33.9-3.6,50.8L203.3,413.9z"/>
	<g>
		<g>
			<path class="st3" d="M392.2,997.6l-1.6-1.6c-1.9-1.3-2.6-3.5-3.6-5.4c-2.7,1.9-4.6,2.3-5.9,1.2c-1.4-1.1-2.1-6.1-1-7.9
				c1.6-2.6,3.8-0.8,5.8-0.6c0.6-6.2,1.6-7.7,6.2-8.3l77-3.9c5.7-0.5,11.6,0.8,16.9-3.6c0.6,6.4,1.2,12.4,1.9,19.4
				c-3-2.3-5.8-2.5-8.6-2c-11.5,2.1-23.3,4.5-34.5,6.8l-43.3,9.3l-20.4,33.1l-19-0.9c0,0-1.4-7.8-2.2-12.1l16.6-0.2l15.1-22.1
				L392.2,997.6z"/>
		</g>
		<g>
			
				<ellipse transform="matrix(4.627863e-02 -0.9989 0.9989 4.627863e-02 -605.8055 1387.4634)" class="st3" cx="423.7" cy="1011" rx="7.2" ry="7.2"/>
			<path class="st3" d="M397.6,1009.8c-0.7,14.4,10.5,26.6,24.9,27.3c14.4,0.7,26.6-10.5,27.3-24.9c0.7-14.4-10.5-26.6-24.9-27.3
				C410.5,984.2,398.3,995.4,397.6,1009.8z M402.6,1010c0.5-11.6,10.4-20.6,22-20.1c11.6,0.5,20.6,10.4,20.1,22.1
				c-0.5,11.6-10.4,20.6-22.1,20.1C411.1,1031.5,402.1,1021.7,402.6,1010z"/>
			
				<rect x="401" y="1010.7" transform="matrix(4.613395e-02 -0.9989 0.9989 4.613395e-02 -605.7709 1390.0433)" class="st3" width="48" height="3"/>
			
				<rect x="420.6" y="985.2" transform="matrix(4.612895e-02 -0.9989 0.9989 4.612895e-02 -604.0054 1385.7692)" class="st3" width="6" height="48"/>
			
				<rect x="397.6" y="1008.6" transform="matrix(0.739 -0.6737 0.6737 0.739 -570.4946 549.0935)" class="st3" width="51.7" height="4.6"/>
			
				<rect x="421.6" y="985.4" transform="matrix(0.739 -0.6737 0.6737 0.739 -570.53 549.5056)" class="st3" width="4.6" height="51.3"/>
		</g>
	</g>
	<g>
		<g>
			<path class="st3" d="M451.2,935l-0.9-0.9c-1-0.7-1.4-1.9-2-3c-1.5,1-2.5,1.2-3.3,0.7c-0.8-0.6-1.2-3.4-0.6-4.4
				c0.9-1.4,2.1-0.4,3.2-0.4c0.3-3.4,0.9-4.2,3.4-4.6l42.5-2.2c3.1-0.3,6.4,0.4,9.3-2c0.3,3.5,0.7,6.9,1,10.7
				c-1.7-1.3-3.2-1.4-4.7-1.1c-6.4,1.1-12.8,2.5-19.1,3.8l-23.9,5.1L445,955.2l-10.5-0.5c0,0-0.8-4.3-1.2-6.7l9.1-0.1l8.3-12.2
				L451.2,935z"/>
		</g>
		<g>
			
				<ellipse transform="matrix(4.627863e-02 -0.9989 0.9989 4.627863e-02 -494.5479 1366.8403)" class="st3" cx="468.5" cy="942.4" rx="4" ry="4"/>
			<path class="st3" d="M454.1,941.8c-0.4,8,5.8,14.7,13.7,15.1c8,0.4,14.7-5.8,15.1-13.7c0.4-8-5.8-14.7-13.7-15.1
				C461.3,927.6,454.5,933.8,454.1,941.8z M456.9,941.9c0.3-6.4,5.7-11.4,12.2-11.1c6.4,0.3,11.4,5.7,11.1,12.2
				c-0.3,6.4-5.7,11.4-12.2,11.1C461.6,953.8,456.6,948.3,456.9,941.9z"/>
			
				<rect x="456" y="942.3" transform="matrix(4.613395e-02 -0.9989 0.9989 4.613395e-02 -494.4974 1368.3215)" class="st3" width="26.5" height="1.7"/>
			
				<rect x="466.8" y="928.2" transform="matrix(4.612895e-02 -0.9989 0.9989 4.612895e-02 -493.5219 1365.9644)" class="st3" width="3.3" height="26.5"/>
			
				<rect x="454.2" y="941.1" transform="matrix(0.739 -0.6737 0.6737 0.739 -512.5977 561.4722)" class="st3" width="28.5" height="2.5"/>
			
				<rect x="467.4" y="928.3" transform="matrix(0.739 -0.6737 0.6737 0.739 -512.6287 561.7391)" class="st3" width="2.5" height="28.3"/>
		</g>
	</g>
	<g>
		<path class="st2" d="M465.9,133.8c-21.3-11.2-28.6-34.4-17.5-55.7c7.5-14.3,19.6-17.3,28.6-21.1c-19.1-4.8-39.7,3.9-49.2,22.1
			c-11.2,21.3-2.9,47.7,18.4,58.8c12,6.3,25.6,6.4,37.1,1.5C480,138.6,469,135.4,465.9,133.8z"/>
		<polygon class="st2" points="485.3,119.7 495,110.4 508.1,113.1 502.3,101 508.9,89.3 495.6,91.2 486.5,81.3 484.2,94.5 472,100 
			483.8,106.4 		"/>
	</g>
	<g>
		<polygon class="st2" points="533.8,906.1 550.2,934.5 566.5,962.9 533.8,962.9 501.1,962.9 517.4,934.5 		"/>
		<polygon class="st2" points="555.8,893.5 567.2,913.2 578.5,932.9 555.8,932.9 533.1,932.9 544.4,913.2 		"/>
		<g>
			<g>
				<polygon class="st2" points="589.5,923.8 617.3,972.4 645.1,1020.9 589.5,1020.9 534,1020.9 561.8,972.4 				"/>
				<g>
					<line class="st4" x1="589.8" y1="904.5" x2="589.8" y2="925.3"/>
				</g>
			</g>
			<g>
				<path class="st2" d="M589.6,912.8c5.6-0.2,11.9-0.7,15.3-5c-2,0.6-4.3,0.4-6.1-0.7c2.8-1.2,5.3-3.2,7-5.8
					c-5.5,1.9-11.6,2-17,0.1L589.6,912.8z"/>
			</g>
		</g>
	</g>
	<g>
		<polygon class="st2" points="547.9,840.6 560.9,863.2 574,885.9 547.9,885.9 521.9,885.9 534.9,863.2 		"/>
		<polygon class="st2" points="565.4,830.5 574.5,846.2 583.5,861.9 565.4,861.9 547.3,861.9 556.4,846.2 		"/>
	</g>
	<g>
		<g>
			<polygon class="st2" points="610,840.5 623.9,864.7 637.8,888.9 610,888.9 582.3,888.9 596.2,864.7 			"/>
			<g>
				<line class="st4" x1="610.2" y1="830.9" x2="610.2" y2="841.3"/>
			</g>
		</g>
		<g>
			<path class="st2" d="M610.1,835c2.8-0.1,5.9-0.3,7.6-2.5c-1,0.3-2.1,0.2-3.1-0.3c1.4-0.6,2.7-1.6,3.5-2.9c-2.7,1-5.8,1-8.5,0.1
				L610.1,835z"/>
		</g>
	</g>
	<path class="st0" d="M588.7,358.8c4.7,0.6,13-5.6,14.9-9.4c3.4-6.7,0.7-20.3-2-26.6c-9-21-18.4-32.2-33.7-46.9
		c-14.1-13.6-28.4-31.3-31.8-50.8c-2-11.3,0.7-23.7,7-30.6c6.7-7.2,17.1-8.7,13.8-12.8c-5.1-6.2-17.2-0.7-22.5,6.3
		c-11.3,15-8.5,38.5-0.7,53.2c14.4,27,40.7,44.9,56.5,70.5c5.6,9.1,16.6,36.9-0.6,39L588.7,358.8z"/>
	<g>
		<path class="st2" d="M531.8,180.6c0,0,3-6.9,11.3-9.9c8.3-3,1.3,5,1.3,5L531.8,180.6z"/>
		<path class="st2" d="M548.8,185.7c0,0,3.3-4.6,1.9-11.3c-1.4-6.7-3.7,1-3.7,1L548.8,185.7z"/>
		<path class="st2" d="M543.1,177.5l-10,26.3l1.1,13c0,0,12.2-42,18-51.6c6.8-11.3,19.8-32.5,34.4-49.7c14.4-16.9,30.8-31.1,38-36.4
			C624.7,79.1,577.8,104.5,543.1,177.5z"/>
		<path class="st2" d="M606.3,124.4c-0.3-15,8.5-32.9,22.1-48c-13.8,0.6-27.7,6.2-40.1,14.6c-1,2.6-0.8,6.9-0.8,6.9
			c0,1.6,0.3,8.7,0.3,8.7l-1.1,1.2c0,0-0.5-7.3-0.2-10.9c0.2-2.5,1.1-4.9,1.7-5.9c-4.2,2.8-8.2,6-11.9,9.4c-1.4,3.6-1.2,9.8-1.2,9.8
			c0,2.2,0.2,11.3,0.2,11.3l-1.1,1.6c0,0-0.9-9.2-0.4-14.2c0.3-3.6,1.7-7,2.4-8.3c-18.3,16.6-31,38.6-30.7,56.6
			c0.1,4.2,0.5,7.8,1.3,11.1c34.2-67.4,78-91.2,78-91.2c-7.3,5.4-23.6,19.5-38,36.5c-9.1,10.7-17.5,22.8-24.1,33.1
			c2.6,0.1,12.3,0.5,14.9,0.6c0,0,9.2,0.5,14-1.6c-0.2,0.5-6,3.2-12.3,3.6c-5.9,0.4-15.3-0.5-17.8-0.7c-3.7,5.8-6.8,10.9-9.2,14.8
			c-1.2,2-2.6,5.3-4.2,9.3c1.4,0.2,27.5,4,46.3-28.4c4.1-7.2,6.9-12,8.7-15.3c0,0-11.2,4.6-17.1,1.7
			C580,127.8,606.3,124.4,606.3,124.4z M562.2,139.1c0,0-0.9-5.4-2.1-8.9c-1.2-3.3-1.2-6.9-0.8-8.4c0,2.9,1.9,7.9,1.9,7.9
			c0.7,1.5,2,7.9,2,7.9L562.2,139.1z"/>
	</g>
	<path class="st5" d="M640.4,459.2c-465,19.6-570.2,172.6-570.2,172.6c-24.4,22.6-32.8,50-33.2,50.4c-0.6-0.6-17.1-50.2-11.2-95.5
		c3.5-27,33.5-66.9,59.5-91c165.6-153.7,555-159.5,555-159.5s0.2,123,0.5,123"/>
	<g>
		<rect x="54.9" y="56" class="st2" width="25.8" height="106.5"/>
		
			<rect x="55.1" y="56.7" transform="matrix(2.206128e-11 1 -1 2.206128e-11 155.6679 19.6216)" class="st2" width="25.8" height="62"/>
	</g>
	<g>
		
			<ellipse transform="matrix(0.7674 -0.6412 0.6412 0.7674 -195.0928 181.1849)" class="st2" cx="152.2" cy="359.5" rx="16.2" ry="18.6"/>
		
			<ellipse transform="matrix(0.7674 -0.6412 0.6412 0.7674 -171.2562 177.1644)" class="st2" cx="158.6" cy="324.6" rx="16.2" ry="18.6"/>
		
			<ellipse transform="matrix(0.7674 -0.6412 0.6412 0.7674 -147.5846 172.2831)" class="st2" cx="163.7" cy="289.6" rx="16.2" ry="18.6"/>
		
			<ellipse transform="matrix(0.7674 -0.6412 0.6412 0.7674 -160.5378 153.2823)" class="st2" cx="131" cy="297.9" rx="16.2" ry="18.6"/>
		
			<ellipse transform="matrix(0.7674 -0.6412 0.6412 0.7674 -175.1441 132.9137)" class="st2" cx="95.6" cy="307.9" rx="16.2" ry="18.6"/>
		
			<ellipse transform="matrix(0.7674 -0.6412 0.6412 0.7674 -184.1519 157.5881)" class="st2" cx="125.1" cy="332.6" rx="16.2" ry="18.6"/>
		
			<ellipse transform="matrix(0.7674 -0.6412 0.6412 0.7674 -135.4145 148.8441)" class="st2" cx="137.4" cy="261.1" rx="16.2" ry="18.6"/>
		
			<ellipse transform="matrix(0.7674 -0.6412 0.6412 0.7674 -151.7196 129.9467)" class="st2" cx="103.2" cy="274.1" rx="16.2" ry="18.6"/>
		<g>
			<g>
				<path class="st2" d="M125.7,208.4L125.7,208.4c-0.2,0.2-0.4,0.4-0.6,0.5c-2.6,2.5-2.5,3.5,0.6,5c0,0,0.1-0.1,0.2-0.1l1.2,0.5
					c-0.3-0.1-0.7,0-0.8,0.1c-0.7,1.4-1.3,2.8-1.9,4.2c-0.4,1.2-0.2,2.2,1.2,2.6c0.8,0.3,1.1,0.7,0.9,1.7c-0.1,0.5,0.2,1.1,0.6,1.5
					c0.5,0.5,1.1,0.9,1.7,1.3l0-0.1c-0.2,1.1-0.3,2.2-0.6,3.3c-0.3,1.3,0.3,2.2,1.5,2c1.8-0.3,3.7-0.6,4.9-2.3
					c0.5-0.8,1.1-1.5,1.7-2.1c0.5-0.5,1.1-0.8,1.7-1.2c-0.8,2.8-1.6,5.3-0.3,8.1c0.5-0.2,0.8-0.4,1.3-0.6c0.2,2.7,0.4,5.2,0.6,7.9
					c1.3-0.7,2.3-2.1,3.2,0c0.4,0,0.8-0.1,1.1-0.1c0.6,1.3,1,2.6,1.9,3.6c1.8,2.3,1,2.5,3.8,1.3c0.1,0,0.2,0,0.5,0.1
					c0.2,1.1,0.5,2.3,0.8,3.5c1.1-0.4,1.9-0.9,2.3-0.6c1.9,1.3,3.6,2.7,5.4,4.1c0.5,0.4,1,0.9,1.6,1.4c0.3-0.7,0.5-1.2,0.7-1.7
					c0.8-1.7,1.3-3.7,2.5-5.1c1.8-2.2,2.9-4.2,1.5-7c-0.2-0.5-0.4-1.3,0.6-1.7c1.4-0.5,1.5-1.3,0.5-2.4c-1-1.1-1.9-2.3-2.8-3.5
					c-0.4-0.7-0.8-1.3-1.2-2c-0.1-0.3-0.1-0.7-0.2-1c-0.2-0.9-0.4-1.8-0.6-3.1c1.8,0.5,2.5,1.4,3,2.6c0.7,1.6,1.4,3.1,2.1,4.7l0-0.1
					c0.5,1.5,1,2.9,1.6,4.4c0.2,0.5,0.7,1.4,0.8,1.3c1.1-0.4,1.1,0.6,1.5,1.1c0.2,0.2,0.4,0.4,0.7,0.6l0-0.1c1,0.9,2.1,1.8,3.2,2.6
					c0.2,0.1,0.6,0.1,0.8,0c0.4,0,0.8-0.2,1.1-0.1c1.7,0.9,3.4,1.9,5.3,3.1c-0.9-2.2-0.1-4,0.7-5.9c0.1-0.2,0-0.4,0-0.5
					c-0.1-1.5,0.5-2.2,1.9-1.7c1.2,0.4,2.4,1.1,3.4,1.9c1.4,1,1.9,0.9,2.2-0.8c0.5-2.4,2-3.3,4.2-2.6c1.6,0.5,3.1,0.4,4.7-0.1
					c0.9-0.3,2-0.3,3-0.2c1.7,0.2,3.5,0.8,5.2,1c0.8,0.1,1.7-0.1,2.7-0.2c-1.3-1.3-2.3-2.3-3.3-3.4c-0.9-1-1.8-2-2.7-3
					c-1.3-1.8-2.5-3.7-3.8-5.5c0.4-0.9,0.2-1.5-0.5-2.2c-1.2-1.3-2.7-2.6-1.7-4.8c-0.2-0.2-0.5-0.4-0.7-0.5c-1.3-0.8-2.7-1.5-4-2.3
					c-1.3-0.9-1.2-1.4,0-2.3c0.8-0.6,1.6-1.4,2.3-2.1c0.4-0.4,0.8-0.7,1.2-1.1c-1.7-0.9-3.1-1.7-4.5-2.5c0.3-0.6,0.5-1,0.7-1.2
					c-1.2-0.4-2.3-0.7-3.5-1.1c0-0.2,0-0.4,0.1-0.6c1.2,0,2.5,0,3.7,0c2.2,0.1,4.4,0.2,6.4-0.9c0.3-0.2,0.5-0.5,0.7-0.9
					c0.2-0.4,0.2-1,0.6-1.3c1.1-1.1,2.3-2.1,3.6-3.2c-0.5-0.4-0.9-0.7-1.3-0.9c-1.7-1.2-3.9-2.1-3.6-4.8c0-0.1-0.1-0.1-0.3-0.3
					c-1,0.1-2.1,0.1-3.2,0.2c-0.8-0.2-1.9-0.3-2.2-0.8c-0.3-0.6,0.1-1.6,0.2-2.4c0-0.3,0.2-0.6,0.3-0.8c-2.4-0.1-4.7-0.3-7.5-0.4
					c0.8-1.8,1.4-3.1,1.9-4.4c0.3-0.6,0.5-1.2-0.4-1.4c-2.3-0.3-4.6-1.1-7-0.1c-1,0.4-2.1,0.4-2-1.6c-0.8,0.8-1.2,1.3-1.7,1.8
					c-0.4,0.2-0.9,0.4-1.2,0.7c-0.7,0.5-1.2,1.2-1.9,1.7c-0.3,0.2-0.8,0.3-1.2,0.4c-0.1-0.5-0.5-1-0.4-1.3c0.3-0.8,0.7-1.6,1.2-2.4
					c1.9-2.8,3.8-5.5,5.9-8.3c-2-1-3.6-2.1-5.4-2.6c-1.8-0.5-3.8-0.4-5.7-0.6c0.1-0.4,0.1-0.8,0.2-1.2c-0.3-0.1-0.6-0.2-0.8-0.2
					c-1.9-0.3-3.7,0.4-5.3,1.3c-1,0.5-1.3,0.1-1.5-0.7c-0.1-0.5-0.3-1-0.5-1.7c-1,1-1.9,1.7-2.6,2.6c-0.7,0.8-1.3,1.9-2.1,2.6
					c-0.8,0.7-1.8,1-3,1.7c-0.5-0.2-1.4-0.6-2.3-1c0,0.8-1.1,4.2-1.2,4.8c2.8,21.2-15.4,23.7-15.4,23.7c-2.2-0.2-4-1.7-5.7-3.3
					c-0.7,0.6-1.6,2,1.3,4c0.2,0.2,0.2,0.7,0.3,1.1c-0.4,0.2-1.2,0.3-1.3,0.6C128,206.4,126.8,207.3,125.7,208.4
					c-0.2,0.2-0.4,0.4-0.6,0.5c-2.6,2.5-2.5,3.5,0.6,5c0,0,0.1-0.1,0.2-0.1"/>
				<path class="st2" d="M128.4,204.7c0.1-0.3,0.8-0.4,1.3-0.6l0,0"/>
				<path class="st2" d="M183.6,206.2c-2.3-0.1-4.5-0.2-6.8-0.2c-0.6,0-1.3-0.1-2.1-0.2c0.9-1.8,2.4-1.6,3.5-1.5
					c2,0.2,4,0.8,6.3,1.3C184,205.9,183.7,206.1,183.6,206.2L183.6,206.2z"/>
			</g>
			<path class="st2" d="M150.8,196c-15.7-5.3-29,12.8-37.4,29.1l-1,1.9c-9.8,19-23.3,45.1-52,37.8c-14.4-3.7-25.2-16.2-27-31.3
				c-1.7-14.2,5-26.3,17.9-32.3c12.9-6.1,28.1-0.3,34.6,8.5c5.9,7.9,4.6,17.1-3.5,24.5c-3.3,3-11.7,9.5-19.4,4.8
				c-4.7-2.9-7-9.4-5.1-14.5c1.6-4.3,5.8-6.5,11.2-5.9l-0.4,3.7c-3.7-0.4-6.1,0.8-7.1,3.4c-1.3,3.5,0.3,8.1,3.5,10.1
				c3.7,2.3,8.9,0.8,14.5-4.4c6.7-6.1,7.8-13.3,3.1-19.7c-5.7-7.6-18.9-12.3-29.6-7.3c-11.4,5.3-17.2,16-15.8,28.5
				c1.3,11.2,9.3,24.2,24,28c25.6,6.5,37.8-17,47.5-35.9l1-2c5.2-10,10.6-17.8,16-23.1c8.2-8,16.9-11.1,25.3-8.2L150.8,196z"/>
		</g>
	</g>
	<path class="st6" d="M187.7,526.8c2.8,4.9,3.5,6.2,9.1,3l7,12.3l-28.6,13.5l-7-12.3c5.5-3.1,4.8-4.4,2-9.3l-10.2-18l-21.3,12.1
		l10.2,18c2.8,4.9,3.5,6.2,9,3l6.5,12l-27.4,15.5l-6.7-11.9c5.6-3.2,4.9-4.4,2.1-9.4l-28.4-50c-2.8-4.9-3.5-6.2-9.1-3l-5.8-10.5
		l25.6-20.6l7.2,14c-5.5,3.1-4.3,5.8-1.5,10.7l8.9,15.7l21.3-12.1l-8.9-15.7c-2.8-4.9-4.9-8.5-10.4-5.4l-8-13.3l27-17.1l8.6,14.8
		c-5.6,3.2-3.6,6.8-0.8,11.7L187.7,526.8z"/>
	<path class="st6" d="M209.6,539.9l-7.1-13.3c6-3.2,5.3-4.5,2.5-9.7l-28.3-53.3c-2.8-5.3-5.1-8.8-11.1-5.6l-7.5-14
		c0,0,20.3-10.7,27.9-14.4c7.1-3.4,29.3-13.1,29.3-13.1l13.3,24.8l-9.8,5.2c-3.8-7.1-4.9-6.5-9.2-4.2l-17.4,9.2l12.4,23l22.7-12.1
		l10.4,19.3l-22.7,12.1l12.3,23.2l16.4-8.7c4.5-2.4,6.3-3.3,3.6-11l9.8-5.2l12.5,25.8L209.6,539.9z"/>
	<path class="st6" d="M86.9,527c-4.4-8.8-11.8,1.4-11.8,1.4l26,46.5c2.6,5,3.2,6.2,9,3.2l6.3,12l-27,21.3l-6.3-11.9
		c5.9-3.1,3.9-7.1,1.3-12.1l-23.9-44.4c0,0-11.3,6.3-2,15.5l-8.9,7.2l-8.4-15.8c0,0,6.5-12,18.9-27.6c11.7-14.8,23.5-25.1,23.5-25.1
		L96.5,522L86.9,527z"/>
	<path class="st6" d="M286.8,450c5.3,23,12.2,36.3,29.6,32.3c2.4-0.5,4.5-1.2,6.7-2l-7.8-34.1l23.6-5.4l9,39l1.8,7.9
		c-10.7,8.8-18.9,12.8-28.5,15c-32.1,7.4-49.7-9.2-58.5-47.1c-8.7-37.9-0.6-59.5,31.7-66.9c9.7-2.2,19.1-3.2,32.5,0.1l5.3,23
		l-13.3,3.1c-1.9-8.2-10.1-8.9-19.5-6.7C281.8,412,281.6,427,286.8,450z"/>
	<path class="st6" d="M469.5,383.6c-1.4-8.9-2.7-8.7-7.9-7.9l-5.5,0.8l10.9,70.9c1,6.6,1.3,8.3,8.3,7.2l2.7,18.7l-34.6,4.9
		l-3.2-18.1c7.2-1.1,6.9-2.8,5.9-9.4l-10.9-70.9l-5.5,0.8c-5.2,0.8-6.7,1-5.3,10l-11.7,1.8l-4.8-31.1l68.5-10.5l4.8,31.1
		L469.5,383.6z"/>
	<path class="st6" d="M425.2,457.8c1.7,4.2,3.6,4.4,7.4,3.7l3.2,17.6l-22.4,3.9l-9.8-25.4l-24.3,4.5l-0.3,27.3l-21.3,4l-3.2-17.4
		c4.2-0.8,5.8-1.9,5.9-8.3l1.6-96.9l26.5-5.5L425.2,457.8z M387.8,417.5c-2.6-7.1-5.4-14.1-7.9-21.1l-0.2,0
		c0.3,11.2,0.6,18.9,0.1,24.7l0.1,18.3l15-2.8L387.8,417.5z"/>
	<path class="st6" d="M498.7,470.4l-2-18c7.2-0.8,7-2.5,6.3-9.2l-7.6-68.3c-0.8-6.7-0.9-8.4-8.2-7.6l-2-18l67.6-7.6l3.5,31.6
		l-11.8,1.3c-1-9.1-2.3-8.9-7.6-8.4l-21,2.3l2.8,25.2l27.4-3.1l2.5,22.4l-27.4,3.1l3.2,28.4l19.8-2.2c5.4-0.6,7.6-0.9,7.9-10.1
		l11.8-1.3l2.3,32.8L498.7,470.4z"/>
	<path class="st6" d="M592.3,370.6c1.1,15.4,44.4,15.2,47.1,52.3c1.6,22.2-10.9,36.6-32.7,38.1c-10.3,0.7-22.2-0.6-32.8-5.8l-1.6-23
		c11,4.7,21.9,8.3,32.1,7.6c8.6-0.6,12.3-5.2,11.8-12.3c-1.2-17.6-44.6-16.2-47.3-53c-1.6-23,13.4-34.9,30.8-36.2
		c10.5-0.7,19.6,0.3,31.8,5.9l1.8,24.7l-12.9,0.9c-0.6-9.1-9.6-10.8-17.9-10.2C594.6,360.1,591.8,364.4,592.3,370.6z"/>
	<g>
		<g>
			<path class="st7" d="M364.7,235.3c0,0-2.1,2.3-2.4,3.1c-0.2,0.5,0.9,1.5,1.4,1.2c0.6-0.5,2.4-3.1,2.4-3.1s3.3,2.9,4.8,3.2
				c2.3,0.4,3.5-2.7,3.5-2.7c0.2-0.7-0.1-1-0.4-1.3c-0.3-0.2-0.7-0.4-1.2-0.2c-0.5,0.2-1.6,1.7-1.6,1.7l-3.5-3c0,0,2.1-2.3,2.4-3.1
				c0.2-0.5-0.9-1.5-1.4-1.2c-0.6,0.5-2.4,3.1-2.4,3.1l-9-7.2c-2-1.8-4.2-3.3-6.4-4.9c-9.3-6.7-19.7-9.3-29.6-8.9
				c-1,0-2.7,0-3.9,0.6c-0.7,0.4-1.5,1.3-1.5,1.3l6.3,0.2c9.2-0.1,18.7,2.9,27.2,9c2.2,1.6,4.4,3.1,6.4,4.9L364.7,235.3z"/>
		</g>
		<g>
			<path class="st7" d="M366.4,233.1l-9-7.2c-2-1.8-4.2-3.3-6.4-4.9c-9.3-6.7-19.7-9.3-29.6-8.9c-1,0-2.7,0-3.9,0.6
				c-0.7,0.4-1.5,1.3-1.5,1.3l6.3,0.2c9.2-0.1,18.7,2.9,27.2,9c2.2,1.6,4.4,3.1,6.4,4.9l8.7,7.2"/>
			<path class="st7" d="M315,214.4l0.6-0.8c0.1-0.1,0.8-1.1,1.6-1.5c1.2-0.6,2.7-0.6,3.8-0.7c0.1,0,0.2,0,0.4,0
				c10.8-0.4,21.1,2.7,29.9,9l0.9,0.7c2,1.4,3.8,2.7,5.5,4.3l9,7.2l-0.6,0.8l-9-7.2c-1.7-1.5-3.5-2.8-5.5-4.2l-0.9-0.7
				c-8.6-6.2-18.7-9.2-29.2-8.8c-0.1,0-0.2,0-0.4,0c-1,0-2.4,0.1-3.4,0.5c-0.2,0.1-0.4,0.2-0.6,0.4l5.2,0.1
				c9.6-0.1,19.1,3.1,27.5,9.1c0.3,0.3,0.7,0.5,1,0.7c1.9,1.4,3.7,2.7,5.4,4.2l8.7,7.2l-0.6,0.8l-8.7-7.2c-1.7-1.5-3.4-2.8-5.3-4.1
				c-0.3-0.2-0.7-0.5-1-0.7c-8.2-5.9-17.5-9-26.9-8.9L315,214.4z"/>
		</g>
	</g>
	<g>
		<path class="st7" d="M357.3,253.8c-1.2,14.1-20.4,18.5-20.4,18.5s3.4-6.4,4-8.6c1.1-3.7-0.5-5.6-1.6-6.5c-1-0.9-2.2-1-2.2-1
			c-3.2-0.5-12.6-1.6-12.6-1.6l1.1-8.8c0,0,9.4,1.6,12.6,1.7c1.7,0,4.5-0.4,5.1-4.2c1-5.7-2.3-11.3-2.3-11.3
			S358.8,237.2,357.3,253.8z"/>
		<path class="st7" d="M328.5,317.4c0.1-0.1,7.3-70.4,7.3-70.4l0-2.4l-0.9-1.4l2.2-1.4l-0.7-16.6l-0.1,0.4l-4.4,15.7l1.9,1.8
			l-1.2,1.2l-0.4,2.3c0,0-7.7,70.3-7.6,70.4L328.5,317.4z"/>
	</g>
	<path class="st2" d="M639.8,515.4c0.6-3.6,1.4-7,1.6-10.5c0.3-6.9-1.4-13.3-4.9-18.9c-3.8-5.9-9.2-8.7-15.6-9.1
		c-0.5,0-1-0.4-1.5-0.3c-1.9,0.2-3.8,0.3-5.7,0.5c-1.8,0.8-3.7,1.1-5.5,1.6c-7.6,2.4-14.6,6.3-19.5,13.5c-1.7,2.5-3.5,3.1-6,2.8
		c-0.2,0-0.4,0-0.6-0.1c-8.8-0.8-17,1.3-24.7,6.3c-8,5.3-13.2,12.8-14.4,23.2c-0.1,0.7-0.3,1.5-0.2,2.2c0.1,1.7,0.2,3.5,0.3,5.2
		c0,0.6,0.2,1.2,0.4,1.8c2.1,9.9,7.3,16.6,16,19.7c0.5,0.2,1,0.3,1.4,0.5c-0.1,0.8-0.3,1.5-0.4,2.3c-0.2,3,1.5,4.2,3.8,5.2
		c0.8-0.1,1.7-0.1,2.5-0.2c3.1-0.9,5.8-3,8.2-5.5c0.5-0.5,1.3-0.5,2-0.6c18.4-2.1,34.9-9.4,49.6-22.2c0,0,0.1-0.1,0.1-0.1
		c2.8-3.1,5.6-5.7,9.9-5.6c1.6,0,3.4-1.3,4.8-2.5c2-1.6,2.4-4.4,1.6-6.8C642.4,516.2,641.1,515.6,639.8,515.4z M587.3,541.2
		c0.5-0.8,0.7-1.2,0.9-1.6c2.6-4.7,5.2-9.4,7.7-14.2c0.6-1.1,1-1.4,2.2-1.2c4.5,1,9,1.9,13.6,2.7c0.7,0.1,1.5,0.2,2.7,0.4
		C605.9,534,597.2,538.5,587.3,541.2z M598,499.7c6.6-6.5,13.8-10.7,22.7-9c4,0.7,6.7,3.5,7.6,7.9c1.1,5.1,0.5,10.1-1.6,14.8
		c-0.5,1.1-1.1,1.5-2.2,1.5l-22.2-4.8c-0.4-0.1-0.9-0.9-0.9-1.3C601.5,505.3,600.4,502.3,598,499.7z M572.8,541.6
		c-0.4,0.5-1.3,0.8-1.9,0.8c-3.5-0.4-6.7-1.6-9.6-3.9c-6.2-4.7-7.6-13.3-3.4-20.4c0.6-0.9,1.2-1.8,1.9-2.6
		c6.1-6.4,13.5-8.1,21.4-7.6c1,6.6,1,6.6,5.4,10.9C583.9,526,577.7,536.4,572.8,541.6z"/>
	<g>
		<path class="st2" d="M334.7,608c4.6-11,14-14.2,24.8-14.8c12.1-0.6,17.6,9,25.1,16.4c-1.3,0.4-2.4,0.9-4.2,1.5
			c2.3,3.2,4.4,6.2,7.2,10.1c-3.1-0.6-5.1-0.9-7.9-1.5c0.8,3.3,1.5,6.3,2.5,10.6c-2.3-1.9-3.5-2.9-5-4.1c-0.3,2.4-0.7,4.6-1.1,7.2
			c-2.1-1.8-3.7-3.2-5.7-5.1c-0.4,3.3-0.7,6-1.1,9.3c-1.9-1.5-3.2-2.4-4.7-3.5c-0.7,1.7-1.4,3.3-2.7,6.2c-1.5-2.6-2.5-4.3-3.5-6
			c0.9,0.8,1.9,1.5,2.9,2.3c5.9-11.7,8-13.1,14.5-10.3c-1.7-1.7-3.3-3.3-5.1-5.1c0.1-0.1,0.7-0.8,1.1-1.5c0.5-0.9,0.8-1.9,1.2-2.9
			c-5.1-1.1-5.1-1.1-10.8-6c-4.1-3.5-8.1-2.6-10.8,2.1c-1.9,3.4-4.3,6.6-6.8,10.5c0.4,0.3,1.9,1.6,2.3,2c-1,2.8-1.8,4.8-2.5,6.8
			c4.9-4.3,11.2-3.4,14.1,2.2c-1.2,1.7-2.4,3.5-4,5.9c-1.5-2.8-2.9-5.1-4.5-8c-1,2.2-1.9,4.1-3.2,6.8c-1.5-2.5-2.7-4.6-4-6.8
			c-0.9,1.7-1.8,3.5-2.7,5.3c-0.3-0.1-0.6-0.1-1-0.2c-0.3-3.1-0.5-6.3-0.8-9.9c-2.1,1-3.8,1.8-6.2,3c0.8-3.8,1.5-7.1,2.3-10.9
			c-1.7,0.1-3,0.2-4.6,0.2c1.7-4.2,3.3-8.1,4.9-12.1c1.7,1.8,3.4,3.5,5,5.4c1.3,1.5,2.1,4.2,3.6,4.6c1.7,0.4,3.9-1.1,6.7-2.1
			C345.5,609.8,339.7,609.9,334.7,608z M374.4,601.4c-2.3,1.9-4.9,3.6-7,5.7c-1.2,1.3-1.5,3.3-2.2,5c1.7,0.5,3.7,1.7,4.9,1.2
			c1.5-0.6,2.7-2.6,3.2-4.3C374.1,606.8,374,604.3,374.4,601.4z"/>
		<path class="st2" d="M360.4,630.4c-2.8-2.9-6.1-6.3-9.2-9.4c0.4-0.7,1.2-2.2,2.2-3.7c1.1-1.7,2.3-4.3,3.7-4.5
			c1.5-0.2,3.4,1.9,5,3.1c1.3,0.9,2.5,2,3.8,3L360.4,630.4z"/>
	</g>
	<g>
		<path class="st2" d="M366.1,814.8c-7.9-9.8-3.8-20.8-4.1-30.8c-2.3,5.4-4.2,11.4-7.2,16.7c-3.4,5.9-9.3,7.7-16.2,5.9
			c3.3-9.8,6.6-19.6,9.8-29.4c0.3,0.1,0.5,0.1,0.8,0.2c-0.4,2.9-0.9,5.9-1.3,8.8c0.4,0.5,0.8,1,1.2,1.5c4.4-3.2,8.7-6.3,13.6-9.8
			c2,3.7,4.4,8,7.1,13c2.5-2.3,4.5-4,6.4-5.7C379.4,795.4,374.7,809.8,366.1,814.8z"/>
		<path class="st2" d="M308,750.4c4.3-2.5,10.5,3.8,12.5-4.3c1.1,0.8,2.1,1.6,3.3,2.6c0.3-1,0.7-1.6,0.6-2.1c-0.5-4.3-1-8.7-1.7-13
			c-0.8-5-3.7-6.6-8.5-5c3.7-5.1,6.6-5.2,10.8-1.2c5.5,5.2,5.3,12,4.7,18.5c-0.5,6.5,2.8,10.5,6.7,15c3,3.3,5.1,7.9,6.2,12.2
			c0.6,2.2-1.9,5.3-4.1,7.6c2.5-5.3,2-9-3.8-11.2c-1-0.4-1.8-1.6-2.7-2.4c-9.1-9.7-18.6-11.8-31-6.5c-2.4,1-4.3,3.2-7.6,5.8
			c-0.3-2.4-1.5-5.3-0.7-7.5c1.9-5.3,6.4-6.3,15.7-4C308.2,753.1,308.1,751.7,308,750.4z"/>
		<path class="st2" d="M449.6,694.2c-7.6,1.6-8.5,4.7-4.4,11.2c2,3.1,2.5,7.1,3.9,11.6c0.9-1.8,1.6-3.1,2.2-4.4
			c5.4,6.8,8-2.5,12.8-1.9c0.4,1,1,2.4,2.1,4.9c3.7-6.5,8.4-9.8,14.6-5.4c2,1.4,2.8,4.5,3.5,7.2c-8.7-3.2-17.2,0.4-24.9,4.8
			c-9.3,5.3-6.5,15.4-11.5,22c-0.7,0.9,2.2,4.6,4.2,8.7c-3.1-2.2-6.6-3.3-7.3-5.4c-1.4-3.9-2.9-9.2-1.3-12.4c4.3-8.8,0.8-15.6-3-23
			c-1.7-3.4-2.5-7.8-2.2-11.6C439,692.7,441.9,691.4,449.6,694.2z"/>
		<path class="st2" d="M397.1,780.1c-2.6-6.2-5.2-12.4-8.3-19.9c2.6,0.9,3.8,1.3,5.4,1.9c1-1.5,2.1-3.1,3.3-4.9
			c2.3,1.1,4.4,2.1,7.2,3.4c1-3.2,1.8-5.8,2.7-8.6c2.5,0.8,5.3,1.8,9,3.1c0.2-4.6,0.3-8.4,0.5-11.6c11.1-0.5,17.9,5.8,22.3,15.3
			c-6.2-0.2-6.2-0.2-20.6-12.9c1.9,4.4,3.9,8,5.1,11.9c1.1,3.9,1.4,8,2.3,13.1c-8.4-1.4-12-7.4-17.6-11.7c1.6,6.2,3.1,12.3,4.7,18.5
			c-8.5-3-10.5-10.7-14.5-17c0.5,6.6,0.9,12.8,1.3,19.1C398.9,779.7,398,779.9,397.1,780.1z"/>
		<path class="st2" d="M462.7,737.5c-2.4,0-4.5-0.1-6.6-0.1c0.6-8.7,5.8-13.2,12.7-11.2c-0.9,1.6-1.7,3.1-2.5,4.6
			c11.7-4.7,22.7-0.7,33.9,1c-5.3,12.9-14.7,18.2-27,14.4C468.9,744.9,461.6,745.7,462.7,737.5z"/>
		<path class="st2" d="M286.7,785.9c9-6.5,16.5-15.5,29-16.8c-1.3-0.9-2.6-1.9-4-2.9c4.2-4.5,13.3-3.5,15,1.7
			c0.5,1.4-2.1,3.7-2.4,4.3c-1.3,4-1.4,7.2-3,9.2C310.8,794.8,297.9,796.4,286.7,785.9z"/>
		<path class="st2" d="M404,777.8c5.9,6.9,8,28.4,3.7,36.3c-7.7-3.5-16.7-24-14.6-33.7c2.2,2,4.3,3.8,7.2,6.5
			C401.7,783.5,402.8,780.6,404,777.8z"/>
		<path class="st2" d="M431.8,764.3c3.3,5.4,7,10.7,9.6,16.4c1.9,4.2,2.5,9.1,3.7,13.9c-10.3,0.7-19.6-7.4-25-20.8
			c2.7,0.6,5.1,1.2,8.8,2c0.1-4.7,0.1-9,0.2-13.3C430,763.1,430.9,763.7,431.8,764.3z"/>
		<path class="st2" d="M427.3,809c-12.5-5-14.4-16.7-19.6-26.5c8,0.8,8.5,0.2,9-10.8C422.8,783.9,431.7,794.1,427.3,809z"/>
		<path class="st2" d="M387.5,818.5c-7.9-6.6-10.5-18.4-8.1-35.9c6.2,8.6,6.2,8.6,11.5,4.4C395,797.5,393.6,812.1,387.5,818.5z"/>
		<path class="st2" d="M379.2,765.6c-2,6.2-1.7,13.5-7.6,18.2c-5-5.6-6-9.2-6.6-24.7c-3.3,8.1-4.5,16.5-12.8,22.9
			c1.1-6.6,0.9-12,3-16.2c2-4,6.4-6.8,9.7-10.1c2,3.4,4,6.7,6.4,10.8c2.5-2.8,4.4-4.9,7.2-8.1c0.3,3,0.5,5.2,0.7,7.3L379.2,765.6z"
			/>
		<path class="st2" d="M431.8,764.3c-0.9-0.6-1.8-1.2-2.7-1.8c-0.7-3.8,1.3-2.2,3.1-1.7c4.4,1.1,8.8,1.8,13.3,2.7
			c0.2-0.6,0.5-1.2,0.7-1.8c-1.3-1.9-2.5-3.8-3.8-5.7c0.2-0.2,0.5-0.4,0.7-0.6c7,6.4,14,12.8,21,19.2c-5.1,5.2-11.8,6.4-17.9,2.3
			C441,773.2,436.6,768.5,431.8,764.3z"/>
		<path class="st2" d="M341.5,784.9c-4.9,13.4-15.5,18.2-28.6,12.5c5.1-5.4,10.1-10.6,14.9-15.7
			C332.3,782.8,336.9,783.9,341.5,784.9z"/>
		<path class="st2" d="M451.3,756.9c3.5-3.1,7.1-6.3,10.6-9.4c6.4,2.1,13.1,4.3,19.9,6.5C478,764.3,461.6,767.2,451.3,756.9z"/>
		<path class="st2" d="M379.1,765.8c0.6-0.8,1.2-1.6,1.7-2.5c4.1,3.7,5.3-0.5,7.9-4.3c0.9,9.7,1.7,17.7-1.8,25.4
			c-0.6,0.1-1.2,0.2-1.9,0.4c-2-6.4-4-12.8-5.9-19.2C379.2,765.6,379.1,765.8,379.1,765.8z"/>
		<path class="st2" d="M316.1,748.6c-7.3-3.9-13.3-7.2-19.9-10.7c1.1-2.7,4.5-2.8,8.3-2.9C313,734.7,312.9,741.9,316.1,748.6z"/>
		<path class="st2" d="M457.1,711.3c-0.7-5.5-4.9-11,1.3-15c4.3-2.7,6.8-3.3,9.9-2C464.7,699.8,460.9,705.6,457.1,711.3z"/>
		<path class="st2" d="M425.4,734.7c4-0.3,8.2-0.6,13.2-0.9c0.1,3.1,0.2,6.6,0.4,10.2C432,743.6,427.4,740.3,425.4,734.7z"/>
		<path class="st2" d="M346.1,767.7c-1.5-3.1-3-6.1-4.5-9.1c4.3-2,8.2-3.9,14.2-6.7c-2.9,6.3-5.2,11.3-7.6,16.3
			C347.5,768.1,346.8,767.9,346.1,767.7z"/>
		<path class="st2" d="M439.1,729.8c-2.3-3.5-4.7-7.1-7.7-11.7C440,718.7,441.8,721.4,439.1,729.8z"/>
		<path class="st2" d="M340.3,742.7c-0.4,4.2-0.8,8.4-1.3,14C332.9,749.8,333,746.5,340.3,742.7z"/>
		<path class="st2" d="M434.4,712.3c-5.5,0.3-7.9-1.7-6.8-7C433.3,704.2,433.6,708.2,434.4,712.3z"/>
		<path class="st2" d="M333.6,736.8c0.6-3,1.3-6,1.9-8.9C341.1,732.4,339.7,735.2,333.6,736.8z"/>
	</g>
	<g>
		<path class="st2" d="M280.2,690.7c0.1-6.9,0.2-13.8,0.3-22.3c2.1,1.9,3.1,2.8,4.4,4c1.6-1,3.2-2.1,5.1-3.3c1.7,2,3.4,3.8,5.4,6.1
			c2.2-2.6,4.1-4.8,6.1-7c2,1.8,4.3,3.9,7.2,6.5c2.1-4.3,3.8-7.8,5.2-10.8c10.7,4.1,14.6,12.8,14.9,23.5c-5.8-2.7-5.8-2.7-14.2-20.6
			c0,4.9,0.5,9.2,0,13.3c-0.5,4.1-1.9,8.2-3.2,13.3c-7.4-4.7-8.3-11.9-11.9-18.2c-1,6.5-2.1,12.9-3.1,19.4
			c-6.8-6.3-5.6-14.4-6.8-22.1c-2.2,6.4-4.4,12.5-6.5,18.6C282.1,691.1,281.1,690.9,280.2,690.7z"/>
		<path class="st2" d="M269.2,669.7c-4.5,5.1-7.1,12.1-14.6,14.1c-2.5-7.3-1.9-11.1,3.8-26.1c-6.4,6.4-11,13.7-21.5,16.5
			c3.7-5.8,5.7-10.9,9.5-14.1c3.5-3,8.9-3.9,13.3-5.6c0.5,4.1,1,8,1.6,12.8c3.5-1.6,6.2-2.9,10.1-4.7c-1,3-1.6,5.1-2.3,7.2
			L269.2,669.7z"/>
		<path class="st2" d="M269,669.9c0.9-0.5,1.8-1.1,2.7-1.6c2.4,5.2,5.3,1.7,9.3-0.8c-3.1,9.5-5.6,17.4-12.1,23.3
			c-0.6-0.1-1.3-0.3-1.9-0.4c0.7-6.9,1.5-13.7,2.2-20.6C269.2,669.7,269,669.9,269,669.9z"/>
	</g>
	<g>
		<path class="st2" d="M463,652.8c-3.2-6.1-6.3-12.2-10.2-19.5c-1,2.7-1.4,3.9-2,5.5c-1.8-0.2-3.8-0.4-6-0.6
			c-0.7,2.5-1.3,4.8-2.1,7.8c-3.1-1.3-5.7-2.4-8.5-3.5c-1,2.5-2,5.3-3.5,9c-3.7-2.9-6.8-5.2-9.4-7.2c-7.7,8.4-7.2,17.8-2.7,27.4
			c3.9-5,3.9-5,3.4-24.6c2.2,4.4,3.7,8.3,6,11.8c2.3,3.4,5.3,6.4,8.8,10.3c4.4-7.5,2.1-14.2,2.4-21.4c3.8,5.3,7.6,10.5,11.4,15.8
			c3.2-8.6-1.5-15.2-3.8-22.5c4.8,4.7,9.5,9.1,14.1,13.5C461.5,654,462.2,653.4,463,652.8z"/>
		<path class="st2" d="M463.4,629.4c6.2,2.5,11.7,7.5,19.2,6c-1.1-7.6-3.3-10.7-15-21.3c8.5,2.8,15.8,7.2,26.4,5
			c-5.8-3.4-10-7.1-14.7-8.2c-4.5-1.1-9.6,0.6-14.2,1c1.4,3.8,2.7,7.5,4.3,12c-3.8,0.1-6.7,0.2-11,0.4c2.2,2.2,3.7,3.8,5.3,5.3
			L463.4,629.4z"/>
		<path class="st2" d="M463.6,629.5c-1-0.1-2-0.2-3.1-0.2c0.2,5.7-3.9,3.9-8.5,3.4c7,7,12.7,12.9,21,15.2c0.5-0.4,1-0.8,1.5-1.2
			c-3.7-5.7-7.4-11.5-11.1-17.2C463.4,629.4,463.6,629.5,463.6,629.5z"/>
	</g>
	<path class="st1" d="M114.7,703.3c-0.3,0.6-8.7-2.5-8-2.2c0,0-4.7-58-6.3-73.5c-1.3-12.3-1.8-23.5-1.8-23.5
		c12.4,11.9,32.1,26.3,54.3,38.8C152.9,642.9,138.9,653.9,114.7,703.3z"/>
	<g>
		<path class="st6" d="M318.1,702.4c-5.9-23-2.4-39.3,16.7-44.2c19.1-4.9,30.1,7.7,36,30.6c5.9,23,2.6,40.3-16.5,45.2
			C335.2,739,324,725.3,318.1,702.4z M332.6,698.6c4.7,18.2,9.5,24.4,18.3,22.2c8.8-2.3,10-10,5.3-28.3c-4.7-18.2-9.2-23.4-18-21.2
			C329.5,673.6,328,680.4,332.6,698.6z"/>
		<path class="st6" d="M412.8,661.7c-1.2-5.8-2.1-5.6-5.6-4.8l-13.9,3.1l4,18.8l18.2-4l3,14.2l-18.2,4l2.7,12.8
			c0.9,4.3,1.1,4.9,8.4,3.3l2.9,12l-26.4,5.7l-2.4-11.5c4.8-1.1,4.6-2.1,3.7-6.4l-9.1-43.5c-0.9-4.3-1.1-5.4-5.9-4.3l-2.5-12.2
			l44.9-8.5l4.2,19.4L412.8,661.7z"/>
	</g>
	<g>
		<g>
			<g>
				<path class="st2" d="M486.8,696.5c-1.1-1.1-15.6-18.5-17.2-20.6c-1.7-2.3-10.2-15.4-10.4-20.4c-0.1-4.9,1.2-9.8,3.3-14.2
					c2.1-4.5,68.5-74.3,68.5-74.3c21.8-0.6,35.5-11.5,56.9-15.7c15.9-3.1,38.8,3.4,54.3,8.2c1.8,0.6-0.2,266.5-0.4,267.5
					c-0.2,0.7-125.4,5.2-125.4,5.2c0.2,0.2,11.7-54.7,11.7-54.7c1.1-10.6,2.1-21.7-2.2-31.4C522.8,738.5,490.9,700.8,486.8,696.5
					L486.8,696.5z"/>
			</g>
			<g>
				<path class="st0" d="M485.5,605.1c-1.5,1.5-2.5,4.4-3.5,6.3c-5.9,11.4-14.8,20.8-22.3,31.2c-0.5,0.7-0.9,1.4-1,2.2
					c0,0.8,0.5,1.7,1.3,1.6c7-9.3,14.1-18.7,21.1-28c1.4-1.8,2.7-3.6,3.9-5.6c1.3-2.2,2.3-4.7,3.8-6.8
					C487.6,605.8,486.6,605.4,485.5,605.1L485.5,605.1z"/>
			</g>
			<g>
				<path class="st0" d="M485.6,615.6c-4.8,3.8-7.2,9.7-10.3,15c-5.3,9.1-13.1,16.6-18.1,25.9c0.3,0.6,1.3,0.8,1.9,0.5
					c0.7-0.3,1.1-0.9,1.5-1.5c2.2-3,4.5-6.1,6.7-9.1c6.7-9,13.3-18,20-27c0.6-0.8,1.2-1.7,1.1-2.7s-1.4-2.1-2.2-1.6L485.6,615.6z"/>
			</g>
			<g>
				<path class="st0" d="M508.4,632.7c-2,2.9-3.7,6.1-5.1,9.4c-2.8,6.1-5.1,12.4-7.9,18.5c-3.6,7.7-8,14.9-12.4,22.1
					c-1.7,2.8-3.4,5.5-5.1,8.3c1.3-0.1,2.5,0,3.8,0.3c0.4,0.1,0.8,0.2,1.1,0c0.2-0.1,0.4-0.4,0.6-0.6c5.8-8.6,11.6-17.2,16.3-26.4
					c1.9-3.7,3.7-7.6,5.4-11.4c2.8-6,5.5-12.1,8.3-18.1c-1.5-1.1-3.2-1.8-5-2.1"/>
			</g>
			<g>
				<path class="st0" d="M543,636.6c-3.3,5.7-6.9,12.6-10.2,18.3c-1.6,2.8-3.2,5.5-4.7,8.3c-3,5.8-5.5,11.8-8.1,17.8
					c-5.6,12.7-11.8,25.2-18,37.6c2.1,0.2,4.5,0.3,6.1-1.1c0.6-0.5,0.9-1.1,1.3-1.8c8.4-13.8,15.5-28.4,21.3-43.5
					c1.9-5,3.7-10,6.3-14.7c1.6-2.9,3.6-5.7,5.5-8.4c2.3-3.2,4.5-6.4,6.8-9.7c0.2-0.3,0.4-0.6,0.2-0.9c-0.1-0.1-0.2-0.2-0.3-0.2
					C547.2,637.4,545.2,636.8,543,636.6L543,636.6z"/>
			</g>
			<g>
				<path class="st0" d="M566.3,650.2c-1.4,2.8-4.9,9.1-6.2,11.9c-4,8.7-7.6,17.5-11.4,26.3c-4.8,11-9.9,21.9-13.1,33.5
					c-1.8,6.2-6.7,14.4-8.7,20.5c-0.4,1.2-0.8,2.4-0.7,3.6c0.1,1.2,0.8,2.5,2,2.9c10.8-16.9,19.5-38.7,28.3-56.7
					c4.7-9.7,12.7-22.6,15.5-33c0.5-2,0.9-4.2,0.1-6.1C571.1,650.6,568.8,649.3,566.3,650.2L566.3,650.2z"/>
			</g>
			<g>
				<path class="st0" d="M593.6,703.1c-19.4,28.6-37.1,59.2-52.3,90.2c-1.8,3.7-3.6,7.4-6.1,10.7c-1.9,2.5-4.3,5.1-4.5,8.2
					c4.7-1.9,8.4-5.8,11.4-9.9c4.9-6.7,8.4-14.4,12.5-21.6c4.9-8.6,10.7-16.6,16.8-24.4c2.6-3.3,5.2-6.6,7.5-10.1
					c2.2-3.4,4-7,6.2-10.4c2.4-3.8,5.3-7.2,7.8-10.9c3.1-4.6,5.6-9.5,8.1-14.5C597.2,709.9,594.2,706.8,593.6,703.1L593.6,703.1z"/>
			</g>
		</g>
		<g>
			<g>
				<path class="st0" d="M477.7,629.6c10.2,1.6,19.9,5.7,30.2,6.6c0.5,0,0.5-0.7,0-0.8c-10.3-0.9-19.9-5-30-6.6
					C477.5,628.8,477.3,629.6,477.7,629.6L477.7,629.6z"/>
			</g>
		</g>
		<g>
			<g>
				<path class="st0" d="M485.4,621.2c2.1,11.3,7.1,20.5,17.9,25.2c0.4,0.2,0.8-0.5,0.4-0.6c-5.4-2.3-9.7-5.3-12.6-10.5
					c-2.3-4.3-4.1-9.4-5-14.2C486,620.5,485.3,620.7,485.4,621.2L485.4,621.2z"/>
			</g>
		</g>
		<g>
			<g>
				<path class="st0" d="M471.7,639.7c8.9,5.2,18.5,7.9,28.8,8.2c0.5,0,0.5-0.7,0-0.8c-10.2-0.3-19.6-3-28.4-8.1
					C471.6,638.8,471.3,639.4,471.7,639.7L471.7,639.7z"/>
			</g>
		</g>
		<g>
			<g>
				<path class="st0" d="M476.4,632.8c2.4,2.8,2.1,6.3,3.2,9.6c0.7,2.4,2,4.7,3.5,6.7c3.6,4.9,8.9,8.1,14.2,10.9
					c0.4,0.2,0.8-0.4,0.4-0.6c-6.3-3.3-12.6-7.3-16-13.8c-2.2-4.2-1.6-9.6-4.7-13.3C476.6,631.9,476.1,632.4,476.4,632.8
					L476.4,632.8z"/>
			</g>
		</g>
		<g>
			<g>
				<path class="st0" d="M462.5,651.1c10.7,5.3,21.9,9.2,33.6,11.7c0.5,0.1,0.7-0.6,0.2-0.7c-11.6-2.5-22.8-6.3-33.4-11.6
					C462.5,650.2,462.1,650.9,462.5,651.1L462.5,651.1z"/>
			</g>
		</g>
		<g>
			<g>
				<path class="st0" d="M468.4,644.6c2.5,6.6,2.2,13.4,6,19.7c3.2,5.3,7.7,9.4,13,12.3c0.4,0.2,0.8-0.4,0.4-0.6
					c-5.7-3.1-10.4-7.6-13.5-13.3c-3.2-5.9-2.9-12.1-5.2-18.2C469,643.9,468.3,644.1,468.4,644.6L468.4,644.6z"/>
			</g>
		</g>
		<g>
			<g>
				<path class="st0" d="M459.7,654.1c3.2,13.1,12.1,23.8,24.5,29.1c0.4,0.2,0.8-0.5,0.4-0.6c-12.2-5.3-21-15.8-24.1-28.7
					C460.3,653.4,459.6,653.6,459.7,654.1L459.7,654.1z"/>
			</g>
		</g>
		<g>
			<g>
				<g>
					<path class="st0" d="M509.4,642.7c-0.1,0-0.3-0.1-0.4-0.1c-0.2,0-0.3,0-0.4,0.2c-0.1,0.1-0.2,0.2-0.2,0.3
						c-0.2,0.2,0,0.5,0.2,0.6c10,3.1,20.2,5.3,30.6,6.3c0.5,0.1,0.5-0.7,0-0.8c-10.2-1.1-20.1-3.4-29.9-5.8
						C509.7,643.5,509.9,642.8,509.4,642.7L509.4,642.7z"/>
				</g>
			</g>
			<g>
				<g>
					<path class="st0" d="M510.1,636.5c4.1,10,10.7,18.3,19.5,24.6c0.4,0.3,0.8-0.4,0.4-0.6c-8.6-6.1-15.2-14.4-19.2-24.2
						C510.6,635.9,509.9,636.1,510.1,636.5L510.1,636.5z"/>
				</g>
			</g>
			<g>
				<g>
					<path class="st0" d="M500.5,657.5c3.8,1.7,8.3,1.5,12.4,1.8c5.7,0.5,11.4,1,17,1.4c0.5,0,0.5-0.7,0-0.8
						c-4.4-0.4-8.8-0.7-13.2-1.1c-5-0.4-11.2,0-15.8-2.1C500.5,656.6,500.1,657.3,500.5,657.5L500.5,657.5z"/>
				</g>
			</g>
			<g>
				<g>
					<path class="st0" d="M504.6,650.6c3.3,11.4,8.5,20.7,19.4,26.3c0.4,0.2,0.8-0.4,0.4-0.6c-10.7-5.5-15.8-14.6-19.1-25.8
						C505.2,649.9,504.5,650.1,504.6,650.6L504.6,650.6z"/>
				</g>
			</g>
			<g>
				<g>
					<path class="st0" d="M493.2,674.5c9.6,1.5,19.3,2.9,28.9,4.2c0.5,0.1,0.7-0.7,0.2-0.7c-9.7-1.3-19.3-2.7-28.9-4.2
						C492.9,673.7,492.7,674.4,493.2,674.5L493.2,674.5z"/>
				</g>
			</g>
			<g>
				<g>
					<path class="st0" d="M498.3,666.2c4.6,8.9,9.6,18,19.4,21.8c0.4,0.2,0.6-0.5,0.2-0.7c-9.6-3.8-14.5-12.8-18.9-21.5
						C498.7,665.4,498.1,665.8,498.3,666.2L498.3,666.2z"/>
				</g>
			</g>
			<g>
				<g>
					<path class="st0" d="M485.2,684.7c10.5,4.1,21.5,6.5,32.8,7.1c0.5,0,0.5-0.7,0-0.8c-11.2-0.6-22.1-3-32.6-7.1
						C484.9,683.8,484.7,684.6,485.2,684.7L485.2,684.7z"/>
				</g>
			</g>
			<g>
				<g>
					<path class="st0" d="M490.7,678.6c2.6,5.7,5.8,12.5,10.8,16.6c2.2,1.8,4.8,3.1,7.4,4.2c1.1,0.5,2.1,1.3,3.3,0.8
						c0.4-0.2,0.1-0.9-0.4-0.6c-1.2,0.6-5.1-2-6.3-2.6c-2.6-1.5-4.8-3.3-6.6-5.7c-3-4-5.4-8.5-7.5-13
						C491.2,677.7,490.5,678.1,490.7,678.6L490.7,678.6z"/>
				</g>
			</g>
			<g>
				<g>
					<path class="st0" d="M481.9,690.8c2.3,1.1,4,3.2,6.1,4.7c2.4,1.7,5,3.2,7.7,4.4c4.8,2.2,9.8,3.7,14.8,5.2
						c0.5,0.1,0.7-0.6,0.2-0.7c-5.5-1.7-11-3.3-16.1-5.8c-4.6-2.2-8-6.2-12.4-8.4C481.9,689.9,481.5,690.6,481.9,690.8L481.9,690.8z
						"/>
				</g>
			</g>
			<g>
				<g>
					<path class="st0" d="M504.9,714.8c-7.4-8.7-12.2-19.7-17.7-29.7c-0.2-0.4-0.9,0-0.6,0.4c5.5,10,10.4,21,17.8,29.8
						C504.7,715.7,505.2,715.2,504.9,714.8L504.9,714.8z"/>
				</g>
			</g>
			<g>
				<g>
					<path class="st0" d="M538.5,654.8c2.4,2.7,6.3,3.2,9.8,3.8c4.6,0.8,9.3,1.1,14,1c0.5,0,0.5-0.8,0-0.8c-4,0.1-8-0.1-12-0.7
						c-3.6-0.5-8.6-1-11.2-3.9C538.7,653.9,538.2,654.4,538.5,654.8L538.5,654.8z"/>
				</g>
			</g>
			<g>
				<g>
					<path class="st0" d="M546.2,643.5c-1.8,4.1,0.6,10.6,2,14.6c1.7,5,4.3,9.4,8.3,12.8c0.4,0.3,0.9-0.2,0.5-0.5
						c-3.7-3.2-6.2-7.1-7.8-11.7c-1.3-3.6-4-11.1-2.4-14.8C547.1,643.4,546.4,643,546.2,643.5L546.2,643.5z"/>
				</g>
			</g>
			<g>
				<g>
					<path class="st0" d="M533.8,662.7c1.4,4.2,3.6,7.9,6.6,11.3c3.7,4.2,8.6,6.8,12.3,10.9c0.3,0.4,0.9-0.2,0.5-0.5
						c-3.1-3.4-7.1-5.6-10.4-8.9c-3.7-3.7-6.6-8-8.3-12.9C534.4,662,533.7,662.2,533.8,662.7L533.8,662.7z"/>
				</g>
			</g>
			<g>
				<g>
					<path class="st0" d="M528.1,674.8c9.4,1.6,18.9,2.1,28.5,1.4c0.5,0,0.5-0.8,0-0.8c-9.5,0.7-18.9,0.3-28.3-1.3
						C527.8,674,527.6,674.7,528.1,674.8L528.1,674.8z"/>
				</g>
			</g>
			<g>
				<g>
					<path class="st0" d="M527.4,680.8c4.6,8.6,8.3,17.8,18.8,20c0.5,0.1,0.7-0.6,0.2-0.7c-10.3-2.1-13.9-11.3-18.4-19.6
						C527.8,680,527.1,680.3,527.4,680.8L527.4,680.8z"/>
				</g>
			</g>
			<g>
				<g>
					<path class="st0" d="M518,696.5c1.8,2.7,10.5,1.3,13.1,1.1c3.1-0.2,6.2-0.7,9.2-1.2c2.6-0.4,6.5-0.5,8.8-1.9
						c0.1-0.1,0.2-0.3,0.2-0.4c0-0.1-0.1-0.2-0.1-0.3c-0.1-0.1-0.2-0.3-0.4-0.3c-0.1,0-0.2,0-0.3,0c-0.5,0.1-0.5,0.8,0,0.8
						c-5.2,0.7-10.4,1.9-15.6,2.4c-2.4,0.2-12.7,1.8-14.3-0.6C518.4,695.7,517.8,696.1,518,696.5L518,696.5z"/>
				</g>
			</g>
			<g>
				<g>
					<path class="st0" d="M518,701.3c0.5,2.1,2,3.6,3.3,5.2c1.7,2.1,3.4,4.3,5.3,6.3c3.1,3.4,6.7,6.2,11.2,7.5
						c0.5,0.1,0.7-0.6,0.2-0.7c-4.4-1.2-7.8-4-10.9-7.3c-2.7-2.9-7.5-7.4-8.4-11.2C518.6,700.6,517.9,700.8,518,701.3L518,701.3z"/>
				</g>
			</g>
			<g>
				<g>
					<path class="st0" d="M508.5,714.6c10,1.2,20,0.9,29.9-1.1c0.5-0.1,0.3-0.8-0.2-0.7c-9.9,1.9-19.7,2.3-29.7,1.1
						C508,713.8,508,714.5,508.5,714.6L508.5,714.6z"/>
				</g>
			</g>
			<g>
				<g>
					<path class="st0" d="M508.9,715.3c5.5,9.4,14.5,15.8,25.2,17.9c0.5,0.1,0.6-0.5,0.2-0.7c-0.4-0.1-0.7-0.3-1.1-0.4
						c-0.5-0.2-0.6,0.5-0.2,0.7c-0.2-0.1-1.1-0.7-1.6-0.9c-1.3-0.6-2.9-0.9-4.2-1.5c-2.3-0.9-4.5-2.1-6.6-3.5
						c-4.6-3.1-8.2-7.2-11-11.9C509.3,714.5,508.6,714.9,508.9,715.3L508.9,715.3z"/>
				</g>
			</g>
			<g>
				<g>
					<path class="st0" d="M536.3,728.2c-10.3-0.9-19.9-4.6-29.5-8.4c-0.4-0.2-0.6,0.5-0.2,0.7c9.6,3.8,19.3,7.5,29.7,8.4
						C536.7,729,536.7,728.3,536.3,728.2L536.3,728.2z"/>
				</g>
			</g>
			<g>
				<g>
					<path class="st0" d="M569.2,663.5c-2.6,8.4-1.8,17.4,2.1,25.4c4.6,9.4,12.7,14.3,22,18.4c0.4,0.2,0.8-0.5,0.4-0.6
						c-8.7-3.8-16.4-8.3-21.1-16.9c-4.3-8-5.3-17.3-2.6-26C570.1,663.3,569.4,663.1,569.2,663.5L569.2,663.5z"/>
				</g>
			</g>
			<g>
				<g>
					<path class="st0" d="M550.2,698.1c12.2,9.1,28.6,8.5,43,8.2c0.5,0,0.5-0.8,0-0.8c-14.3,0.3-30.6,0.9-42.6-8.1
						C550.2,697.2,549.8,697.9,550.2,698.1L550.2,698.1z"/>
				</g>
			</g>
			<g>
				<g>
					<path class="st0" d="M560,680c1.3,9.9,0,20.7,6.1,29.3c4.6,6.5,11.9,10.3,19.7,10.8c0.5,0,0.5-0.7,0-0.8
						c-8.5-0.6-16.5-5.3-20.6-12.9c-4.4-8-3.3-17.7-4.5-26.5C560.6,679.5,559.9,679.5,560,680L560,680z"/>
				</g>
			</g>
			<g>
				<g>
					<path class="st0" d="M586.8,715.3c-13.3,5-27.5,6-41.4,3c-0.5-0.1-0.7,0.6-0.2,0.7c14,3,28.3,2,41.8-3
						C587.4,715.9,587.2,715.2,586.8,715.3L586.8,715.3z"/>
				</g>
			</g>
			<g>
				<g>
					<path class="st0" d="M548.7,708.4c3.7,13.2,11.7,26.5,26.7,27.7c0.2,0,0.4-0.3,0.4-0.5c-0.1-0.3-0.2-0.6-0.3-0.8
						c-0.1-0.5-0.9-0.3-0.7,0.2c0.3,0.9-9.6-2.8-9.5-2.8c-2.7-1.6-5.1-3.7-7.1-6c-4.4-5.2-6.9-11.6-8.7-18
						C549.3,707.8,548.6,708,548.7,708.4L548.7,708.4z"/>
				</g>
			</g>
			<g>
				<g>
					<path class="st0" d="M577.2,730.2c-6.3-0.6-12.9,1.6-19.2,2.2c-7.1,0.6-14.1,0.6-21.2,0.2c-0.5,0-0.5,0.7,0,0.8
						c7.1,0.4,14.1,0.4,21.2-0.2c6.2-0.5,13.1-2.8,19.2-2.2C577.7,731,577.7,730.2,577.2,730.2L577.2,730.2z"/>
				</g>
			</g>
			<g>
				<g>
					<path class="st0" d="M540.4,726.4c4.6,10.4,5.9,28.6,20.7,29.1c0.5,0,0.5-0.7,0-0.8c-14.5-0.5-15.6-18.6-20.1-28.7
						C540.9,725.6,540.2,725.9,540.4,726.4L540.4,726.4z"/>
				</g>
			</g>
			<g>
				<g>
					<path class="st0" d="M525.2,746.7c7.6,2.4,15.4,1.9,23.2,1.3c4.3-0.4,8.6-0.8,12.9-1.4c1.7-0.2,4.8,0,6-1
						c0.4-0.3-0.2-0.9-0.5-0.5c-1.1,1-5.8,0.9-7.3,1.1c-1.2,0.1-2.5,0.3-3.7,0.4c-3.4,0.4-6.8,0.7-10.2,0.9
						c-6.8,0.5-13.6,0.7-20.2-1.4C524.9,745.8,524.7,746.5,525.2,746.7L525.2,746.7z"/>
				</g>
			</g>
			<g>
				<g>
					<path class="st0" d="M536.1,741.5c0.3-3,0.5,0.5,0.8,1.7c0.5,1.8,1,3.6,1.5,5.4c1,3.9,1.9,7.8,2.7,11.7
						c1.7,8.4,2.9,17,3.6,25.6c0,0.5,0.8,0.5,0.8,0c-1.4-16.1-4.4-31.9-9.1-47.3c-0.1-0.4-0.7-0.3-0.7,0.1c-0.1,0.9-0.2,1.9-0.2,2.8
						C535.3,742,536.1,742,536.1,741.5L536.1,741.5z"/>
				</g>
			</g>
		</g>
	</g>
	<g>
		<g>
			<g>
				<path class="st2" d="M264.1,661.4c-25.7-23.2-57.2-32.6-84.2-32.9c-17.6-0.2-39,30.5-51,46.5c-21.3,28.5-19.5,152.5-10.7,178.9
					c1.9,5.6,3,11.6,6.7,16.2c3.1,4,66.1,7.5,94.4,5.2c16.7-1.3,48.1,0.7,54.7-0.6l5.3-5.4c4-12.1,10.3-44.5,10.7-45.8
					c0,0,2.2-8.5,3.4-12.7c8.3-28.2-18.7-63.9-19.8-65.9c0,0-17.6-24.9-22.3-31.5c-2.1-2.9-8.3-10.4-7.3-18.4
					C245.3,683.5,269.3,666.1,264.1,661.4z"/>
			</g>
		</g>
		<g>
			<g>
				<g>
					<path class="st0" d="M219.2,677.2c0.9,3.8,3.1,7.8,5.3,11.1c4.1,6.1,5,8.8,9.9,15c0.8-0.2,1.5-0.8,1.8-1.6
						c-3-2.5-2.3-2.1-4.4-5.5c-0.9-1.5-5.2-7.8-6.1-10c-1.1-2.7-3.2-7.6-5.2-9.7c-1-0.1-0.4-0.1-1.2,0.6L219.2,677.2z"/>
				</g>
				<g>
					<path class="st0" d="M230.2,673.4c0.8,3.2,2.7,6.8,4.5,9.5c3.5,5.2,4.3,7.5,8.5,12.9c0.7-0.2,1.3-0.7,1.6-1.4
						c-2.6-2.2-2-1.8-3.8-4.7c-0.8-1.3-4.5-6.7-5.3-8.6c-0.9-2.3-2.7-6.5-4.4-8.3C230.4,672.7,230.9,672.7,230.2,673.4L230.2,673.4z
						"/>
				</g>
				<g>
					<path class="st0" d="M238.8,669.7c0.8,3,2.5,6.3,4.2,8.8c3.2,4.8,4,7,7.9,12c0.7-0.2,1.2-0.7,1.5-1.3c-2.4-2-1.8-1.7-3.5-4.4
						c-0.8-1.2-4.2-6.2-4.9-8c-0.9-2.1-2.5-6-4.1-7.7C239,669.1,239.6,669.1,238.8,669.7L238.8,669.7z"/>
				</g>
				<g>
					<path class="st0" d="M248.8,668c0.6,2.5,2.1,5.2,3.5,7.3c2.7,4,3.3,5.8,6.5,9.9c0.5-0.1,1-0.6,1.2-1.1c-2-1.7-1.5-1.4-2.9-3.6
						c-0.6-1-3.5-5.2-4.1-6.6c-0.7-1.8-2.1-5-3.4-6.4C248.9,667.5,249.4,667.5,248.8,668L248.8,668z"/>
				</g>
			</g>
			<g>
				<g>
					<path class="st0" d="M217.8,678.9c5.2,2.5,10.8,2.9,16.2,0.9c0.3-0.1,0.2-0.5-0.1-0.4c-5.3,1.9-10.8,1.7-15.9-0.8
						C217.7,678.4,217.5,678.8,217.8,678.9L217.8,678.9z"/>
				</g>
			</g>
			<g>
				<g>
					<path class="st0" d="M231.3,673c-2.2,5.5-5.4,10.4-9.5,14.6c-0.2,0.2,0.1,0.5,0.3,0.3c4.2-4.3,7.4-9.2,9.6-14.8
						C231.9,672.9,231.4,672.7,231.3,673L231.3,673z"/>
				</g>
			</g>
			<g>
				<g>
					<path class="st0" d="M223.8,688.8c5.2,1.6,10.9-0.9,13.3-5.9c0.1-0.3-0.3-0.5-0.4-0.2c-2.3,4.8-7.7,7.2-12.8,5.7
						C223.7,688.3,223.6,688.7,223.8,688.8L223.8,688.8z"/>
				</g>
			</g>
			<g>
				<g>
					<path class="st0" d="M235.1,679.6c-1.5,2.8-1.7,6.1-3.1,9c-1.5,3.2-3.8,5.9-6.5,8.1c-0.2,0.2,0.1,0.5,0.3,0.3
						c2.5-2,4.6-4.4,6.1-7.2c1.7-3.2,1.9-6.8,3.5-9.9C235.6,679.6,235.3,679.4,235.1,679.6L235.1,679.6z"/>
				</g>
			</g>
			<g>
				<g>
					<path class="st0" d="M226.3,693.6c5.3,0.7,10.5,0.3,15.7-1.1c0.3-0.1,0.2-0.5-0.1-0.4c-5.1,1.4-10.3,1.7-15.6,1.1
						C226,693.2,226,693.6,226.3,693.6L226.3,693.6z"/>
				</g>
			</g>
			<g>
				<g>
					<path class="st0" d="M236.2,686.3c0.4,5.6-1,10.9-4.2,15.5c-0.2,0.2,0.2,0.5,0.4,0.2c3.2-4.7,4.7-10.1,4.3-15.8
						C236.7,686,236.2,686,236.2,686.3L236.2,686.3z"/>
				</g>
			</g>
			<g>
				<g>
					<path class="st0" d="M233.7,703c5.7-1.2,9.8-6.1,10.1-11.9c0-0.3-0.4-0.3-0.4,0c-0.2,5.6-4.3,10.3-9.8,11.4
						C233.3,702.6,233.5,703,233.7,703L233.7,703z"/>
				</g>
			</g>
			<g>
				<g>
					<path class="st0" d="M231.1,676.4c4.1,1.2,8.6-0.7,10.5-4.6c0.1-0.3-0.3-0.5-0.4-0.2c-1.8,3.7-6,5.6-10,4.4
						C230.9,675.8,230.8,676.3,231.1,676.4L231.1,676.4z"/>
				</g>
			</g>
			<g>
				<g>
					<path class="st0" d="M238.8,670.6c-0.2,2.2-0.8,4.2-1.8,6.2c-0.8,1.4-2.1,2.5-2.8,3.9c0,0.1,0,0.2,0,0.2c0,0,0,0.1,0.1,0.1
						c0.1,0.1,0.1,0.1,0.3,0.1c0,0,0.1,0,0.1,0c0.3-0.1,0.2-0.5-0.1-0.4c1.5-0.3,3-3.6,3.5-4.8c0.7-1.7,1.1-3.4,1.3-5.2
						C239.3,670.3,238.8,670.3,238.8,670.6L238.8,670.6z"/>
				</g>
			</g>
			<g>
				<g>
					<path class="st0" d="M234.5,681.9c4.2,0.2,8.1-1.5,10.7-4.8c0.2-0.2-0.1-0.5-0.3-0.3c-2.6,3.2-6.3,4.9-10.4,4.6
						C234.2,681.4,234.2,681.8,234.5,681.9L234.5,681.9z"/>
				</g>
			</g>
			<g>
				<g>
					<path class="st0" d="M242,675.4c-0.3,1.9-0.6,4-1.3,5.8c-0.7,1.8-2,3.1-3.4,4.5c-0.2,0.2,0.1,0.5,0.3,0.3
						c1.3-1.3,2.6-2.6,3.4-4.3c0.9-1.9,1.1-4.2,1.5-6.2C242.4,675.2,242,675.1,242,675.4L242,675.4z"/>
				</g>
			</g>
			<g>
				<g>
					<path class="st0" d="M237.8,687.5c3.8-0.2,7.1-2.7,8.3-6.4c0.1-0.3-0.3-0.4-0.4-0.1c-1.2,3.4-4.3,5.8-7.9,6.1
						C237.5,687,237.5,687.5,237.8,687.5L237.8,687.5z"/>
				</g>
			</g>
			<g>
				<g>
					<path class="st0" d="M243,680.3c-0.6,3.7-1.4,7.5-4.3,10.1c-0.2,0.2,0.1,0.5,0.3,0.3c3-2.7,3.9-6.5,4.5-10.3
						C243.5,680.1,243.1,680,243,680.3L243,680.3z"/>
				</g>
			</g>
			<g>
				<g>
					<path class="st0" d="M240.3,691.6c4.2-1.1,7.6-4.1,9.3-8.2c0.1-0.3-0.3-0.4-0.4-0.1c-1.6,3.9-4.9,6.7-9,7.8
						C239.9,691.2,240,691.6,240.3,691.6L240.3,691.6z"/>
				</g>
			</g>
			<g>
				<g>
					<path class="st0" d="M240.2,670.9c3.4,1.2,7,0.6,9.9-1.5c0.2-0.2,0-0.6-0.2-0.4c-2.8,2.1-6.3,2.6-9.6,1.5
						C240.1,670.4,240,670.9,240.2,670.9L240.2,670.9z"/>
				</g>
			</g>
			<g>
				<g>
					<path class="st0" d="M249.1,665.9c-2,3.7-5.3,6.4-9.3,7.6c-0.3,0.1-0.2,0.5,0.1,0.4c4.2-1.2,7.5-4,9.6-7.8
						C249.6,665.8,249.2,665.6,249.1,665.9L249.1,665.9z"/>
				</g>
			</g>
			<g>
				<g>
					<path class="st0" d="M242.2,674.8c3.5,0.4,6.8-1.1,8.9-3.9c0.2-0.2-0.2-0.5-0.4-0.2c-2,2.7-5.1,4.1-8.5,3.7
						C241.9,674.3,241.9,674.7,242.2,674.8L242.2,674.8z"/>
				</g>
			</g>
			<g>
				<g>
					<path class="st0" d="M251.7,671.7c-2.1,3.8-5.3,6.7-9.1,8.7c-0.3,0.1,0,0.5,0.2,0.4c4-1.9,7.2-5,9.3-8.8
						C252.3,671.6,251.9,671.4,251.7,671.7L251.7,671.7z"/>
				</g>
			</g>
			<g>
				<g>
					<path class="st0" d="M254.3,676.8c-1.7,2.7-4.3,4.6-7.4,5.4c-0.3,0.1-0.2,0.5,0.1,0.4c3.2-0.9,5.8-2.9,7.6-5.6
						C254.8,676.8,254.4,676.5,254.3,676.8L254.3,676.8z"/>
				</g>
			</g>
			<g>
				<g>
					<path class="st0" d="M251.8,673.8c-1.6,3.5-2.9,7.4-5.2,10.4c-0.2,0.2,0.1,0.5,0.3,0.3c2.4-3.1,3.7-7,5.3-10.5
						C252.3,673.8,251.9,673.6,251.8,673.8L251.8,673.8z"/>
				</g>
			</g>
		</g>
		<g>
			<g>
				<g>
					<path class="st0" d="M227.7,737.8c2.9-2.1,6.1-3.9,9.4-5.4c0.9,3.8,1.8,7.6,2.6,11.5c0.6,2.6,8.1,16.1,10.7,20.5
						c2.9,4.9,11.2,23.2,13.6,26.9c2.8,4.4,5.6,8.8,8.3,13.1c2.3,3.6,4.6,7.2,6.3,11c2.2,4.7,3.5,9.7,4.9,14.7
						c1.4,5.2,2.8,10.3,4.2,15.5c-3-0.3-5.6-2-7.5-4.1s-3.1-4.7-4.3-7.3c-6.7-14.6-25.5-58.9-27.4-61.6c-8.4-11.5-15.5-22-21.1-35
						L227.7,737.8z"/>
				</g>
				<g>
					<g>
						<path class="st0" d="M194.4,790.2c-8.4,2.8-15,10.3-16.8,18.9c22.3-0.8,43.7,7.9,64.2,16.5c2.1-5.2,9.4-5.4,14-8.6
							c0.6-0.4,1.2-1,1.4-1.8c0.1-0.6-0.2-1.3-0.5-1.8c-6.5-11.7-17.6-20.7-30.4-24.5c-12.8-3.8-27-2.5-38.9,3.7"/>
					</g>
					<g>
						<path class="st0" d="M190.8,875.1c-3.3,1.1-7.2,7.1-8,10.5c-0.5,2.5,4.2,5.7,6.6,6.5c1.1,0.4,2.3,0.2,3.5,0
							c19.5-3.6,40.3-0.1,57.5,9.7c1,0.6,2.2,1.2,3.3,0.8c0.7-0.3,1.2-0.9,1.6-1.5c4.5-6.4,9-12.7,13.5-19.1c0.3-0.5,0.7-1,0.5-1.6
							c-0.1-0.5-0.6-0.8-1.1-1c-9.3-4.9-19-4.4-29.5-3.5C223.9,877.1,202.3,871.4,190.8,875.1z"/>
					</g>
					<g>
						<path class="st0" d="M253.5,823.4c3.4,3,7.3,6,10.5,6.8c-4.1,2.5-7.3,6.6-8.7,11.3c-18.3-5.9-37.8-8.1-57-6.7
							c-6.8,0.5-14.6,2.3-17.4,8.4c0.1-8.5,4.1-22.5,8.6-29.8c0,0,20.5,3.2,27.1,5.1c7.5,2.2,29.3,10.8,29.3,10.8L253.5,823.4z"/>
					</g>
					<g>
						<path class="st0" d="M182.2,851.5c-2.6,5.3-3.5,18-2.2,23.8c2.7-1.5,9.9,3.1,10.8,0.1c1.2-3.8,9.8-6.8,14.6-3.9
							c13.7,8.2,30.3,0.2,46.2,0.3c5,0,11.1-1,12.9-5.7c1-2.7,1.1-5.7,0.5-8.6c-0.9-3.9-5.4-6.4-8.3-7.1c-1.9-0.4-14.5,0-17.9,0.3
							C218.7,852.9,182.2,851.5,182.2,851.5z"/>
					</g>
					<g>
						<path class="st0" d="M247,841.8c0.5,0.2,2.1,0.2,2.1,1.9c0,1.3-0.6,2.4-1.5,3.2c-1,0.8-2.3,0.9-3.6,1
							c-13.5,1.1-27.1,1.9-40.7,2.2c-4.3,0.1-8.6,0.2-12.9-0.2c-7.8-0.6-16.5-2.4-22.9,2.2c2.1-7.7,7.5-16.1,15.4-16.7
							C198.9,834.4,215,831.9,247,841.8z"/>
					</g>
				</g>
				<g>
					<path class="st0" d="M231.4,713.2c-0.2,0.9,0.4,1.8,0.9,2.5c11.7,15.8,23.5,31.5,36.9,46.1c7.3,7.9,15.2,15.6,19.7,25.3
						c1.3,2.7,2.3,5.6,4.1,8c0.2,0.2,0.4,0.4,0.6,0.5c1.1,0.3,1.2-1.8,2.3-2.3c-1.9-4.5-2.8-7.9-5.5-12c-3.1-4.5-7.3-9.7-10.2-14.3
						c-2.6-4.1-16-18.1-18.6-22.1c-6.8-10.5-17.4-18.3-23.6-29.1c-0.6-1.1-1.3-2.4-2.5-3C234.3,712,231.7,712,231.4,713.2"/>
				</g>
				<g>
					<path class="st0" d="M231.5,691.9c-0.1,0.6,0.3,1.2,0.6,1.8c7.9,11,15.9,22,24.9,32.1c4.9,5.5,10.2,10.9,13.3,17.6
						c0.9,1.9,1.6,3.9,2.8,5.6c0.1,0.2,0.2,0.3,0.4,0.4c0.8,0.2,0.8-1.3,1.5-1.6c-1.3-3.2-1.9-5.5-3.7-8.4c-2.1-3.2-4.9-6.7-6.9-10
						c-1.8-2.8-10.8-12.6-12.6-15.4c-4.6-7.3-11.8-12.7-15.9-20.3c-0.4-0.8-0.9-1.7-1.7-2.1C233.5,691.1,231.7,691,231.5,691.9"/>
				</g>
			</g>
			<g>
				<g>
					<path class="st0" d="M237.4,700.2c2.7,2.8,2.6,8,3.2,11.5c0.6,4,1.2,7.9,1.8,11.9c0.1,0.5,0.8,0.3,0.7-0.2
						c-0.8-5.2-1.6-10.4-2.4-15.6c-0.5-3-0.6-6-2.8-8.2C237.6,699.4,237.1,699.9,237.4,700.2L237.4,700.2z"/>
				</g>
			</g>
			<g>
				<g>
					<path class="st0" d="M235.9,717.7c4.1-1.6,7.9-3.7,11.5-6.2c0.4-0.3,0-0.9-0.4-0.6c-3.5,2.5-7.3,4.5-11.3,6.1
						C235.3,717.1,235.4,717.9,235.9,717.7L235.9,717.7z"/>
				</g>
			</g>
			<g>
				<g>
					<path class="st0" d="M247.7,713.3c2.1,6,0.6,12.1-1,18c-0.1,0.5,0.6,0.7,0.7,0.2c1.7-6.1,3.1-12.3,1-18.4
						C248.3,712.7,247.5,712.9,247.7,713.3L247.7,713.3z"/>
				</g>
			</g>
			<g>
				<g>
					<path class="st0" d="M242.2,727.6c6.3,0,11.9-3.4,14.9-8.9c0.2-0.4-0.4-0.8-0.6-0.4c-2.9,5.3-8.3,8.5-14.3,8.5
						C241.7,726.8,241.7,727.6,242.2,727.6L242.2,727.6z"/>
				</g>
			</g>
			<g>
				<g>
					<path class="st0" d="M251.8,715.5c4.9,8.1,7.7,17.8,1.7,26.2c-0.3,0.4,0.4,0.8,0.6,0.4c6.1-8.5,3.3-18.6-1.7-27
						C252.2,714.7,251.6,715.1,251.8,715.5L251.8,715.5z"/>
				</g>
			</g>
			<g>
				<g>
					<path class="st0" d="M249,734.8c5.6,1.3,11.3-0.5,15.1-4.8c0.3-0.4-0.2-0.9-0.5-0.5c-3.6,4.2-9,5.9-14.4,4.7
						C248.8,734,248.6,734.7,249,734.8L249,734.8z"/>
				</g>
			</g>
			<g>
				<g>
					<path class="st0" d="M258.1,727.9c3.2,7.3,4.9,14.9,5.2,22.9c0,0.5,0.8,0.5,0.8,0c-0.3-8.1-2.1-15.8-5.3-23.2
						C258.5,727.1,257.9,727.5,258.1,727.9L258.1,727.9z"/>
				</g>
			</g>
			<g>
				<g>
					<path class="st0" d="M258.8,743.6c3.8-2.1,10.6-4.5,10.8-9.8c0-0.5-0.7-0.5-0.8,0c-0.2,4.8-6.9,7.2-10.4,9.1
						C258,743.1,258.3,743.8,258.8,743.6L258.8,743.6z"/>
				</g>
			</g>
			<g>
				<g>
					<path class="st0" d="M270.6,739.4c0.8,5.4,0.2,10.7-1.6,15.9c-0.2,0.5,0.6,0.7,0.7,0.2c1.9-5.3,2.4-10.7,1.6-16.3
						C271.2,738.7,270.5,738.9,270.6,739.4L270.6,739.4z"/>
				</g>
			</g>
			<g>
				<g>
					<path class="st0" d="M264.3,752.4c5.1-1.3,9.5-4,12.9-8c0.3-0.4-0.2-0.9-0.5-0.5c-3.3,3.9-7.6,6.6-12.5,7.8
						C263.7,751.8,263.9,752.5,264.3,752.4L264.3,752.4z"/>
				</g>
			</g>
			<g>
				<g>
					<path class="st0" d="M276.1,746.7c2.8,7.1,4.4,14.4,4.6,22.1c0,0.5,0.8,0.5,0.8,0c-0.3-7.7-1.8-15.1-4.7-22.3
						C276.6,746,275.9,746.2,276.1,746.7L276.1,746.7z"/>
				</g>
			</g>
			<g>
				<g>
					<path class="st0" d="M273.6,763c4.5-2.4,8.5-5.6,11.7-9.6c0.3-0.4-0.2-0.9-0.5-0.5c-3.2,3.9-7.1,7.1-11.6,9.5
						C272.8,762.6,273.2,763.2,273.6,763L273.6,763z"/>
				</g>
			</g>
			<g>
				<g>
					<path class="st0" d="M235.8,740.5c4.3,0.4,7.9-1.6,10.9-4.6c0.8-0.8,5.3-4.7,3.9-6.1c-0.1-0.1-0.2-0.1-0.4-0.1
						c-0.1,0-0.2,0.1-0.3,0.1c-0.5,0.2-0.3,0.9,0.2,0.7c-0.6,0.2-2.1,2.8-2.6,3.4c-0.8,0.9-1.6,1.7-2.4,2.5
						c-2.6,2.3-5.7,3.7-9.3,3.4C235.3,739.7,235.3,740.5,235.8,740.5L235.8,740.5z"/>
				</g>
			</g>
			<g>
				<g>
					<path class="st0" d="M241.5,723.2c1.9,9.4,3.7,19.7-3,27.7c-0.3,0.4,0.2,0.9,0.5,0.5c6.8-8.2,5.1-18.8,3.2-28.4
						C242.1,722.5,241.4,722.7,241.5,723.2L241.5,723.2z"/>
				</g>
			</g>
			<g>
				<g>
					<path class="st0" d="M245.9,766.6c10.3-0.8,18.9-8.6,20.6-18.9c0.1-0.5-0.6-0.7-0.7-0.2c-1.6,9.9-9.8,17.5-19.9,18.3
						C245.4,765.9,245.4,766.6,245.9,766.6L245.9,766.6z"/>
				</g>
			</g>
			<g>
				<g>
					<path class="st0" d="M257.8,745.2c0.2,5.4,0.4,10.8,0.6,16.2c0.2,5.8,0.2,11.8-3.8,16.5c-0.3,0.4,0.2,0.9,0.5,0.5
						c3-3.6,3.9-7.9,4-12.5c0.2-6.9-0.4-13.8-0.6-20.7C258.5,744.8,257.8,744.8,257.8,745.2L257.8,745.2z"/>
				</g>
			</g>
			<g>
				<g>
					<path class="st0" d="M252.3,780.7c9.7-0.9,24-10.5,24.1-21.2c0-0.5-0.7-0.5-0.8,0c-0.1,10.2-14.1,19.6-23.4,20.5
						C251.8,780,251.8,780.8,252.3,780.7L252.3,780.7z"/>
				</g>
			</g>
			<g>
				<g>
					<path class="st0" d="M267.7,758.6c-0.3,12.1-4.9,23.3-13.3,32c-0.3,0.3,0.2,0.9,0.5,0.5c8.5-8.8,13.3-20.2,13.6-32.5
						C268.5,758.1,267.7,758.1,267.7,758.6L267.7,758.6z"/>
				</g>
			</g>
			<g>
				<g>
					<path class="st0" d="M260.2,790.8c12-2.7,26.1-7.7,27.9-21.7c0.1-0.5-0.7-0.5-0.8,0c-1.8,13.6-15.8,18.3-27.4,20.9
						C259.5,790.2,259.7,790.9,260.2,790.8L260.2,790.8z"/>
				</g>
			</g>
			<g>
				<g>
					<path class="st0" d="M278,767.8c-1.5,12.7-6.8,24.3-15.4,33.8c-0.3,0.4,0.2,0.9,0.5,0.5c8.7-9.6,14.1-21.4,15.6-34.3
						C278.8,767.3,278.1,767.3,278,767.8L278,767.8z"/>
				</g>
			</g>
			<g>
				<g>
					<path class="st0" d="M269.5,804.5c10.2-6.4,17.9-15.7,22.3-26.9c0.2-0.5-0.6-0.6-0.7-0.2c-4.3,11.1-11.9,20.2-21.9,26.5
						C268.7,804.1,269.1,804.7,269.5,804.5L269.5,804.5z"/>
				</g>
			</g>
			<g>
				<g>
					<path class="st0" d="M287.1,775.4c-4.5,14-8.4,28.2-12,42.5c-0.1,0.5,0.6,0.7,0.7,0.2c3.5-14.3,7.5-28.4,12-42.5
						C287.9,775.2,287.2,775,287.1,775.4L287.1,775.4z"/>
				</g>
			</g>
			<g>
				<g>
					<path class="st0" d="M274.4,822.6c11.4-9.6,19.9-21.7,25.2-35.7c0.2-0.5-0.6-0.6-0.7-0.2c-5.2,13.8-13.7,25.8-25,35.3
						C273.5,822.3,274,822.9,274.4,822.6L274.4,822.6z"/>
				</g>
			</g>
			<g>
				<g>
					<path class="st0" d="M290.4,785.7c-1.4,7.4-2.9,14.8-4.3,22.3c-1.4,7.1-1.7,16.3-6.6,22c-0.3,0.4,0.2,0.9,0.5,0.5
						c4.4-5.1,4.9-12.1,6.1-18.5c1.7-8.7,3.4-17.4,5-26.1C291.2,785.4,290.5,785.2,290.4,785.7L290.4,785.7z"/>
				</g>
			</g>
		</g>
		<g>
			<path class="st0" d="M198.4,728.4l-44.8,46.2l1,1.7c0.7,1.2,2,2.2,3.8,2.6l36.8,9.5l6.2,1.6c1.9,0.5,3.7,0.3,4.9-0.6l0,0
				c1-0.7,1.5-1.7,1.7-3l0-0.2l2.7-48.7l0.2-4.1l0-0.9c0.2-3.3-2.8-7.1-6.5-8.2l-3.1-1l-1,2C199.8,726.6,199.2,727.6,198.4,728.4z"
				/>
			<path class="st0" d="M213.5,738.6l-2.6,46.1l3.7-1.2c12.6-4.2,42.1-15.7,43.4-30.5c0.2-1.9-0.1-3.8-0.9-5.8
				c-3.4-8.8-32.4-8.8-41.2-8.6L213.5,738.6z"/>
			<path class="st0" d="M178.7,699.1l-55,25.3l-4.3,2l-0.8,0.4c-1.9,0.9-3.1,2.5-3.3,4.3c-0.1,0.6,0.1,1.2,0.1,1.6l0,0.1
				c0.2,0.9,0.6,1.6,1.1,2.3l27.1,36.4c1.1,1.5,2.6,2.3,4.2,2.4c1,0.1,2-0.1,3-0.7c0.6-0.3,1.1-0.7,1.6-1.2l8.6-8.8l35.6-36.7
				c0.2-0.2,0.4-0.5,0.5-0.6l0.1-0.1c1-1.3,1.6-3,1.7-4.8c0-0.1,0-0.3,0-0.4c0.1-2-0.3-3.9-1.3-5.4l-8.3-12.9l0,0
				c-0.5-0.8-1.3-1.6-2.1-2.2c-1.7-1.1-3.8-1.7-5.8-1.5C180.2,698.6,179.4,698.8,178.7,699.1z"/>
			<path class="st0" d="M171.2,632.9c-14.5,2.4-32.5,23.6-41.9,36l-2.7,3.6l48,6.7l0.8-2c3.4-8.8,7.7-21.3,8.6-30.8
				c0.5-5.8-0.3-9.5-2.4-11.2C178.6,633.1,175.1,632.2,171.2,632.9z"/>
			<path class="st0" d="M116.2,678.9c0,0.4,0,0.9,0,1.4L120,723l57.5-26.4c1.2-0.5,2.5-0.9,3.8-0.9l2.6-0.1l-0.2-5.1
				c-0.1-3.1-2-6.2-4.7-7.4c-0.4-0.2-0.9-0.4-1.6-0.5l-3.3-0.5l-52.3-7.3l-0.8-0.1c-1.2-0.2-2.3,0.1-3.2,0.8
				C116.9,676.1,116.3,677.4,116.2,678.9z"/>
		</g>
	</g>
	<g>
		<path class="st5" d="M325.6,850.3c8-2.6,56.3-19.4,72-26c3.1-1.3,87.9-38.5,94.5-42c73.3-35,150.8-147.3,150.8-147.3
			c0.7,1.7,0.1,74.9,2,102c1.3,19.7-16.3,60.7-52.1,91.2c-7,6-33.8,27.9-40,32.7c-6.8,5.2-44,29.9-54.6,37.3
			c-10.3,7.2-62,40.2-119.8,72c-16.3,8.2-144,78.7-376.2,144.5L0.7,903.2C0.7,903.2,138.2,900.7,325.6,850.3z"/>
		<path class="st6" d="M161.5,972.2c6.4,10.3,14.5,23.7,20.4,33.9l0.4-0.1l-7.3-38.8l-14.7-81.4l39-6.5l6.5,21.5
			c-6.6,2.5-8.9,4.8-7.3,14.9l21,126.9l-43.5,16.4L97.2,940.3c-3.9-6.2-14.7-13.1-20.8-10.8l-9.3-31.3l48-5.3L161.5,972.2z"/>
		<path class="st6" d="M275.7,984.1c2.6,8.3,4.1,6.8,12.2,4.3l6.9,22.1l-40.7,17.7l-6.9-22.1c8.3-2.6,7-6.2,4.4-14.5l-26-83.8
			c-2.6-8.3-3.2-10.3-11.5-7.8l-6.7-23l41.8-8l6,21c-8.1,2.5-8.1,2.1-5.6,10.3L275.7,984.1z"/>
		<path class="st6" d="M308.4,1004.1l-8.4-20.1c7.2-3,6.5-4.9,3.3-12.4l-31.8-76.3c-3.1-7.5-3.3-9.4-10.5-6.4l-6.7-21l71.7-18
			l10.8,25.3l-14.1,5.6c-2.6-8.7-3.4-6.6-7.7-5.6l-24.2,7l11.7,28.2l28.9-9.2l9.1,22.7L313,935.3l13.2,31.8l19.9-8.3
			c5.4-2.3,7.6-3.2,4.7-13.9l11.9-4.9l13.1,31.2L308.4,1004.1z"/>
		<path class="st6" d="M429.8,829.6c-7.8,3.2-7.1,4.9-4.3,11.6l33.2,82.2l-22,13.7l-55.2-49.8l-0.7,0.3
			c7.7,14.8,12.5,26.5,16.1,34.9l14.3,29.4l-29.5,16.2l-6.9-16.7c7.8-3.2,7.1-4.9,4.3-11.6l-28.2-67.6c-2.8-6.7-3.5-8.3-11.2-5.1
			l-8.4-19.3l31.3-11.2l60.5,57.1l0.7-0.3c-7.7-14.8-12.5-26.5-16.1-34.9l-14.4-33.1l29.1-12.1L429.8,829.6z"/>
		<path class="st6" d="M509.9,788.3c-6.5,3.3-5.9,4.7-3.1,10.3l34.5,70.8l-18.5,12.4L471.4,841l-0.6,0.3
			c7.5,12.3,12.4,22.1,15.9,29.2l13.7,26.8L477,912.8l-7.7-15.9c6.5-3.3,5.8-4.7,3.1-10.3l-28-55.1c-2.8-5.6-3.5-7-10-3.7l-7.9-16.4
			l26.3-11.6l55,44.3l0.6-0.3c-7.5-12.3-12.4-22.1-15.9-29.2l-13.8-26.5l24.6-11.7L509.9,788.3z"/>
		<path class="st6" d="M588.1,806.6c3.4,4.1,5.1,0.9,8.1-1.1l7.8,10.7c0,0-6.5,7.3-8.7,9.7c-2.1,2.2-9.4,7.8-9.4,7.8l-12.4-13.3
			l-17.7,14l8,17.7l-17.6,13.4l-7-11.1c3.3-2.2,4.3-3.7,2.4-8.6l-28.4-74.5l20.5-14.6L588.1,806.6z M549.2,796.9
			c-4.4-4.4-8.9-8.8-13.1-13.1l-0.2,0.1c2.6,6.1,5.2,12.7,7.7,18.9l5.7,14l11.8-7.9L549.2,796.9z"/>
	</g>
</g>
</svg>
