<?xml version="1.0" encoding="UTF-8"?>
<svg width="124px" height="124px" viewBox="0 0 124 124" version="1.1" xmlns="http://www.w3.org/2000/svg" xmlns:xlink="http://www.w3.org/1999/xlink">
    <!-- Generator: Sketch 42 (36781) - http://www.bohemiancoding.com/sketch -->
    <title>franz</title>
    <desc>Created with Sketch.</desc>
    <defs></defs>
    <g id="Page-1" stroke="none" stroke-width="1" fill="none" fill-rule="evenodd">
        <g id="franz" transform="translate(18.000000, 2.000000)">
            <g id="Group">
                <path d="M86.8472727,47.092562 C86.8472727,67.5530579 71.193719,84.138843 51.8856198,84.138843 C32.5775207,84.138843 16.9249587,67.5530579 16.9249587,47.092562 C16.9249587,26.6330579 32.5775207,10.0472727 51.8856198,10.0472727 C71.193719,10.0472727 86.8472727,26.6330579 86.8472727,47.092562" id="Shape" fill="#E0E0E0"></path>
                <path d="M70.8852893,66.5533884 C70.8852893,87.0128926 55.2327273,103.599669 35.9236364,103.599669 C16.6155372,103.599669 0.962975207,87.0128926 0.962975207,66.5533884 C0.962975207,46.0938843 16.6155372,29.5071074 35.9236364,29.5071074 C55.2327273,29.5071074 70.8852893,46.0938843 70.8852893,66.5533884" id="Shape" fill="#F0090B"></path>
                <path d="M73.8505785,37.8228099 C77.6647934,64.5738843 62.2105785,86.7500826 47.8522314,86.7500826 C33.4938843,86.7500826 19.1613223,64.7107438 21.8538843,37.8228099 C22.5738843,30.6307438 22.9418182,25.0690909 25.0819835,21.6505785 C30.0247934,13.7583471 36.892562,11.9950413 47.6618182,11.9950413 C56.6360331,11.9950413 62.3583471,12.5831405 67.6591736,17.7838017 C70.9666116,21.0297521 72.4076033,27.6961983 73.8505785,37.8228099" id="Shape" fill="#F0F0F0"></path>
                <path d="M58.9160331,48.2499174 C59.1480992,48.1527273 59.5170248,48.1566942 59.741157,48.2628099 C61.0185124,48.8697521 62.0975207,49.7077686 62.9226446,50.8185124 C64.6938843,53.2046281 64.1652893,56.193719 61.6472727,57.9421488 C61.32,58.1702479 60.9699174,58.387438 60.5980165,58.5391736 C57.4621488,59.8145455 54.4442975,59.3494215 51.4740496,58.1236364 C51.9342149,55.8565289 51.9342149,55.8565289 50.7828099,53.8442975 C52.7157025,51.8519008 56.3890909,49.3110744 58.9160331,48.2499174 M44.0280992,58.5044628 C40.6919008,59.7153719 37.4102479,60.1190083 34.2059504,58.3755372 C32.7719008,57.5960331 32.0955372,56.3335537 32.2889256,54.7596694 C32.5110744,52.953719 33.3520661,51.4115702 34.7712397,50.1441322 C35.1024793,49.848595 35.3890909,49.8178512 35.8026446,49.9705785 L43.6879339,54.5385124 C43.818843,54.6366942 43.905124,54.9332231 43.8476033,55.0829752 C43.4112397,56.2284298 43.4598347,57.3401653 44.0280992,58.5044628 M53.3395041,46.4409917 C53.0628099,46.6353719 52.9249587,46.7246281 52.7960331,46.8228099 C51.2171901,48.0178512 49.6254545,49.1980165 48.0723967,50.4218182 C47.7143802,50.7034711 47.5190083,50.7550413 47.1044628,50.5090909 C45.513719,49.5669421 43.8852893,48.6813223 42.2687603,47.7778512 C42.0019835,47.6280992 41.7252893,47.4932231 41.2889256,47.2661157 C45.3322314,46.2803306 49.2247934,45.9957025 53.3395041,46.4409917 M30.0257851,47.7213223 C29.366281,48.8052893 28.5996694,49.8228099 28.0968595,50.9395041 C27.1041322,53.145124 26.9464463,55.4608264 27.5990083,57.7695868 C28.2902479,60.2152066 30.0218182,61.833719 32.4357025,62.8512397 C32.6280992,62.9315702 32.7847934,63.1071074 32.9831405,63.1616529 C33.7259504,63.3619835 34.4687603,63.562314 35.2105785,63.7636364 C36,63.7596694 36.7428099,63.9094215 37.5084298,63.9699174 C40.7256198,64.2238017 43.871405,63.8895868 46.6561983,62.2195041 C47.6419835,61.627438 48.3947107,61.6770248 49.2912397,62.111405 C49.3666116,62.1480992 49.44,62.1818182 49.5173554,62.2155372 C52.7752066,63.6535537 56.1828099,64.1077686 59.745124,63.4968595 C63.4720661,62.8571901 66.3847934,61.1206612 68.1580165,57.8677686 C68.2849587,57.6357025 68.448595,57.4165289 68.5259504,57.1715702 C68.7104132,56.5894215 68.894876,56.0072727 69.0793388,55.425124 C69.1438017,55.2208264 69.1368595,55.0006612 69.1656198,54.7834711 C69.614876,51.2647934 68.4773554,48.3847934 65.5110744,46.1791736 C65.347438,46.0571901 65.1857851,45.9371901 65.0231405,45.8122314 C65.1828099,45.5593388 65.347438,45.3629752 65.4555372,45.1279339 C65.8968595,44.1629752 65.4029752,43.5540496 64.6571901,42.9163636 C64.3269421,42.8271074 63.9966942,42.7378512 63.6664463,42.648595 C62.3801653,42.5186777 61.08,42.8429752 59.8532231,43.3447934 C59.6161983,43.4429752 59.2760331,43.3338843 58.9993388,43.2654545 C51.7140496,41.4634711 44.4664463,41.6072727 37.2545455,43.8049587 C37.233719,43.8109091 37.2128926,43.8158678 37.1930579,43.8247934 C35.7560331,44.4456198 34.3497521,44.9117355 32.7183471,44.3008264 C32.1203306,44.0766942 31.267438,44.2760331 30.5821488,44.4575207 C29.6350413,44.707438 29.1143802,45.5593388 29.126281,46.4667769 C29.1352066,47.1213223 29.557686,47.4842975 30.0257851,47.7213223" id="Shape" fill="#24334F"></path>
                <path d="M76.7722314,64.4697521 C76.7722314,64.4697521 73.6601653,69.2122314 72.9828099,71.0667769 C72.1021488,73.4766942 71.6261157,77.8512397 74.3395041,80.8452893 C75.2132231,81.8082645 70.0353719,76.7276033 70.0353719,76.7276033 C70.0353719,76.7276033 71.122314,80.9593388 72.6555372,83.4654545 C72.6555372,83.4654545 68.4079339,77.8899174 67.6958678,75.6991736 C66.738843,72.7566942 68.0697521,69.0555372 68.0697521,69.0555372 C68.3057851,66.7100826 69.5593388,60.4155372 70.5966942,58.2942149 C73.6849587,51.978843 71.4555372,45.9431405 69.3947107,40.0958678 C66.8072727,32.7490909 62.3613223,28.9735537 62.3613223,28.9735537 C61.6809917,29.8155372 61.7147107,30.3590083 60.4095868,31.6502479 C59.3761983,32.6727273 55.8495868,35.3613223 55.8495868,35.3613223 C54.2052893,36.4641322 52.1414876,37.1216529 50.0895868,37.4330579 C47.088595,37.8892562 44.0181818,37.7166942 40.9765289,37.8357025 C36.5702479,38.0092562 32.193719,38.8046281 28.0641322,40.181157 C25.953719,40.8852893 25.6671074,43.0413223 26.1064463,45.0079339 C25.3656198,43.9844628 24.8191736,42.4780165 24.5157025,40.8446281 C22.3100826,46.3209917 22.7841322,52.6175207 25.837686,57.7656198 C27.0426446,59.7966942 28.6155372,61.6433058 29.778843,63.6922314 C32.6866116,68.8195041 32.7709091,75.1438017 29.9990083,80.3295868 C29.088595,82.0333884 27.5682645,83.7877686 25.4489256,83.8700826 C23.4089256,83.9494215 16.3804959,79.7781818 18.2429752,80.6112397 C24.7080992,83.5061157 28.6294215,73.8743802 24.9798347,77.9444628 C21.3312397,82.0145455 17.2601653,76.8218182 17.2601653,76.8218182 C22.8753719,75.9798347 18.1328926,65.4595041 17.6816529,61.9438017 C16.9795041,56.4694215 14.3087603,42.566281 13.1196694,38.4882645 C11.6003306,33.2816529 13.5550413,30.0198347 19.1652893,28.0165289 L17.6112397,27.9560331 C18.2271074,27.6347107 18.873719,27.3133884 19.5361983,27.033719 C18.9143802,25.968595 18.6109091,24.7775207 18.9461157,23.4555372 C20.4614876,17.4783471 31.8684298,9.47504132 33.7080992,8.85322314 C37.1454545,7.69190083 40.8555372,7.32694215 44.5289256,7.18016529 C46.4072727,7.10479339 48.0446281,6.87272727 50.2938843,6.93520661 C50.2938843,6.93520661 57.4343802,8.39305785 64.4766942,13.9140496 C65.8472727,15.3699174 67.3289256,17.04 68.4386777,19.5580165 C70.8238017,24.9649587 72.7358678,29.0836364 73.8049587,29.6409917 L72.2499174,29.7004959 C72.2499174,29.7004959 79.3923967,38.2700826 78.6882645,53.1431405 C78.4968595,57.1785124 79.0998347,62.5993388 78.0595041,66.5018182 L76.7722314,64.4697521 Z" id="Shape" fill="#24334F"></path>
                <path d="M35.4416529,18.101157 C48.9798347,12.3986777 64.1504132,16.9884298 73.2366942,28.3438017 C72.8191736,26.4287603 72.2538843,24.5206612 71.5150413,22.6393388 C64.4647934,4.69487603 45.1100826,-4.10677686 28.2833058,2.98016529 C11.4575207,10.0680992 3.53256198,30.36 10.5828099,48.3044628 C11.9603306,51.8082645 13.8138843,54.9520661 16.0175207,57.7080992 C12.4641322,41.3613223 20.3841322,24.4433058 35.4416529,18.101157" id="Shape" fill="#E0E0E0"></path>
                <path d="M36.6168595,20.452562 C50.1550413,14.7500826 65.3256198,19.3398347 74.4119008,30.6952066 C73.9943802,28.7801653 73.4300826,26.8720661 72.6902479,24.9907438 C65.64,7.04628099 46.2852893,-1.7553719 29.4595041,5.33157025 C12.633719,12.4195041 4.70876033,32.711405 11.7590083,50.6558678 C13.1355372,54.1596694 14.9890909,57.3034711 17.1927273,60.0595041 C13.6393388,43.7127273 21.5603306,26.7947107 36.6168595,20.452562" id="Shape" fill="#FFFFFF"></path>
                <path d="M48.3123967,75.5196694 C47.4555372,76.0700826 46.4558678,75.7765289 46.2247934,75.2727273 C45.993719,74.7689256 46.3428099,74.5646281 46.3428099,74.5646281 L46.7315702,74.5031405 C46.7315702,74.5031405 46.5709091,74.7332231 46.6938843,75.2370248 C46.8158678,75.7408264 47.3573554,75.7834711 47.3573554,75.7834711 C47.3573554,75.7834711 47.5160331,75.8013223 47.3831405,75.7319008 C46.3497521,75.1943802 47.0330579,74.448595 47.0330579,74.448595 C47.0330579,74.448595 47.8631405,74.3305785 48.1368595,74.3256198 C48.4105785,74.3216529 48.7715702,75.2241322 48.3123967,75.5196694 M62.9642975,71.7104132 C62.9642975,71.7104132 62.8760331,71.2740496 62.6449587,71.2591736 C62.4138843,71.2442975 62.1808264,71.3315702 62.1808264,71.3315702 L53.6072727,71.5735537 L50.2304132,71.5368595 C50.2304132,71.5368595 49.0323967,71.6033058 48.9798347,71.5170248 C48.7695868,71.1689256 48.3500826,70.8922314 48.2042975,70.698843 C48.0634711,70.5153719 48.2340496,70.3775207 48.2340496,70.3775207 C48.2340496,70.3775207 48.2390083,70.2991736 48.1120661,70.3765289 C47.7768595,70.5828099 48.5414876,71.5457851 48.5414876,71.5457851 L47.9752066,71.5695868 C47.9752066,71.5695868 47.9057851,71.5557025 47.8829752,71.5517355 C47.8433058,71.5447934 47.7639669,71.5289256 47.7242975,71.5299174 C47.6836364,71.5299174 47.6003306,71.5358678 47.5646281,71.5527273 C47.5398347,71.5646281 47.4852893,71.6241322 47.4852893,71.6241322 C47.4852893,71.6241322 47.1361983,71.677686 47.0171901,71.6727273 C46.8604959,71.6647934 46.7315702,71.5507438 46.3963636,71.5418182 C46.1722314,71.5358678 46.2257851,71.2730579 46.2813223,71.2284298 C46.3160331,71.2006612 46.4578512,71.1619835 46.4578512,71.1619835 L46.511405,71.2046281 L46.6839669,71.2026446 L46.747438,71.1054545 L47.4555372,70.8357025 L47.6092562,70.6780165 L47.5656198,70.4102479 L46.5242975,70.0433058 L46.5877686,70.0264463 L46.5500826,69.8161983 L46.4806612,69.8042975 L46.4509091,69.6991736 L46.4152066,69.3520661 C46.4152066,69.3520661 46.357686,69.2419835 46.1504132,69.3867769 C45.9431405,69.5315702 46.2,69.7170248 46.2,69.7170248 L46.2059504,69.8390083 L46.08,69.8757025 L46.08,70.0790083 L45.8796694,70.094876 L45.8499174,69.8052893 L45.7834711,69.6277686 L45.7765289,69.4323967 L45.7775207,69.3163636 L45.5890909,69.2241322 C45.5890909,69.2241322 45.4919008,69.2241322 45.4433058,69.3332231 C45.393719,69.442314 45.4899174,69.6743802 45.4899174,69.6743802 L45.8657851,71.0796694 C45.5960331,71.505124 46.1890909,71.8740496 46.1890909,71.8740496 C46.1890909,71.8740496 44.9077686,71.8512397 42.3709091,73.7276033 C39.8320661,75.6049587 40.2694215,78.9233058 40.6403306,79.4360331 C41.2135537,80.2294215 42.517686,80.2552066 42.517686,80.2552066 C44.0181818,79.9557025 43.8238017,78.8201653 43.8238017,78.8201653 C43.8238017,78.8201653 43.4092562,78.2757025 43.5133884,76.9358678 C43.6165289,75.5960331 44.5795041,75.1705785 44.5795041,75.1705785 L45.1953719,74.8849587 C45.1953719,74.8849587 45.498843,74.7322314 45.8538843,75.1408264 C46.2089256,75.5504132 46.1256198,75.7259504 46.6958678,75.9332231 C47.3791736,76.1831405 48.0436364,75.8846281 48.3292562,75.7447934 C48.614876,75.6059504 48.7061157,75.2519008 48.7061157,75.2519008 C48.7844628,74.9107438 48.6476033,74.5745455 48.6476033,74.5745455 C48.5890909,74.4277686 48.6128926,74.4198347 48.6128926,74.4198347 C48.6128926,74.4198347 50.7639669,74.298843 50.9940496,74.3018182 C51.2241322,74.3028099 51.2657851,74.2195041 51.2657851,74.2195041 C51.2657851,74.2195041 52.9120661,74.2284298 53.4277686,74.0995041 C53.621157,74.0509091 53.9097521,73.8704132 54.1041322,73.7077686 C54.2985124,73.5441322 54.3322314,73.1970248 54.3322314,73.1970248 L62.3742149,72.8509091 L62.5279339,72.907438 C62.5279339,72.907438 62.9603306,72.9838017 63.0495868,72.7319008 C63.1368595,72.4790083 62.9642975,71.7104132 62.9642975,71.7104132" id="Shape" fill="#24334F"></path>
                <path d="M61.968595,91.4459504 L62.5695868,91.5709091 L69.3183471,96.2766942 C69.082314,96.5097521 68.8730579,96.8092562 68.6320661,97.0353719 L61.7752066,92.2066116 L60.6079339,91.3775207 L60.36,91.2049587 C59.4228099,90.5434711 57.7596694,90.7249587 56.7292562,91.6026446 L55.8604959,92.3424793 L56.2809917,93.0158678 C56.5190083,93.3986777 56.6846281,93.7765289 56.7728926,94.1424793 L59.366281,104.04595 C59.0697521,104.189752 58.5738843,104.289917 58.2723967,104.425785 L55.8257851,94.372562 C55.8,94.2624793 55.762314,94.1712397 55.7355372,94.1038017 L55.7147107,94.0492562 C55.5044628,93.5226446 55.113719,93.0277686 54.6079339,92.6429752 C54.5682645,92.6132231 54.528595,92.5844628 54.4879339,92.5557025 C53.9087603,92.1480992 53.2631405,91.9279339 52.6690909,91.938843 L47.3256198,92.0161983 L47.3147107,92.0171901 C46.968595,92.025124 46.6214876,92.1054545 46.282314,92.2522314 C45.6386777,92.5299174 45.0833058,93.0545455 44.7590083,93.6922314 C44.6132231,93.9798347 44.5209917,94.267438 44.4813223,94.5510744 L42.7606612,108.147769 C42.4323967,108.143802 42.0604959,108.133884 41.7342149,108.120992 L43.5163636,94.4231405 C43.5758678,93.9709091 43.7196694,93.5345455 43.9447934,93.1279339 L44.3801653,92.3375207 L42.8370248,91.4429752 C41.8928926,90.8876033 40.6373554,90.8915702 39.7884298,91.4499174 C39.6614876,91.5322314 39.4978512,91.6492562 39.3520661,91.8228099 L38.6122314,92.7064463 L28.248595,105.128926 C27.9371901,104.995041 27.5930579,104.760992 27.2856198,104.618182 L37.8565289,92.0866116 L40.1295868,91.301157 C40.1295868,91.301157 41.6271074,90.9907438 42.4363636,91.3547107 C43.2466116,91.7186777 44.5507438,92.4158678 44.5507438,92.4158678 L45.5028099,92.5606612 L49.0978512,92.3166942 L53.2353719,92.351405 L55.1920661,92.6370248 L57.5147107,91.3804959 L59.5328926,91.0343802 L61.2287603,91.338843 L61.968595,91.4459504 Z" id="Shape" fill="#FFFFFF"></path>
                <path d="M26.8413223,83.6459504 C26.8413223,83.6459504 26.842314,83.6449587 26.8433058,83.6449587 L26.8413223,83.6459504 Z M29.9494215,83.2730579 C32.5834711,85.2743802 35.4803306,88.848595 37.4459504,91.4935537 L37.8813223,92.0786777 L27.0128926,104.990083 L26.4575207,103.523306 C24.5315702,98.4386777 21.5970248,89.2056198 23.5824793,84.4919008 C24.1180165,83.2135537 25.0046281,82.3447934 26.2185124,81.9123967 C27.0922314,81.5970248 28.3477686,82.0552066 29.9494215,83.2730579 L29.9494215,83.2730579 Z M28.0175207,108.177521 L28.0185124,108.176529 L28.0175207,108.177521 Z M40.7861157,93 C40.7861157,92.9990083 40.7871074,92.9990083 40.7871074,92.9990083 L40.7861157,93 Z M44.4039669,92.3295868 L43.968595,93.12 C43.7434711,93.5266116 43.6006612,93.9629752 43.541157,94.4152066 L40.6928926,116.272066 L27.3818182,109.480661 C27.2390083,109.407273 27.105124,109.322975 26.9801653,109.227769 C26.5646281,108.912397 26.3067769,108.50281 26.2552066,108.07438 C26.2095868,107.69157 26.3315702,107.317686 26.6082645,106.990413 L26.7966942,106.765289 L38.6370248,92.6975207 L39.3758678,91.8138843 C39.5216529,91.6403306 39.686281,91.5242975 39.8132231,91.4419835 C40.661157,90.8836364 41.9166942,90.8796694 42.8618182,91.4350413 L44.4039669,92.3295868 Z M54.0614876,94.8029752 L54.0604959,94.8009917 C54.0604959,94.8019835 54.0604959,94.8029752 54.0614876,94.8029752 L54.0614876,94.8029752 Z M54.6317355,92.6340496 C55.1385124,93.0198347 55.5292562,93.5147107 55.7385124,94.0413223 L55.7593388,94.0958678 C55.7871074,94.162314 55.8238017,94.2545455 55.8495868,94.3646281 L60.0912397,111.641653 L61.1067769,115.800992 C61.162314,116.026116 61.1821488,116.25124 61.166281,116.488264 C61.1395041,116.878017 61.0224793,117.214215 60.8171901,117.487934 C60.4839669,117.947107 59.9523967,118.227769 59.3186777,118.280331 L43.5560331,119.528926 C43.2694215,119.553719 42.9857851,119.519008 42.6961983,119.42281 L42.6694215,119.413884 C42.5434711,119.369256 42.3639669,119.30281 42.1844628,119.166942 C41.6707438,118.776198 41.4317355,118.13157 41.5269421,117.398678 L41.5646281,117.10314 L41.6390083,116.386116 L44.3613223,95.467438 C44.5447934,94.2595041 44.6370248,93.9719008 44.7828099,93.6842975 C45.1080992,93.0456198 45.6624793,92.5219835 46.3071074,92.2442975 C46.6452893,92.0975207 46.9933884,92.0171901 47.3385124,92.0082645 L47.3504132,92.0082645 L52.6928926,91.9309091 C53.2869421,91.92 53.932562,92.1401653 54.5117355,92.5477686 C54.5523967,92.5765289 54.5920661,92.6052893 54.6317355,92.6340496 L54.6317355,92.6340496 Z M75.7061157,102.037686 C76.0512397,102.299504 76.2476033,102.657521 76.2763636,103.073058 L76.2773554,103.091901 C76.3021488,103.62843 76.0373554,104.200661 75.5504132,104.661818 L73.9309091,106.195041 L64.3061157,115.304132 C63.8380165,115.740496 63.311405,115.964628 62.8195041,115.938843 L62.1361983,115.904132 L56.797686,94.1345455 C56.7084298,93.768595 56.5428099,93.3897521 56.3047934,93.0079339 L55.8852893,92.3345455 L56.7530579,91.5947107 C57.7844628,90.7170248 59.4466116,90.5355372 60.3838017,91.1970248 L60.6317355,91.3695868 L61.7990083,92.1986777 L75.6595041,102.002975 L75.7061157,102.037686 Z M75.0505785,81.0664463 C79.1841322,84.2072727 77.111405,95.0201653 76.027438,99.5226446 L75.7100826,100.844628 L62.5933884,91.5619835 L63.0287603,90.8310744 C64.5996694,88.1871074 69.9768595,79.6135537 73.1960331,80.2522314 C73.9061157,80.3910744 74.5130579,80.6568595 75.0505785,81.0664463 L75.0505785,81.0664463 Z" id="Shape" fill="#23324E"></path>
                <path d="M57.888595,61.8099174 C54.4561983,61.5659504 52.5887603,63.4502479 51.9728926,64.5361983 C49.9071074,68.1778512 43.2604959,64.4766942 47.178843,61.2763636 C48.018843,60.5910744 46.8208264,59.4059504 45.9877686,60.086281 C43.1246281,62.4238017 44.145124,66.682314 47.7272727,67.5768595 C49.2029752,67.9457851 51.1368595,67.6621488 52.3695868,66.7428099 C53.6152066,65.8135537 54.105124,63.8816529 57.3917355,63.8350413 C59.1738843,63.8102479 61.046281,65.5814876 62.1272727,67.4905785 C63.9867769,70.7712397 59.8680992,68.4456198 60.7447934,72.082314 C60.8042975,72.3282645 61.9566942,73.8872727 61.7047934,71.7629752 C61.488595,69.9520661 63.9292562,69.8132231 64.421157,69.566281 C67.2604959,68.1381818 61.4608264,62.0647934 57.888595,61.8099174" id="Shape" fill="#23324E"></path>
            </g>
        </g>
    </g>
</svg>