<?xml version="1.0" encoding="UTF-8"?>
<svg width="130px" height="130px" viewBox="0 0 130 130" version="1.1" xmlns="http://www.w3.org/2000/svg" xmlns:xlink="http://www.w3.org/1999/xlink">
    <!-- Generator: Sketch 42 (36781) - http://www.bohemiancoding.com/sketch -->
    <title>karamustafa</title>
    <desc>Created with Sketch.</desc>
    <defs></defs>
    <g id="Page-1" stroke="none" stroke-width="1" fill="none" fill-rule="evenodd">
        <g id="karamustafa" transform="translate(16.000000, 5.000000)">
            <path d="M79.516102,73.3185612 C79.516102,95.6299898 62.4467143,113.71693 41.3904122,113.71693 C20.334698,113.71693 3.26531204,95.6299898 3.26531204,73.3185612 C3.26531204,51.0071633 20.334698,32.9196122 41.3904122,32.9196122 C62.4467143,32.9196122 79.516102,51.0071633 79.516102,73.3185612" id="Fill-1" fill="#F62606"></path>
            <path d="M96.9226531,52.0961633 C96.9226531,74.4081796 79.8532653,92.4957306 58.7975694,92.4957306 C37.7412429,92.4957306 20.6718551,74.4081796 20.6718551,52.0961633 C20.6718551,29.7847347 37.7412429,11.6977959 58.7975694,11.6977959 C79.8532653,11.6977959 96.9226531,29.7847347 96.9226531,52.0961633" id="Fill-2" fill="#F3F3F3"></path>
            <path d="M70.5034286,61.9065612 C76.6252653,55.3353061 80.3899592,46.3946939 80.3899592,36.5436735 C80.3899592,16.3610204 64.5848571,0 45.0867184,0 C25.5897796,0 9.78284082,16.3610204 9.78284082,36.5436735 C9.78284082,48.1077551 14.9716163,58.4161531 23.0697796,65.1122755 C23.0697796,65.1122755 21.0628408,57.4297959 20.7744735,54.8063265 C19.2377388,40.8391837 28.3908,27.7432653 46.215698,27.6630612 C64.0411837,27.5810204 72.7889388,40.8006122 71.6581224,54.8063265 C71.5130204,56.5989796 70.5034286,61.9065612 70.5034286,61.9065612" id="Fill-3" fill="#2E4261"></path>
            <polygon id="Fill-4" fill="#2E4261" points="48.3227327 105.52778 35.5213041 105.52778 28.1474265 105.52778 31.8337531 101.513902 35.5213041 97.4988"></polygon>
            <path d="M37.9110245,68.8229571 C34.8271469,68.8229571 32.2202082,70.162549 31.3636776,72.0041816 C30.6253102,73.2231612 30.1728612,74.8517327 30.1728612,76.6419367 C30.1728612,80.4231612 32.1865347,83.4886714 34.6704122,83.4886714 L34.7108204,83.447651 C34.7108204,81.0696918 35.507351,78.9745898 36.7171469,77.7470388 C37.104698,77.7923449 37.5032694,77.8174469 37.9110245,77.8174469 C41.692249,77.8174469 45.892249,75.8037735 45.892249,73.3198959 L45.9014327,68.7947939 L37.9110245,68.8229571 Z" id="Fill-5" fill="#2E4261"></path>
            <path d="M55.0980857,68.8229571 C58.181351,68.8229571 60.788902,70.162549 61.6454082,72.0041816 C62.3837755,73.2231612 62.8356122,74.8517327 62.8356122,76.6419367 C62.8356122,80.4231612 60.8225755,83.4886714 58.338698,83.4886714 L58.2982898,83.447651 C58.2982898,81.0696918 57.5011469,78.9745898 56.291351,77.7470388 C55.9038,77.7923449 55.5052286,77.8174469 55.0980857,77.8174469 C51.3168612,77.8174469 47.1168612,75.8037735 47.1168612,73.3198959 L47.1076776,68.7947939 L55.0980857,68.8229571 Z" id="Fill-6" fill="#2E4261"></path>
            <path d="M57.1996776,83.5244939 C57.1996776,83.5244939 57.6680449,85.7579633 61.5208776,82.7334735 C66.1249592,79.1181673 65.4465918,71.2091878 65.4465918,71.2091878 L69.8755714,64.0428612 C71.5714898,68.6989837 69.6857755,79.4053102 67.5441429,84.714698 C63.3600612,95.0891878 47.188249,102.353473 40.2741673,95.534902 C38.2268204,93.5151061 36.9160041,87.5267388 36.4280449,84.6920449 C35.6688612,80.2820449 42.8804939,77.9793918 46.6617184,77.9793918 L46.9537592,77.9793918 C50.3731469,77.9793918 56.5978408,79.8626571 57.1966163,83.4840857 L57.1996776,83.5244939 Z" id="Fill-7" fill="#2E4261"></path>
            <path d="M48.8805551,115.58452 C49.8044327,114.61105 49.6654531,111.09799 48.6497388,110.215133 C46.9991265,108.780031 40.9238204,110.64799 38.7148408,110.469214 L38.787698,108.044112 C38.787698,108.044112 36.8015755,107.337582 36.3062694,107.717786 C35.8323918,108.082071 36.0025959,110.091459 36.0025959,110.091459 L35.9921878,110.137378 C32.9989224,109.655541 30.0381061,108.784929 27.1642286,107.500439 C7.61341224,98.7594184 -0.445565939,74.1673776 9.16667755,52.5740816 L8.9383102,52.4804082 C-5.02454571,71.5469694 -2.33372939,97.2624796 14.9481061,109.918806 C21.1660653,114.472683 28.4260653,116.714112 35.8225959,116.831663 C35.8458612,116.831663 35.867902,116.832887 35.8911673,116.832275 L35.8905551,116.860438 C35.8905551,116.860438 35.5164735,118.839826 35.9511673,119.254316 C36.4036163,119.687173 38.450351,119.20105 38.450351,119.20105 L38.5238204,116.778397 C38.5256571,116.77901 38.5268816,116.778397 38.5287184,116.777785 C40.7848408,116.64554 47.305249,117.246765 48.8805551,115.58452" id="Fill-8" fill="#2E4261"></path>
            <polygon id="Fill-9" fill="#2E4261" points="58.4463367 44.6876939 60.2500102 51.4774898 67.2675306 51.1297347 61.3673265 54.9427959 63.8671224 61.5091531 58.4163367 57.0770816 52.9440918 61.4828265 55.4751122 54.9287143 49.5932755 51.0862653 56.6083776 51.4683061"></polygon>
            <path d="M34.3325755,47.0387755 C34.3325755,47.0387755 34.3582898,46.0004082 34.1121673,45.9808163 C33.5721673,45.9397959 31.9154327,45.9434694 30.9456367,46.0542857 C30.586249,46.0953061 30.8054327,47.4942857 30.8054327,47.4942857 C28.1464531,48.5522449 26.2668612,51.1481633 26.2668612,54.1836735 C26.2668612,58.1595918 29.4897184,61.3824796 33.4656367,61.3824796 C37.4421673,61.3824796 40.6656367,58.1595918 40.6656367,54.1836735 C40.6656367,50.5010204 37.9001265,47.4667347 34.3325755,47.0387755" id="Fill-10" fill="#2E4261"></path>
            <polygon id="Fill-11" fill="#2E4261" points="46.0543102 108.556867 76.3793878 108.556867 94.6610204 108.556867 85.5202041 97.6454388 76.3793878 86.7340102"></polygon>
            <path d="M32.7296571,46.3518367 C32.8472082,44.9663265 32.8576163,39.7414286 33.5568,38.2953061 C35.3586367,34.5679592 40.6753714,34.9022449 43.0906776,35.9479592 C47.7480245,37.9640816 46.0282286,49.7179592 44.9182286,54.2993878 C44.2533306,57.0446939 41.3421061,62.1942857 43.2468,64.7314286 C45.2751673,67.4338776 49.5676163,67.1865306 51.1196571,64.322449 C51.8139429,63.0404082 52.2914939,62.1771429 51.6302694,61.2893878 C50.781698,60.15 48.4165959,59.995102 48.0382286,61.6983673 C47.6506776,63.4420408 50.1578204,63.8253061 51.4251673,63.4463265 C52.6380245,63.0838776 53.1406776,61.984898 53.7645551,60.9238776" id="Stroke-12" stroke="#2E4261"></path>
            <polygon id="Fill-13" fill="#2E4261" points="76.1404286 86.2187388 80.2026735 84.2589429 77.5075714 83.344249 80.1843061 82.4136367 76.1404286 80.8450653"></polygon>
        </g>
    </g>
</svg>