<?xml version="1.0" encoding="utf-8"?>
<!-- Generator: Adobe Illustrator 19.2.1, SVG Export Plug-In . SVG Version: 6.00 Build 0)  -->
<svg version="1.1" id="Layer_1" xmlns="http://www.w3.org/2000/svg" xmlns:xlink="http://www.w3.org/1999/xlink" x="0px" y="0px"
	 viewBox="0 0 168.7 200" style="enable-background:new 0 0 168.7 200;" xml:space="preserve">
<style type="text/css">
	.st0{fill:#F0F0F0;}
	.st1{fill:#F0090B;}
	.st2{fill:#23324E;}
	.st3{fill:none;stroke:#000000;stroke-width:1.4319;stroke-miterlimit:10;}
	.st4{fill:#23324E;stroke:#23324E;stroke-miterlimit:10;}
	.st5{fill:none;stroke:#23324E;stroke-width:1.1287;stroke-miterlimit:10;}
</style>
<ellipse class="st0" cx="104.3" cy="126.1" rx="62.3" ry="66"/>
<ellipse class="st1" cx="66.9" cy="125.8" rx="62.3" ry="66"/>
<line class="st2" x1="83.5" y1="142.9" x2="83.5" y2="142.9"/>
<path class="st2" d="M80.9,188.5c0,0,0.6,4.4,11.7,5.7c12.9,1.5,20.6-21.6,20.6-21.6c3-5.6,9.2-16.8,9.2-16.8l-0.3-4.1
	c0,0,0.4,5.4,4.9,11c4.1,5,10.3,10.8,10.3,10.8s5.2,6.5,5.2,8.3c0,1.8-2.2,4.2,0,5.9c2.7,2.2,4.2,1.7,5.1,2.8
	c1.4,1.8,3.8,5.7,6.3,6.1c4.3,0.8,4.6-0.5,4.6-0.5c-4.9-3.2-5.4-5.8-9.5-15.1c-8-18.2-16.6-42.4-16.8-42.6
	c-1.7-1.7-12.6-8.2-45.8,28c-1.9,2-3,4.8-4.9,7.2L80.9,188.5z"/>
<path class="st2" d="M81.7,188.5c0,0-0.6,4.4-11.7,5.7c-12.9,1.5-20.6-21.6-20.6-21.6c-3-5.6-9.2-16.8-9.2-16.8l0.3-4.1
	c0,0-0.4,5.4-4.9,11c-4.1,5-10.3,10.8-10.3,10.8s-5.2,6.5-5.2,8.3c0,1.8,2.2,4.2,0,5.9c-2.7,2.2-4.2,1.7-5.1,2.8
	c-1.4,1.8-3.8,5.7-6.3,6.1c-4.3,0.8-4.6-0.5-4.6-0.5c4.9-3.2,5.4-5.8,9.5-15.1c8-18.2,16.6-42.4,16.8-42.6c1.7-1.7,12.6-8.2,45.8,28
	c1.9,2,3,4.8,4.9,7.2L81.7,188.5z"/>
<path class="st0" d="M87.7,191.7v-0.3l-5-1.4v-7.2c9-0.8,7-11,7-16H73c0,5-0.3,15,7.7,16v7.2l-5,1.4v0.3H87.7z"/>
<path class="st0" d="M125.5,63c0,0,2.7,28.7,0,37.8c0,0-18.4,51.2-44.5,54.2c0,0-0.1,0-0.1,0c-25.9-3.7-44.5-54.2-44.5-54.2
	c-2.7-9.2,0-38,0-38L44,26.8l37-20l34.4,14.1L125.5,63z"/>
<circle class="st2" cx="93.6" cy="121.6" r="1.7"/>
<path class="st2" d="M86.9,121.3c-1.5-0.3-3.8,1.2-5.4,3.1c-1.5-1.9-3.9-3.4-5.4-3.1c-2.8,0.6-5.9,8.4-5.9,8.4s4-1.3,8-0.3
	c1.4,0.3,2.4,0.5,3.2,0.5l0,0c0.1,0,0.2,0,0.3,0c0,0,0,0,0,0v0c0.8,0,1.6-0.2,3-0.5c4-1,8,0.3,8,0.3S89.7,121.9,86.9,121.3z"/>
<path class="st3" d="M42.8,75.2"/>
<path class="st2" d="M136.3,72.2c0-38.4-14.3-69.2-55.1-69.6C37.5,2.2,26.1,33.8,26.1,72.2l74.1,0.3l4.8-33l2.5,33L136.3,72.2z"/>
<g>
	<path class="st2" d="M70.5,130.1C70.5,130.1,70.5,130.1,70.5,130.1C70.5,130.1,70.5,130,70.5,130.1L70.5,130.1z"/>
	<path class="st2" d="M85.1,130.4c-1.5,0.4-2.4,0.5-3.2,0.5v0c-0.1,0-0.1,0-0.2,0c-0.1,0-0.1,0-0.2,0v0c-0.8,0-1.7-0.1-3.2-0.5
		c-3.8-0.9-7.5-0.4-7.7-0.3c0.2,0.5,3.2,7.5,5.7,8.8c1.2,0.6,4,0.1,5.5,0.1c1.5,0,4.3,0.5,5.5-0.1c2.5-1.2,5.5-8.3,5.7-8.8
		C92.6,130,89,129.4,85.1,130.4z"/>
	<path class="st2" d="M92.9,130C92.9,130,92.9,130.1,92.9,130C92.9,130.1,92.9,130.1,92.9,130L92.9,130z"/>
</g>
<ellipse class="st2" cx="19.8" cy="78" rx="16.2" ry="29.1"/>
<ellipse class="st2" cx="142.8" cy="78" rx="16.2" ry="29.1"/>
<path class="st1" d="M88.7,173.7c0,5-3.1,8.1-7,8.1c-3.9,0-7-3.1-7-8.1H88.7z"/>
<path class="st2" d="M42.8,90.4c0,0,12.2,10.9,27.5-0.6c0,0,0-2-1.3-1.3c-1.3,0.8-2.1,1.7-6.1,2.7c-4,1-8.9-0.4-17.7-3.7
	C42.1,86.4,42,89,42.8,90.4z"/>
<path class="st2" d="M116.8,90.4c0,0-12.2,10.9-27.5-0.6c0,0,0-2,1.3-1.3c1.3,0.8,2.1,1.7,6.1,2.7c4,1,8.9-0.4,17.7-3.7
	C117.5,86.4,117.6,89,116.8,90.4z"/>
<g>
	<path class="st2" d="M117.1,79.9c0,0-0.4,1.9-0.3,2.4c0.1,0.3,1,0.5,1.1,0.2c0.2-0.4,0.3-2.4,0.3-2.4s2.7,0.5,3.5,0.2
		c1.4-0.5,1-2.5,1-2.5c-0.1-0.4-0.4-0.5-0.6-0.6c-0.2,0-0.5,0-0.7,0.3c-0.2,0.3-0.3,1.4-0.3,1.4l-2.8-0.5c0,0,0.4-1.9,0.3-2.4
		c-0.1-0.3-1-0.5-1.1-0.2c-0.2,0.4-0.3,2.4-0.3,2.4l-7-1c-1.6-0.3-3.2-0.4-4.9-0.6c-7-0.7-13.3,1.2-18.5,4.5
		c-0.5,0.3-1.4,0.9-1.9,1.6c-0.3,0.4-0.4,1.2-0.4,1.2l3.4-1.9c4.8-2.9,10.8-4.3,17.2-3.7c1.7,0.2,3.3,0.3,4.9,0.6L117.1,79.9z"/>
	<path class="st4" d="M117.4,78.2l-7-1c-1.6-0.3-3.2-0.4-4.9-0.6c-7-0.7-13.3,1.2-18.5,4.5c-0.5,0.3-1.4,0.9-1.9,1.6
		c-0.3,0.4-0.4,1.2-0.4,1.2l3.4-1.9c4.8-2.9,10.8-4.3,17.2-3.7c1.7,0.2,3.3,0.3,4.9,0.6l6.9,1.1"/>
</g>
<path class="st5" d="M39.1,83.6c-1.5-3.9,28.8-7.7,31.9-3.5c0,0,7.1,3.7,3.1,19.2c-0.6,2.4-3.3,9.8-3.3,9.8s3.1,5.5,9,5.4
	c6.3,0,8.4-6.7,8.4-6.7c-0.5-2.7-4-7.4-4.1-10c0,0-0.4-2.3-0.3-3.3l0.9-11.3"/>
</svg>
