<?xml version="1.0" encoding="UTF-8"?>
<svg width="101px" height="120px" viewBox="0 0 101 120" version="1.1" xmlns="http://www.w3.org/2000/svg" xmlns:xlink="http://www.w3.org/1999/xlink">
    <!-- Generator: Sketch 41.1 (35376) - http://www.bohemiancoding.com/sketch -->
    <title>katrina</title>
    <desc>Created with Sketch.</desc>
    <defs></defs>
    <g id="Page-1" stroke="none" stroke-width="1" fill="none" fill-rule="evenodd">
        <g id="katrina">
            <path d="M100.291385,76.0233785 C100.291385,98.44984 83.1344615,116.630148 61.9707692,116.630148 C40.8064615,116.630148 23.6495385,98.44984 23.6495385,76.0233785 C23.6495385,53.5975385 40.8064615,35.4178462 61.9707692,35.4178462 C83.1344615,35.4178462 100.291385,53.5975385 100.291385,76.0233785" id="Fill-1" fill="#F0F0F0"></path>
            <path d="M77.2571077,75.8161785 C77.2571077,98.2420246 60.1001846,116.421719 38.9358769,116.421719 C17.7721846,116.421719 0.615262338,98.2420246 0.615262338,75.8161785 C0.615262338,53.3903385 17.7721846,35.2100308 38.9358769,35.2100308 C60.1001846,35.2100308 77.2571077,53.3903385 77.2571077,75.8161785" id="Fill-2" fill="#F0090B"></path>
            <path d="M47.5513231,114.393837 C47.5513231,114.393837 47.9199385,117.123683 54.7476308,117.929837 C62.6799385,118.866452 67.4362462,104.632609 67.4362462,104.632609 C69.2965538,101.158763 73.1094769,94.2953785 73.1094769,94.2953785 L72.9494769,91.7999938 C72.9494769,91.7999938 73.1716308,95.1323015 75.9857846,98.5563015 C78.5384,101.662763 82.3500923,105.228302 82.3500923,105.228302 C82.3500923,105.228302 85.5808615,109.229532 85.5808615,110.306455 C85.5808615,111.383378 84.2442462,112.874455 85.5808615,113.928606 C87.2694769,115.261529 88.1827077,114.984606 88.7347077,115.67876 C89.6017846,116.767375 91.0614769,119.162452 92.5882462,119.449837 C95.2245538,119.945837 95.4159385,119.147068 95.4159385,119.147068 C92.3993231,117.188298 92.0707077,115.580914 89.5488615,109.834455 C84.6276308,98.6252246 79.3599385,83.73784 79.2196308,83.5944554 C78.1882462,82.5409169 71.4842462,78.56984 51.0251692,100.807378 C49.8700923,102.063994 49.1531692,103.735378 47.9808615,105.228302 L47.5513231,114.393837 Z" id="Fill-3" fill="#23324E"></path>
            <path d="M48.0314462,114.393837 C48.0314462,114.393837 47.6628308,117.123683 40.8351385,117.929837 C32.9034462,118.866452 28.1465231,104.632609 28.1465231,104.632609 C26.2862154,101.158763 22.4732923,94.2953785 22.4732923,94.2953785 L22.6332923,91.7999938 C22.6332923,91.7999938 22.4111385,95.1323015 19.5976,98.5563015 C17.0443692,101.662763 13.2326769,105.228302 13.2326769,105.228302 C13.2326769,105.228302 10.0019077,109.229532 10.0019077,110.306455 C10.0019077,111.383378 11.3385231,112.874455 10.0019077,113.928606 C8.31329231,115.261529 7.40006154,114.984606 6.84806154,115.67876 C5.9816,116.767375 4.52129231,119.162452 2.99452308,119.449837 C0.358215569,119.945837 0.166830954,119.147068 0.166830954,119.147068 C3.18344615,117.188298 3.51206154,115.580914 6.03390769,109.834455 C10.9551385,98.6252246 16.2228308,83.73784 16.3631385,83.5944554 C17.3945231,82.5409169 24.0985231,78.56984 44.5576,100.807378 C45.7126769,102.063994 46.4296,103.735378 47.6019077,105.228302 L48.0314462,114.393837 Z" id="Fill-4" fill="#23324E"></path>
            <path d="M51.7102769,116.348917 L51.7102769,116.142763 L48.6333538,115.268302 L48.6333538,110.827071 C54.1718154,110.318148 52.9176615,104.041225 52.9176615,100.964302 L42.6801231,100.964302 C42.6801231,104.041225 42.4795077,110.207994 47.4025846,110.811071 L47.4025846,115.268302 L44.3256615,116.142763 L44.3256615,116.348917 L51.7102769,116.348917 Z" id="Fill-5" fill="#F0F0F0"></path>
            <path d="M74.9710769,37.1622154 C74.9710769,37.1622154 76.6436923,54.8120615 74.9710769,60.44344 C74.9710769,60.44344 63.6289231,91.9425169 47.6073846,93.8083631 C47.5975385,93.8102092 47.5766154,93.8095938 47.5667692,93.8083631 C31.6012308,91.5086708 20.2030769,60.44344 20.2030769,60.44344 C18.5298462,54.8120615 20.2030769,37.0532923 20.2030769,37.0532923 L24.8184615,14.8668308 L47.5618462,2.55790769 L68.7335385,11.2360615 L74.9710769,37.1622154 Z" id="Fill-6" fill="#F0F0F0"></path>
            <path d="M56.4010462,73.2535323 C56.4010462,73.8215323 55.9407385,74.28184 55.3721231,74.28184 C54.8047385,74.28184 54.3450462,73.8215323 54.3450462,73.2535323 C54.3450462,72.6855323 54.8047385,72.2252246 55.3721231,72.2252246 C55.9407385,72.2252246 56.4010462,72.6855323 56.4010462,73.2535323" id="Fill-7" fill="#23324E"></path>
            <path d="M51.2436308,73.0225785 C50.3107077,72.8133477 48.8842462,73.7807323 47.9334769,74.9302708 C46.9827077,73.7807323 45.5568615,72.8133477 44.6239385,73.0225785 C42.8756308,73.4127323 41.0067077,78.2145785 41.0067077,78.2145785 C41.0067077,78.2145785 43.4577846,77.4275015 45.9187077,78.0219631 C46.7864,78.2311938 47.3759385,78.3075015 47.8608615,78.3204246 L47.8614769,78.3253477 C47.9273231,78.3265785 47.9944,78.3265785 48.0620923,78.3247323 C48.0713231,78.3247323 48.0817846,78.3253477 48.0904,78.3253477 L48.0904,78.3235015 C48.5556308,78.3099631 49.0873231,78.2299631 49.9488615,78.0219631 C52.4091692,77.4275015 54.8608615,78.2145785 54.8608615,78.2145785 C54.8608615,78.2145785 52.9913231,73.4127323 51.2436308,73.0225785" id="Fill-8" fill="#23324E"></path>
            <path d="M81.6158769,42.8256615 C81.6158769,19.1752 72.8023385,0.259507692 47.7081846,0.00289230769 C20.8484923,-0.271569231 13.8004923,19.1752 13.8004923,42.8256615 L59.3894154,43.0213538 L62.3580308,22.7167385 L63.9241846,43.0213538 L81.6158769,42.8256615 Z" id="Fill-9" fill="#23324E"></path>
            <path d="M41.1361231,78.4454708 C41.1361231,78.4454708 41.1459692,78.4436246 41.1533538,78.4423938 C41.1490462,78.4325477 41.1410462,78.4147015 41.1410462,78.4147015 L41.1361231,78.4454708 Z" id="Fill-10" fill="#23324E"></path>
            <path d="M50.1501538,78.6305785 C49.2264615,78.8539631 48.656,78.9284246 48.1526154,78.9278092 L48.1526154,78.9228862 C48.1144615,78.9247323 48.0750769,78.9253477 48.0363077,78.9259631 C47.9975385,78.9253477 47.9581538,78.9247323 47.92,78.9228862 L47.92,78.9278092 C47.4166154,78.9284246 46.8461538,78.8539631 45.9224615,78.6305785 C43.5606154,78.0607323 41.3298462,78.4133477 41.1532308,78.4428862 C41.2775385,78.7345785 43.1476923,83.0835015 44.6578462,83.8521169 C45.3772308,84.2188862 47.1243077,83.91304 48.0363077,83.8847323 C48.9483077,83.91304 50.6953846,84.2188862 51.4147692,83.8521169 C52.9249231,83.0835015 54.7950769,78.7345785 54.9193846,78.4428862 C54.7427692,78.4133477 52.512,78.0607323 50.1501538,78.6305785" id="Fill-11" fill="#23324E"></path>
            <path d="M54.9312615,78.4145231 C54.9312615,78.4145231 54.9238769,78.4323692 54.9195692,78.4428308 C54.9269538,78.4440615 54.9361846,78.4452923 54.9361846,78.4452923 L54.9312615,78.4145231 Z" id="Fill-12" fill="#23324E"></path>
            <path d="M19.8916923,46.3779692 C19.8916923,56.2598154 15.4393846,64.2702708 9.94584615,64.2702708 C4.45292308,64.2702708 0,56.2598154 0,46.3779692 C0,36.4961231 4.45292308,28.4856615 9.94584615,28.4856615 C15.4393846,28.4856615 19.8916923,36.4961231 19.8916923,46.3779692" id="Fill-13" fill="#23324E"></path>
            <path d="M95.5840615,46.3779692 C95.5840615,56.2598154 91.1317538,64.2702708 85.6382154,64.2702708 C80.1452923,64.2702708 75.6923692,56.2598154 75.6923692,46.3779692 C75.6923692,36.4961231 80.1452923,28.4856615 85.6382154,28.4856615 C91.1317538,28.4856615 95.5840615,36.4961231 95.5840615,46.3779692" id="Fill-14" fill="#23324E"></path>
            <path d="M52.3169231,105.271994 C52.3169231,108.348917 50.3809231,110.239994 47.9938462,110.239994 C45.6061538,110.239994 43.6707692,108.348917 43.6707692,105.271994 L52.3169231,105.271994 Z" id="Fill-15" fill="#F0090B"></path>
            <path d="M24.0780308,54.0267077 C24.0780308,54.0267077 31.5691077,60.7153169 40.9826462,53.6574769 C40.9826462,53.6574769 40.9826462,52.4193231 40.2084923,52.8833231 C39.4349538,53.3479385 38.9081846,53.9362462 36.4312615,54.5553231 C33.9543385,55.1731692 30.9506462,54.3251692 25.5641846,52.2937846 C23.6761846,51.5811692 23.5832615,53.1590154 24.0780308,54.0267077" id="Fill-16" fill="#23324E"></path>
            <path d="M69.6505846,54.0267077 C69.6505846,54.0267077 62.1595077,60.7153169 52.7459692,53.6574769 C52.7459692,53.6574769 52.7459692,52.4193231 53.5201231,52.8833231 C54.2936615,53.3479385 54.8204308,53.9362462 57.2973538,54.5553231 C59.7742769,55.1731692 62.7779692,54.3251692 68.1644308,52.2937846 C70.0524308,51.5811692 70.1453538,53.1590154 69.6505846,54.0267077" id="Fill-17" fill="#23324E"></path>
            <path d="M69.8510769,47.5932308 C69.8510769,47.5932308 69.6153846,48.7501538 69.6596923,49.0486154 C69.6910769,49.2578462 70.2523077,49.3483077 70.3341538,49.1587692 C70.4516923,48.8855385 70.5193846,47.6781538 70.5193846,47.6781538 C70.5193846,47.6781538 72.1753846,47.9950769 72.6996923,47.8092308 C73.5396923,47.5113846 73.3353846,46.2572308 73.3353846,46.2572308 C73.2633846,46.0030769 73.1150769,45.9286154 72.9741538,45.9076923 C72.8516923,45.8886154 72.656,45.9113846 72.5513846,46.0633846 C72.4344615,46.2332308 72.3741538,46.9304615 72.3741538,46.9304615 L70.6510769,46.6295385 C70.6510769,46.6295385 70.8873846,45.472 70.8430769,45.1747692 C70.8116923,44.9649231 70.2498462,44.8750769 70.1686154,45.064 C70.0504615,45.3372308 69.9833846,46.5446154 69.9833846,46.5446154 L65.6523077,45.9169231 C64.6726154,45.7193846 63.6590769,45.6443077 62.624,45.5476923 C58.3230769,45.1452308 54.416,46.2935385 51.2646154,48.3046154 C50.9544615,48.5033846 50.3772308,48.8313846 50.0990769,49.2596923 C49.9304615,49.5187692 49.8769231,49.9803077 49.8769231,49.9803077 L51.9667692,48.8233846 C54.9476923,47.0252308 58.6172308,46.1723077 62.5815385,46.544 C63.616,46.6406154 64.6344615,46.712 65.6141538,46.9095385 L69.8510769,47.5932308 Z" id="Fill-18" fill="#23324E"></path>
            <path d="M70.2908923,46.8524308 L65.9604308,46.2247385 C64.9801231,46.0265846 63.9665846,45.9521231 62.9315077,45.8555077 C58.6305846,45.4530462 54.7241231,46.6013538 51.5721231,48.6124308 C51.2619692,48.8105846 50.6853538,49.1392 50.4065846,49.5675077 C50.2379692,49.8265846 50.1844308,50.2881231 50.1844308,50.2881231 L52.2742769,49.1312 C55.2558154,47.3330462 58.9253538,46.4801231 62.8896615,46.8512 C63.9241231,46.9484308 64.9425846,47.0198154 65.9222769,47.2167385 L70.1585846,47.9010462" id="Fill-19" fill="#23324E"></path>
            <path d="M70.2908923,46.8524308 L65.9604308,46.2247385 C64.9801231,46.0265846 63.9665846,45.9521231 62.9315077,45.8555077 C58.6305846,45.4530462 54.7241231,46.6013538 51.5721231,48.6124308 C51.2619692,48.8105846 50.6853538,49.1392 50.4065846,49.5675077 C50.2379692,49.8265846 50.1844308,50.2881231 50.1844308,50.2881231 L52.2742769,49.1312 C55.2558154,47.3330462 58.9253538,46.4801231 62.8896615,46.8512 C63.9241231,46.9484308 64.9425846,47.0198154 65.9222769,47.2167385 L70.1585846,47.9010462" id="Stroke-20" stroke="#23324E"></path>
            <path d="M22.1110769,50.1609846 C21.2181538,47.7892923 39.8156923,45.4219077 41.7381538,48.0305231 C41.7381538,48.0305231 46.1190769,50.3142154 43.6421538,59.8465231 C43.2526154,61.3456 41.6218462,65.8619077 41.6218462,65.8619077 C41.6218462,65.8619077 43.5006154,69.2243692 47.1886154,69.2120615 C51.0895385,69.1985231 52.3615385,65.0902154 52.3615385,65.0902154 C52.0544615,63.4065231 49.9190769,60.5382154 49.8335385,58.9474462 C49.8335385,58.9474462 49.6150769,57.5486769 49.6501538,56.9056 L50.2003077,49.9406769" id="Stroke-21" stroke="#23324E" stroke-width="1.129"></path>
        </g>
    </g>
</svg>