<?xml version="1.0" encoding="UTF-8"?>
<svg width="130px" height="130px" viewBox="0 0 130 130" version="1.1" xmlns="http://www.w3.org/2000/svg" xmlns:xlink="http://www.w3.org/1999/xlink">
    <!-- Generator: Sketch 42 (36781) - http://www.bohemiancoding.com/sketch -->
    <title>murad</title>
    <desc>Created with Sketch.</desc>
    <defs></defs>
    <g id="Page-1" stroke="none" stroke-width="1" fill="none" fill-rule="evenodd">
        <g id="murad" transform="translate(30.000000, 1.000000)">
            <path d="M67.927432,75.6561962 C67.927432,91.0132422 56.2353067,103.462638 41.8122229,103.462638 C27.3895585,103.462638 15.6974332,91.0132422 15.6974332,75.6561962 C15.6974332,60.2995674 27.3895585,47.8505929 41.8122229,47.8505929 C56.2353067,47.8505929 67.927432,60.2995674 67.927432,75.6561962" id="Fill-1" fill="#F0F0F0"></path>
            <path d="M52.2299989,75.5143111 C52.2299989,90.8709399 40.5378735,103.319914 26.1147897,103.319914 C11.6921254,103.319914 0,90.8709399 0,75.5143111 C0,60.1576823 11.6921254,47.7082864 26.1147897,47.7082864 C40.5378735,47.7082864 52.2299989,60.1576823 52.2299989,75.5143111" id="Fill-2" fill="#F0090B"></path>
            <path d="M64.2613133,65.4026693 C72.5389019,42.9741195 64.6177805,6.69291457 64.3758022,5.13753021 C64.0184962,2.84174749 62.7574409,1.88180016 62.7574409,1.88180016 C53.1865053,7.00474996 51.6851492,42.224029 49.0179355,55.7147022 C48.3091948,59.2991236 46.0248688,66.2644306 44.7893953,69.7017837 C40.6560529,81.1992388 25.7477543,115.31698 52.191752,120.986064 C58.5414819,122.347183 63.6314147,118.761919 63.6314147,118.761919 C63.6314147,118.761919 46.9533611,113.313227 56.0956973,83.3420537 C57.1487435,79.8899516 61.8994033,71.8024586 64.2613133,65.4026693" id="Fill-3" fill="#E0E0E0"></path>
            <path d="M13.0611692,6.82738305 C13.0611692,6.82738305 10.6015453,38.3337139 15.350947,50.2281271 C20.1011875,62.1225402 53.7097573,49.344453 53.7097573,49.344453 C53.7097573,49.344453 59.1595123,4.31710815 62.5656615,2.26320856 C65.9722302,0.21015177 28.7302108,-3.21287374 13.0611692,6.82738305" id="Fill-4" fill="#E0E0E0"></path>
            <path d="M28.2641152,89.8430209 C24.0594793,89.8388069 18.6147568,88.5341551 16.0855169,82.4697995 C14.3275044,78.2553863 15.6426588,66.7069419 15.6426588,66.7069419 C15.5541711,52.4130818 19.6904491,47.5050456 34.1412115,46.6622472 L34.2137631,46.6622472 C48.6649491,47.5050456 52.8008077,52.4130818 52.7127394,66.7069419 C52.7127394,66.7069419 54.0274744,78.2271526 52.2694619,82.4415658 C49.8530334,88.2358044 44.7756818,89.7098588 40.6603682,89.8274291 L28.2641152,89.8430209 Z" id="Fill-5" fill="#F0F0F0"></path>
            <path d="M13.8999157,8.09158058 C13.8999157,8.09158058 11.4402917,39.5979114 16.1896934,51.4923246 C20.9399339,63.3867378 54.5485037,50.6086505 54.5485037,50.6086505 C54.5485037,50.6086505 59.9982587,5.58130568 63.404408,3.52740609 C66.8109766,1.4743493 29.5689573,-1.94867621 13.8999157,8.09158058" id="Fill-6" fill="#FFFFFF"></path>
            <path d="M33.2353276,29.0415671 C25.5771533,29.0415671 16.9074507,31.6121021 12.9246632,37.6692938 C10.5401071,41.2958551 11.3230769,46.3518025 11.0672593,51.7819523 C10.9078974,55.1750584 10.3740353,62.6776494 11.6808023,65.5772971 C11.6808023,65.5772971 32.835665,55.3608955 54.789853,65.5772971 C56.840588,66.5313449 55.5631772,55.1750584 55.4038154,51.7819523 C55.1484171,46.3518025 55.9301288,41.2958551 53.545992,37.6692938 C49.5632046,31.6121021 40.8964376,29.0415671 33.2353276,29.0415671" id="Fill-7" fill="#23324E"></path>
            <path d="M35.9219583,121.440757 C34.6130945,123.469795 34.9754329,126.042436 36.731768,127.186113 C38.488103,128.32979 40.9728893,127.612569 42.2817532,125.583111 C43.5910364,123.554495 43.2282785,120.981854 41.4719435,119.837755 C39.7160278,118.694078 37.2308221,119.411299 35.9219583,121.440757" id="Fill-8" fill="#23324E"></path>
            <path d="M34.1426793,114.984796 C32.8338155,117.013833 33.196154,119.586053 34.952489,120.729731 C36.7088241,121.873829 39.193191,121.156187 40.5024742,119.12715 C41.8117574,117.098113 41.4489996,114.525892 39.6922452,113.381793 C37.9363295,112.237694 35.4519625,112.955337 34.1426793,114.984796" id="Fill-9" fill="#23324E"></path>
            <path d="M32.0458132,107.82101 C30.7369494,109.850047 31.0992879,112.422267 32.8556229,113.565945 C34.611958,114.710043 37.0963249,113.992401 38.4056081,111.963364 C39.7148913,109.934327 39.3521335,107.362106 37.5953791,106.218007 C35.8394634,105.073908 33.3550964,105.791551 32.0458132,107.82101" id="Fill-10" fill="#23324E"></path>
            <path d="M38.7557848,107.82101 C37.4469209,109.850047 37.8092594,112.422267 39.5655944,113.565945 C41.3219295,114.710043 43.8063006,113.992401 45.1155838,111.963364 C46.424867,109.934327 46.0621092,107.362106 44.3053548,106.218007 C42.5494391,105.073908 40.0650679,105.791551 38.7557848,107.82101" id="Fill-11" fill="#23324E"></path>
            <path d="M45.4657605,108.663808 C44.1568966,110.692845 44.5192351,113.265066 46.2755701,114.408743 C48.0319052,115.552842 50.5162721,114.835199 51.8255553,112.806162 C53.1348385,110.777125 52.7720807,108.204904 51.0153263,107.060806 C49.2594106,105.916707 46.7750436,106.63435 45.4657605,108.663808" id="Fill-12" fill="#23324E"></path>
            <path d="M40.9544369,115.541169 C39.6455731,117.570206 40.0079116,120.142848 41.7642466,121.286525 C43.5205817,122.430203 46.005368,121.712981 47.3142318,119.683523 C48.623515,117.654907 48.2607572,115.082265 46.5044221,113.938167 C44.7485064,112.794489 42.2633007,113.511711 40.9544369,115.541169" id="Fill-13" fill="#23324E"></path>
            <path d="M36.2395454,101.078623 C34.9306816,103.10766 35.2930201,105.67988 37.0493551,106.823558 C38.8056902,107.967657 41.2900571,107.250014 42.5993445,105.220977 C43.9086277,103.19194 43.5458699,100.619719 41.7891112,99.4756203 C40.0331956,98.3315216 37.5488286,99.0491644 36.2395454,101.078623" id="Fill-14" fill="#23324E"></path>
            <path d="M43.7882676,102.34282 C42.4794038,104.371857 42.8417422,106.944078 44.5980773,108.087755 C46.3544123,109.231854 48.8387793,108.514211 50.1480625,106.485174 C51.4573456,104.456137 51.0945878,101.883917 49.3378334,100.739818 C47.5819177,99.5957191 45.0975508,100.313362 43.7882676,102.34282" id="Fill-15" fill="#23324E"></path>
            <path d="M16.9242256,77.8344086 C15.1666325,73.6199954 16.4813675,62.1886999 16.4813675,62.1886999 C16.4742382,61.0783131 16.496465,60.0319789 16.5434348,59.0336843 C10.5132672,59.0109287 7.70933789,67.9997946 7.70933789,67.9997946 C9.93579031,67.3824448 12.1622427,68.5396069 12.1622427,68.5396069 C12.1622427,68.5396069 10.9338986,69.7738851 10.6269174,71.3941649 C10.3643897,72.7780398 10.780408,77.0261649 10.780408,77.0261649 L13.3905869,76.254583 L14.8005197,80.6244925 L16.7690575,84.2780234 C16.7690575,84.2780234 18.0963738,83.0757715 19.5423726,81.7837616 C18.5111339,80.7702966 17.6099009,79.4787081 16.9242256,77.8344086" id="Fill-16" fill="#23324E"></path>
            <path d="M51.4260604,78.6772069 C53.1836536,74.4627937 51.8689185,63.0314983 51.8689185,63.0314983 C51.8760479,61.9211114 51.8538211,60.8747773 51.8068513,59.8764826 C57.8370188,59.8537271 60.6409481,68.8425929 60.6409481,68.8425929 C58.4144957,68.2252431 56.1880433,69.3824053 56.1880433,69.3824053 C56.1880433,69.3824053 57.4163875,70.6166835 57.7233687,72.2369633 C57.9858963,73.6208382 57.5698781,77.8689633 57.5698781,77.8689633 L54.9596991,77.0973814 L53.5497664,81.4672909 L51.5812285,85.1208217 C51.5812285,85.1208217 50.2539123,83.9185699 48.8079134,82.62656 C49.8391521,81.613095 50.7403852,80.3215065 51.4260604,78.6772069" id="Fill-17" fill="#23324E"></path>
            <polygon id="Fill-18" fill="#23324E" points="38.6151312 53.8259068 26.5497636 53.8259068 24.4210252 12.9501867 40.744289 12.9501867"></polygon>
            <polygon id="Fill-19" fill="#23324E" points="37.6520825 49.6119151 27.5128962 49.6119151 25.72385 15.4785817 39.441548 15.4785817"></polygon>
            <path d="M21.7113709,78.954909 L21.697951,78.9793501 C21.5620741,78.9511164 21.4274553,78.9093979 21.2899009,78.8971773 C19.4492718,78.7315674 19.104547,79.1251542 19.5721481,80.8571049 C19.5780194,80.8790176 19.6396672,80.8861814 19.6870564,80.9051444 L19.9118405,81.5625271 C19.8179009,81.4141946 19.6769915,81.2738686 19.5830519,81.3008382 C18.8189538,81.519123 18.0519202,81.7382505 17.3087909,82.0180596 C16.7011191,82.2468793 16.4130097,82.6901913 16.6986028,83.3614802 C16.8734815,83.7723444 16.8042849,84.0479394 16.3761048,84.2953007 C16.1685151,84.4149781 16.0246701,84.774853 15.9936365,85.0428629 C15.9508604,85.408216 16.0435419,85.7895822 16.0779305,86.1637847 L16.0892536,86.1309156 C15.6006838,86.4368514 15.1225983,86.7617501 14.6210279,87.0436662 C14.0011943,87.3917419 13.8640593,87.9058489 14.3807271,88.3276695 C15.1246952,88.9344843 15.8720182,89.5766966 16.9569368,89.4313139 C17.4199248,89.3689468 17.895494,89.3466127 18.3609983,89.3769534 C18.7204011,89.4005518 19.0722553,89.5349781 19.4274644,89.6205221 C18.0519202,90.2534637 16.7929618,90.8253024 16.1601276,92.266909 C16.405461,92.377737 16.5933402,92.4628596 16.8445447,92.5766374 C15.8757926,93.5627114 14.9443647,94.5100168 13.9600957,95.512104 C14.6688365,95.8037123 15.5893607,95.6920415 15.0693379,96.7573386 C15.2165379,96.8913435 15.3675123,97.0291411 15.4895499,97.1408119 C15.214441,97.8238999 14.842457,98.4387213 14.7258712,99.0990538 C14.4591499,100.608927 14.0821333,100.363251 15.5201641,101.024005 C15.5524558,101.038754 15.5637789,101.099014 15.6535248,101.26336 C15.3192843,101.721842 14.9393322,102.243956 14.5589607,102.766069 C15.1049846,103.054307 15.5495202,103.219916 15.575102,103.435673 C15.7130758,104.599999 15.7529162,105.776545 15.813306,106.94972 C15.8309197,107.288525 15.8044991,107.629437 15.7965311,108.061793 C16.1727088,107.941694 16.4348171,107.8532 16.6994416,107.774399 C17.6480638,107.491218 18.5903954,107.009981 19.5478245,106.977111 C21.0017915,106.926544 22.1689071,106.67244 22.7832889,105.178158 C22.8868741,104.927004 23.1607248,104.591149 23.6451009,104.856631 C24.3467123,105.240525 24.6578872,105.01297 24.7694405,104.220739 C24.8772194,103.456321 25.0399362,102.69991 25.1787487,101.940127 C25.2982701,101.557497 25.4182108,101.174866 25.5381516,100.792236 C25.6463499,100.656967 25.7570644,100.523383 25.8623271,100.385586 C26.1584046,99.9970555 26.4528046,99.605997 26.8512091,99.0796695 C27.2802279,99.9502802 27.1539966,100.550353 26.8554028,101.165174 C26.4687407,101.959933 26.1147897,102.771126 25.7469994,103.575156 L25.763355,103.544815 C25.3704023,104.249395 24.9648684,104.947653 24.5912068,105.662767 C24.4645561,105.905493 24.3005812,106.394738 24.3530028,106.4255 C24.8755419,106.730172 24.4771373,107.078669 24.4502974,107.402725 C24.4364581,107.563278 24.4347806,107.724674 24.4276513,107.885648 L24.4377162,107.851515 C24.4519749,108.565365 24.453233,109.280058 24.4922348,109.992223 C24.4989447,110.1119 24.6608228,110.22947 24.7635692,110.335663 C24.8935749,110.469668 25.1254883,110.570804 25.1598769,110.721243 C25.3838222,111.701839 25.5662496,112.691706 25.7990017,113.862774 C26.3773174,112.761658 27.3536182,112.44898 28.3190154,112.114389 C28.399535,112.086576 28.459086,111.99134 28.5232501,111.922231 C29.0617254,111.34365 29.5284877,111.360506 29.8396627,112.107225 C30.0963191,112.722046 30.1994849,113.422833 30.2561003,114.094965 C30.3320068,114.988753 30.5488228,115.145513 31.3234051,114.701358 C32.405388,114.080637 33.2617481,114.34654 33.7519954,115.464934 C34.0967202,116.251265 34.6335179,116.815097 35.397616,117.238603 C35.8421516,117.4847 36.2162325,117.93644 36.5039225,118.373852 C37.0075897,119.14122 37.3896387,119.988654 37.8853379,120.762343 C38.1159932,121.122639 38.4930097,121.38812 38.8666712,121.758952 C38.938384,120.81881 38.9819989,120.069984 39.0562279,119.324529 C39.1254245,118.631748 39.2277516,117.941918 39.3154006,117.250823 C39.5997356,116.119788 39.8836513,114.988753 40.1679863,113.857717 C40.6523624,113.71697 40.8121436,113.431683 40.8536615,112.892292 C40.9245356,111.965635 40.9551499,110.932364 42.1453311,110.546784 C42.1352661,110.395502 42.1419761,110.231577 42.1113618,110.074817 C41.9574519,109.286379 41.7477652,108.505948 41.6454382,107.711189 C41.5439499,106.921908 41.7645402,106.781582 42.5206701,106.930758 C43.0469835,107.034843 43.5875556,107.066869 44.1214177,107.130922 C44.3940103,107.163791 44.6661835,107.197082 44.9786165,107.234586 C44.7710268,106.274639 44.5932125,105.452911 44.4103658,104.608427 C44.7462838,104.529625 44.9547123,104.480321 45.1195259,104.441553 C44.8494496,103.838109 44.598245,103.277227 44.3470405,102.716344 C44.4250439,102.66072 44.5034667,102.605516 44.5818895,102.550313 C44.9979077,103.034079 45.4332171,103.503097 45.8261698,104.005404 C46.5286199,104.903406 47.2491031,105.776124 48.362539,106.176874 C48.526514,106.236292 48.7458462,106.185724 48.9278541,106.139791 C49.1698325,106.078267 49.4059396,105.884002 49.634498,105.899172 C50.4245972,105.951847 51.2105026,106.07026 52.1125744,106.177296 C52.0823795,105.83217 52.0618302,105.591551 52.0396034,105.350932 C51.9393732,104.261194 51.501967,103.098553 52.6971806,102.287781 C52.7231818,102.270083 52.7139556,102.20013 52.7328274,102.081296 C52.3591658,101.700772 51.9540513,101.288644 51.5493561,100.876937 C51.3811875,100.501892 51.0066872,100.057737 51.1014655,99.7707641 C51.2058895,99.4538719 51.736816,99.2726703 52.0920251,99.0489073 C52.221192,98.9675773 52.3788764,98.9330226 52.5206245,98.8782407 C51.7573652,97.8972234 51.0184296,96.9473896 50.1306165,95.8062407 C51.0893037,95.5007263 51.7988832,95.2714851 52.5105595,95.0485649 C52.8263476,94.9495361 53.1652011,94.8146884 52.9123191,94.4211016 C52.2555806,93.3992086 51.7468809,92.2525814 50.5827009,91.6428168 C50.0777755,91.3785995 49.7104046,90.9879625 50.5030199,90.302346 C49.9368661,90.2783263 49.5837538,90.2631559 49.2302222,90.2484069 C48.9936957,90.1712909 48.7622017,90.0621485 48.5193846,90.0238012 C48.0836558,89.9546917 47.6345071,89.9593271 47.2038108,89.8708333 C46.9970598,89.8278505 46.819665,89.6420135 46.6292695,89.5210719 C46.7609527,89.3133221 46.847763,88.9968514 47.0335453,88.9197353 C47.4558541,88.7440119 47.9213584,88.6420333 48.3788946,88.5876728 C50.0979054,88.384137 51.8206906,88.2117847 53.6185436,88.0196267 C53.3228855,86.8852201 53.2000091,85.8688053 52.788604,84.988081 C52.3763601,84.1065139 51.6755875,83.3614802 51.0804969,82.5266884 C51.2511818,82.4263954 51.4235442,82.3252596 51.6114234,82.214853 C51.5346781,82.0526143 51.4889664,81.9165024 51.4130598,81.801039 C50.8515191,80.9510769 50.0027077,80.4925946 49.0846997,80.1706456 C48.5386758,79.978909 48.5848068,79.7066851 48.8351726,79.324476 C48.9781789,79.1057699 49.1174108,78.8841139 49.3308718,78.5507872 C48.5969687,78.4981123 48.0207499,78.4243674 47.4445311,78.4247888 C46.8611829,78.4252102 46.2677698,78.5844991 45.6978416,78.515811 C45.1761413,78.4526012 44.6796034,78.1778489 43.9989607,77.9347016 C43.9201185,77.6848119 43.7674667,77.2027312 43.6030724,76.6814604 C43.2856068,76.9385139 41.5661766,77.6852333 41.2981972,77.8626423 C41.2981972,77.8626423 40.9438268,82.1352086 35.4642963,84.1199987 C35.2889983,84.1832086 33.9788764,84.1111493 33.2973949,83.9792514 L30.0824798,82.7150538 C30.0824798,82.7150538 27.9696775,81.6843114 26.8000456,79.9970291 C26.1475009,79.0556234 26.1080798,77.8318802 26.124016,76.6565979 C25.6291556,76.5992876 24.8000547,76.7113798 25.0068057,78.5630077 C25.0235806,78.71429 24.8164103,78.8908563 24.7132444,79.0560448 C24.4922348,78.9473238 24.1961573,78.6873205 24.0627966,78.754323 C23.2907305,79.1432744 22.4943407,79.0130621 21.697951,78.9793501 C21.5620741,78.9511164 21.4274553,78.9093979 21.2899009,78.8971773 C19.4492718,78.7315674 19.104547,79.1251542 19.5721481,80.8571049 C19.5780194,80.8790176 19.6396672,80.8861814 19.6870564,80.9051444" id="Fill-20" fill="#23324E"></path>
            <path d="M24.0627966,78.7577878 C24.1961573,78.6702523 24.4922348,79.0093835 24.7132444,79.1514222 L24.7128251,79.1525232" id="Fill-21" fill="#000000"></path>
            <path d="M42.3262906,100.834839 C41.5852581,99.9241956 40.8408707,99.0165017 40.1057094,98.1016441 C39.8964422,97.8416408 39.7135954,97.5605676 39.4707783,97.2226054 C40.4642735,96.9524886 40.9071316,97.5854301 41.2652764,98.0961659 C41.8704319,98.9579272 42.3275487,99.924617 42.9209618,100.978536 C42.6093675,100.897628 42.4521026,100.857173 42.2948376,100.816298 L42.3262906,100.834839 Z" id="Fill-22" fill="#FFFFFF"></path>
            <path d="M31.7587103,87.1946956 C27.0441166,87.0952454 25.3586556,92.737359 24.7774044,97.5392026 L24.7086271,98.1068273 C24.0363719,103.723657 23.116267,111.414192 14.7350932,111.828849 C10.544716,112.036177 6.38411432,109.704575 4.38202658,106.029132 C2.49191315,102.55891 3.04045332,98.9635319 5.84941347,96.4128026 C8.67221461,93.8481672 13.2727388,94.1077491 15.9160482,95.8186298 C18.2938944,97.358001 18.8780813,99.7890528 17.4790522,102.323769 C16.9141565,103.347347 15.3289257,105.6642 12.8231707,105.072556 C11.2761029,104.707203 10.0012083,103.240733 9.98191717,101.803341 C9.96514225,100.581283 10.8571491,99.6908668 12.3681508,99.4203286 L12.636969,100.398396 C11.6237633,100.580019 11.0932562,101.076849 11.1037405,101.835789 C11.1171605,102.819756 12.0158773,103.861454 13.0655685,104.108816 C14.2955901,104.399581 15.503385,103.597659 16.4671046,101.852223 C17.6220585,99.7595549 17.1905234,97.851038 15.2823753,96.6163384 C13.0118887,95.1460767 9.00855193,95.0002726 6.66844937,97.1262314 C4.19289093,99.374396 3.71396671,102.552167 5.3885223,105.626274 C6.88316846,108.370004 10.3178351,111.043361 14.6227012,110.830554 C22.0955126,110.460566 22.9258716,103.526021 23.5922556,97.953438 L23.6610328,97.3794923 C24.0175001,94.4389689 24.6608186,92.0188734 25.5737941,90.2321409 C26.9459833,87.5452998 28.9250055,86.0775664 31.4655685,86.1310841 L38.2334135,86.2739384 C40.7739764,86.3274561 42.8242963,87.8807335 44.325233,90.6278347 C45.3233413,92.4550216 46.0815681,94.8932372 46.5772672,97.8518808 L46.6737231,98.4350973 C47.6043123,104.040971 48.7634598,111.020605 56.2610142,111.706643 C60.5805584,112.101494 63.8923487,109.571835 65.2586667,106.888365 C66.7893789,103.882103 66.1598997,100.681998 63.5753026,98.3267977 C61.1320342,96.099703 57.1320524,96.0769475 54.9286655,97.4528158 C53.0767134,98.6082923 52.7353436,100.500796 53.9905276,102.644032 C55.0377026,104.432029 56.2849185,105.285784 57.502359,105.04685 C58.5411464,104.843315 59.3916353,103.83912 59.3585048,102.85431 C59.3329231,102.095371 58.7785117,101.575364 57.7556604,101.350758 L57.9783476,100.382804 C59.503608,100.717817 60.4388103,101.647002 60.4799088,102.869481 C60.5285561,104.307295 59.3216,105.721089 57.790049,106.021547 C55.3098758,106.508263 53.6135111,104.121879 52.9999681,103.073438 C51.4793208,100.477198 51.9494382,98.0680586 54.2568296,96.6277162 C56.8217162,95.0268207 61.4146917,94.9610825 64.3616274,97.6475022 C67.2938849,100.319594 68.01311,103.941099 66.2848729,107.334627 C64.4547282,110.929583 60.4002279,113.086304 56.1960114,112.701988 C47.7867396,111.932513 46.5021994,104.193517 45.5632228,98.5425541 L45.4680251,97.9761936 C44.6590541,93.144852 42.7047749,87.4256224 37.990177,87.3261722 L31.7587103,87.1946956 Z" id="Fill-23" fill="#23324E"></path>
            <path d="M31.9684003,87.4053952 C27.2538066,87.305945 25.5683456,92.9480586 24.9870943,97.7499022 L24.9183171,98.3175269 C24.2460618,103.934357 23.325957,111.624892 14.9447832,112.039548 C10.754406,112.246877 6.59380429,109.915275 4.59171654,106.239831 C2.70160144,102.769609 3.25014161,99.1742314 6.05910343,96.6235022 C8.88190457,94.0588668 13.4824288,94.3184487 16.1257382,96.0293294 C18.5035843,97.5687006 19.0877712,99.9997524 17.6887422,102.534468 C17.1238465,103.558047 15.5386157,105.8749 13.0328607,105.283255 C11.4857929,104.917902 10.2108983,103.451433 10.1916071,102.01404 C10.1748322,100.791983 11.066839,99.9015664 12.5778408,99.6310281 L12.846659,100.609096 C11.8334533,100.790719 11.3029462,101.287548 11.3134305,102.046488 C11.3268504,103.030455 12.2255673,104.072154 13.2752584,104.319515 C14.5052801,104.610281 15.7130749,103.808358 16.6767946,102.062923 C17.8317484,99.9702545 17.4002134,98.0617376 15.4920653,96.827038 C13.2215786,95.3567763 9.2182419,95.2109722 6.87813933,97.336931 C4.40257922,99.5850956 3.923655,102.762867 5.59821227,105.836974 C7.09285842,108.580704 10.5275251,111.25406 14.8323912,111.041254 C22.3052026,110.671265 23.1355616,103.73672 23.8019456,98.1641376 L23.8707228,97.5901919 C24.22719,94.6496685 24.8705086,92.229573 25.7834841,90.4428405 C27.1556732,87.7559993 29.1346955,86.288266 31.6752584,86.3417837 L38.4431034,86.484638 C40.9836664,86.5381557 43.0339821,88.0914331 44.5349188,90.8385343 C45.5330271,92.6657212 46.2912539,95.1039368 46.786953,98.0625804 L46.8834088,98.6457969 C47.813998,104.25167 48.9731456,111.231305 56.4707,111.917343 C60.7902442,112.312194 64.1020345,109.782534 65.4683524,107.099064 C66.9990647,104.092803 66.3695855,100.892697 63.7849883,98.5374973 C61.34172,96.3104026 57.3417382,96.2876471 55.1383513,97.6635154 C53.2863992,98.8189919 52.9450294,100.711496 54.2002134,102.854732 C55.2473883,104.642729 56.4946043,105.496483 57.7120447,105.25755 C58.7508322,105.054014 59.6013211,104.04982 59.5681906,103.06501 C59.5426088,102.30607 58.9881975,101.786064 57.9653462,101.561458 L58.1880333,100.593504 C59.7132937,100.928516 60.648496,101.857701 60.6895946,103.08018 C60.7382419,104.517994 59.5312858,105.931789 57.9997348,106.232246 C55.5195616,106.718962 53.8231969,104.332579 53.2096539,103.284138 C51.6890066,100.687897 52.1591239,98.2787582 54.4665154,96.8384158 C57.031402,95.2375203 61.6243775,95.1717821 64.5713131,97.8582018 C67.5035707,100.530294 68.2227957,104.151799 66.4945587,107.545326 C64.664414,111.140282 60.6099137,113.297003 56.4056972,112.912687 C47.9964254,112.143213 46.7118852,104.404217 45.7729086,98.7532537 L45.6777108,98.1868932 C44.8687399,93.3555516 42.9144607,87.636322 38.199867,87.5368718 L31.9684003,87.4053952 L31.9684003,87.4053952 Z" id="Stroke-24" stroke="#23324E"></path>
            <path d="M45.8348508,98.0135717 L45.7388144,97.4303552 C45.2426958,94.4717116 44.4848884,92.033496 43.4863608,90.2063091 C41.985424,87.4592079 39.9351084,85.9063519 37.3945454,85.8528342 L30.6271198,85.7099799 C28.0861374,85.6560408 26.1075346,87.1241956 24.734926,89.8106153 C23.8219505,91.5973478 23.178632,94.0174433 22.8225842,96.9583881 L22.7533876,97.5319124 L23.8697591,97.6853017 L23.9385363,97.117677 C24.5197876,92.3162548 26.2056679,86.6737198 30.9198423,86.77317 L37.1517283,86.905068 C41.8659027,87.0045182 43.8201819,92.7233264 44.6291528,97.554668 L44.7247699,98.1214499 L45.8348508,98.0135717 Z" id="Fill-25" fill="#F0F0F0"></path>
            <path d="M45.8348508,98.4349709 L45.7388144,97.8517544 C45.2426958,94.8931108 44.4848884,92.4548951 43.4863608,90.6277083 C41.985424,87.8806071 39.9351084,86.3277511 37.3945454,86.2742334 L30.6271198,86.1313791 C28.0861374,86.07744 26.1075346,87.5455947 24.734926,90.2320145 C23.8219505,92.018747 23.178632,94.4388425 22.8225842,97.3797873 L22.7533876,97.9533116 L23.8697591,98.1067009 L23.9385363,97.5390762 C24.5197876,92.737654 26.2056679,87.095119 30.9198423,87.1945692 L37.1517283,87.3264672 C41.8659027,87.4259174 43.8201819,93.1447256 44.6291528,97.9760672 L44.7247699,98.5428491 L45.8348508,98.4349709 Z" id="Fill-26" fill="#23324E"></path>
            <path d="M45.7452727,71.2341175 C43.6001787,74.4991184 38.3622072,73.06299 38.3622072,73.06299 C38.3622072,73.06299 40.0120214,71.9568171 40.476687,71.4886426 C41.2303006,70.7309669 41.0969399,70.0697916 40.9371587,69.6778904 C40.7970881,69.3336072 40.5270117,69.1351282 40.5270117,69.1351282 C39.8061092,68.5944731 37.6735964,67.0782788 37.6735964,67.0782788 L39.0948522,65.071576 C39.0948522,65.071576 41.1720077,66.6969126 41.9327508,67.1326393 C42.3311553,67.3606163 43.0654778,67.627362 43.7327006,66.7761356 C44.7282926,65.5060385 44.6670642,63.7201488 44.6670642,63.7201488 C44.6670642,63.7201488 48.2841582,67.3698871 45.7452727,71.2341175" id="Fill-27" fill="#23324E"></path>
            <path d="M44.4384219,61.4882081 L44.3574828,61.5720665 L41.239443,64.8299035 L41.460872,65.5205768 L41.0184333,65.6638525 L40.6061894,66.1695315 C40.6061894,66.1695315 36.4514589,72.1226377 35.422317,73.6405175 C35.278472,73.8524813 35.106529,74.1440895 34.9551353,74.4719381 C34.9505222,74.4740451 34.9459091,74.4753093 34.941296,74.4774163 L35.1669187,74.9750887 C36.866219,74.244804 38.629264,74.5600105 39.8836093,75.8170443 C41.0695968,77.0058114 41.001239,78.9400336 40.1935262,80.0011167 C39.5149803,80.8927974 38.4581598,81.0516649 37.2943991,80.4376863 C36.3235501,79.9256863 35.8752401,79.3197142 36.0325051,78.7318624 C36.1662851,78.229976 36.7408264,77.8220616 37.286431,77.8414459 C37.7070623,77.8561949 37.984268,78.1258904 38.0882726,78.6214558 L38.6296834,78.5169488 C38.4749347,77.778236 37.9783968,77.3231249 37.3006897,77.2991052 C36.5042999,77.2708714 35.6949096,77.8498739 35.4973848,78.5894295 C35.1774031,79.7870459 36.4669757,80.6150953 37.0360652,80.9151315 C37.8924253,81.3668714 38.723623,81.3411661 39.4352994,81.0980188 C38.0941438,82.6386542 36.1868344,83.7452484 34.5332458,83.7452484 L34.5223421,83.7452484 C32.4212823,83.7452484 28.5643068,81.9003628 27.0583375,79.7390064 C26.4062122,78.802236 26.2304948,77.8583019 26.5362179,77.0079184 C27.1757621,75.2262426 31.0373507,71.0080369 32.65697,70.3687743 L32.4653165,69.8989142 C30.7274338,70.5853735 26.7274521,74.9936303 26.043035,76.8996188 C25.6811159,77.9063414 25.8836732,78.913064 26.6288994,79.9829965 C28.2640356,82.3306114 32.2833085,84.1666476 34.521084,84.1666476 L34.5311489,84.1666476 C36.3382281,84.1666476 38.7705928,82.7650739 40.2891432,80.5927612 C40.4128583,80.4802476 40.5294441,80.4119809 40.6376424,80.2699694 C41.5778772,79.0352698 41.7074635,76.8435727 40.2765621,75.4099727 C39.1769655,74.3075924 37.7355797,73.8600665 36.2518373,74.0859365 C37.283076,72.5204385 37.9905586,71.6835398 41.4134828,66.6886953 L41.7334646,66.123599 L41.7066247,65.6592171 L42.4279467,65.61792 L44.4384219,61.4882081 Z" id="Fill-28" fill="#23324E"></path>
            <path d="M17.8456305,65.472748 C18.0414778,65.6914542 20.8345035,67.1667727 20.9129263,67.6652879 C21.0488032,67.9063282 21.1695827,68.1579035 21.274426,68.4141142 C21.3964636,68.7116221 21.495855,69.0184007 21.6011177,69.3222295 C21.722736,69.6719908 21.8313536,70.0263875 21.9626174,70.3723562 C22.1140112,70.772264 22.3257946,71.1418311 22.5799348,71.4852714 C22.8462368,71.8451463 23.1595086,72.1603529 23.5256214,72.4174064 C23.9005411,72.6807809 24.306075,72.8847381 24.7434813,73.0233784 C24.7925479,73.0389702 24.8370015,73.0709965 24.8801969,73.1004945 C25.3213775,73.4017949 25.7952693,73.633143 26.3052271,73.7920105 C26.770312,73.9369719 27.2446231,73.9930179 27.7289992,73.944557 C28.2238596,73.8956747 28.6792989,73.7321719 29.0823166,73.4359282 C29.4329126,73.1784533 29.7092795,72.8552402 29.9126756,72.4671315 C30.074973,72.1578245 30.1928169,71.8333472 30.2649491,71.493278 C30.3333069,71.1721719 30.3467268,70.8468517 30.327855,70.5185817 C30.3039508,70.1064533 30.2234311,69.7061241 30.1013935,69.3125373 C29.962581,68.8637472 29.7717662,68.438134 29.5402721,68.0310624 C29.1808693,67.3989636 28.7375918,66.8309175 28.2112784,66.3307167 C27.8757798,66.0117175 27.5138607,65.7239019 27.1104237,65.4950821 C26.9061889,65.3791974 26.6906311,65.2831184 26.5660773,65.2211727 C25.984826,64.9902459 25.4819975,64.8322212 24.9594585,64.7470986 C24.4830505,64.6695612 24.0058038,64.5949735 23.5268795,64.5351348 C23.1263781,64.4845669 22.7229411,64.4580188 22.3211815,64.41925 C21.9479394,64.3830097 21.5746972,64.3455052 21.201455,64.3067365 C20.7602744,64.2612253 20.3241263,64.1836879 19.8909137,64.0897159 C19.5445115,64.0147068 19.2165616,63.8895513 18.9062254,63.7201488 L17.8456305,65.472748 Z" id="Fill-29" fill="#23324E"></path>
            <path d="M19.6449513,65.8174947 C19.6663394,65.7353218 19.6814368,65.6497778 19.6868887,65.5650765 C19.6952761,65.4340214 19.6327895,65.3446848 19.52543,65.2641975 C19.3627132,65.1419918 19.1941251,65.0147292 19.0695713,64.8567045 C18.8590459,64.5899588 18.9093707,64.2886584 19.1664465,64.0598387 C19.2033513,64.0273909 19.3551644,63.9844082 19.4054892,63.9397399 C19.2192875,63.8525103 18.9458562,63.7513745 18.7789456,63.6637235 C17.8533889,63.1791144 16.9123154,62.7315885 15.9905331,62.2406584 C15.751071,62.1129745 15.5225126,61.9642206 15.2885023,61.8260016 C14.9961992,61.653228 14.8443861,61.3869037 14.7944807,61.0598979 C14.7538015,60.7944165 14.7244454,60.5272494 14.6963474,60.2600823 C14.6619587,59.9313909 14.454369,59.7286979 14.1972932,59.5677235 C13.9519599,59.4143342 13.6772704,59.366716 13.3916773,59.3924214 C13.0406619,59.4240263 12.7705855,59.7817942 12.8129422,60.1711671 C12.8720738,60.7194074 12.8272009,61.2592198 12.7068408,61.7952395 C12.6363861,62.1083391 12.4342482,62.34053 12.2467884,62.5845202 C12.0790391,62.8028049 11.9096123,63.0206683 11.7594767,63.2511737 C11.6366003,63.4399605 11.5837593,63.6586667 11.5900499,63.8866436 C11.601373,64.2962436 11.9008055,64.5950156 12.3231143,64.6413695 C12.6460317,64.6767671 12.947561,64.5992296 13.2436385,64.4917728 C13.5061662,64.396958 13.7619838,64.284023 14.022834,64.1845728 C14.3637844,64.0547819 14.7194129,64.0185416 15.0586858,64.1538107 C15.5912898,64.3661959 16.1209582,64.5916444 16.6338516,64.8486979 C17.1362607,65.1006947 17.5908613,65.3708115 18.0735599,65.6598914 C18.5193536,65.9270584 18.9819223,66.2355226 19.4205867,66.5149103 C19.4361035,66.5246025 19.452459,66.5330305 19.4499428,66.5317663 C19.5170425,66.2873547 19.5837228,66.0530568 19.6449513,65.8174947" id="Fill-30" fill="#23324E"></path>
            <path d="M17.9928725,65.1028859 C18.1887198,65.3215921 20.9817454,66.7969106 21.0601682,67.2954258 C21.1960451,67.5364662 21.3168246,67.7880415 21.4216679,68.0442522 C21.5437055,68.34176 21.643097,68.6485386 21.7483597,68.9523674 C21.8699779,69.3021287 21.9785956,69.6565254 22.1098594,70.0024942 C22.2612531,70.402402 22.4730366,70.7719691 22.7271768,71.1154094 C22.9934787,71.4752843 23.3067505,71.7904909 23.6728634,72.0475444 C24.047783,72.3109188 24.4533169,72.514876 24.8907232,72.6535164 C24.9397899,72.6691081 24.9842434,72.7011345 25.0274389,72.7306324 C25.4686195,73.0319328 25.9425112,73.263281 26.4524691,73.4221485 C26.917554,73.5671098 27.3918651,73.6231559 27.8762411,73.574695 C28.3711015,73.5258127 28.8265409,73.3623098 29.2295585,73.0660662 C29.5801545,72.8085913 29.8565215,72.4853781 30.0599175,72.0972695 C30.2222149,71.7879625 30.3400588,71.4634851 30.412191,71.123416 C30.4805488,70.8023098 30.4939688,70.4769896 30.475097,70.1487197 C30.4511927,69.7365913 30.370673,69.3362621 30.2486354,68.9426752 C30.1098229,68.4938851 29.9190081,68.0682719 29.6875141,67.6612003 C29.3281112,67.0291016 28.8848337,66.4610555 28.3585203,65.9608547 C28.0230218,65.6418555 27.6611027,65.3540398 27.2576656,65.1252201 C27.0534309,65.0093353 26.837873,64.9132563 26.7133192,64.8513106 C26.1320679,64.6203839 25.6292394,64.4623592 25.1067004,64.3772365 C24.6302924,64.2996991 24.1530457,64.2251114 23.6741215,64.1652728 C23.2736201,64.1147049 22.870183,64.0881567 22.4684235,64.049388 C22.0951813,64.0131477 21.7219391,63.9756431 21.348697,63.9368744 C20.9075164,63.8913633 20.4713682,63.8138258 20.0381557,63.7198538 C19.6917534,63.6448448 19.3638035,63.5196892 19.053048,63.3502867 L17.9928725,65.1028859 Z" id="Fill-31" fill="#23324E"></path>
            <path d="M19.7921933,65.4476326 C19.8135813,65.3654598 19.8286787,65.2799157 19.8341306,65.1952145 C19.8425181,65.0641593 19.7800315,64.9748227 19.6726719,64.8943355 C19.5099551,64.7721297 19.3413671,64.6448672 19.2168132,64.4868425 C19.0062879,64.2200968 19.0566126,63.9187964 19.3136884,63.6899766 C19.3501739,63.6575289 19.5024064,63.6145462 19.5527312,63.5698779 C19.3665295,63.4826482 19.0930981,63.3815124 18.9261876,63.2938614 C18.0006309,62.8092523 17.0595574,62.3617264 16.137775,61.8707964 C15.8983129,61.7431124 15.6697545,61.5943585 15.4357443,61.4561396 C15.1434411,61.2833659 14.991628,61.0170416 14.9417226,60.6900359 C14.9010434,60.4245544 14.8716873,60.1573873 14.8435893,59.8902202 C14.8092007,59.5615289 14.6016109,59.3588359 14.3445352,59.1978614 C14.0992018,59.0444721 13.8245124,58.996854 13.5389192,59.0225593 C13.1879038,59.0541643 12.9178275,59.4119322 12.9601842,59.801305 C13.0193158,60.3495453 12.9744428,60.8893577 12.8540827,61.4253774 C12.783628,61.738477 12.5814901,61.970668 12.3940303,62.2146581 C12.226281,62.4329429 12.0568542,62.6508063 11.9067186,62.8813116 C11.7838423,63.0700984 11.7310013,63.2888046 11.7372919,63.5167816 C11.7486149,63.9263816 12.0480474,64.2251536 12.4703562,64.2715075 C12.7932736,64.306905 13.094803,64.2293676 13.3908805,64.1219108 C13.6534081,64.027096 13.9092258,63.914161 14.1700759,63.8147108 C14.5110263,63.6849198 14.8666548,63.6486795 15.2059277,63.7839486 C15.7385317,63.9963338 16.2682001,64.2217824 16.7810936,64.4788359 C17.2835027,64.7308326 17.7381032,65.0009495 18.2208018,65.2900293 C18.6665956,65.5571964 19.1291642,65.8656606 19.5678286,66.1450482 C19.5833454,66.1547404 19.599701,66.1631684 19.5971847,66.1619042 C19.6642844,65.9174927 19.7309648,65.6831947 19.7921933,65.4476326" id="Fill-32" fill="#FFFFFF"></path>
        </g>
    </g>
</svg>