<?xml version="1.0" encoding="utf-8"?>
<!-- Generator: Adobe Illustrator 19.2.1, SVG Export Plug-In . SVG Version: 6.00 Build 0)  -->
<svg version="1.1" id="Layer_1" xmlns="http://www.w3.org/2000/svg" xmlns:xlink="http://www.w3.org/1999/xlink" x="0px" y="0px"
	 viewBox="0 0 173.3 332.7" style="enable-background:new 0 0 173.3 332.7;" xml:space="preserve">
<style type="text/css">
	.st0{fill:#F0F0F0;}
	.st1{fill:#F0090B;}
	.st2{fill:#E0E0E0;}
	.st3{fill:#FFFFFF;}
	.st4{fill:#23324E;}
	.st5{fill:#23324E;stroke:#23324E;stroke-miterlimit:10;}
</style>
<g>
	<ellipse class="st0" cx="105.3" cy="205.5" rx="62.3" ry="66"/>
	<ellipse class="st1" cx="67.9" cy="205.1" rx="62.3" ry="66"/>
</g>
<path class="st2" d="M158.9,160.9c19.7-53.2,0.9-139.3,0.3-143c-0.9-5.4-3.9-7.7-3.9-7.7c-22.8,12.2-26.4,95.7-32.8,127.7
	c-1.7,8.5-7.1,25-10.1,33.2c-9.9,27.3-45.4,108.2,17.7,121.7c15.1,3.2,27.3-5.3,27.3-5.3s-39.8-12.9-18-84.1
	C141.9,195.3,153.2,176.1,158.9,160.9z"/>
<path class="st2" d="M36.8,21.9c0,0-5.9,74.8,5.5,103c11.3,28.2,91.5-2.1,91.5-2.1s13-106.9,21.1-111.7
	C162.9,6.2,74.1-1.9,36.8,21.9z"/>
<path class="st0" d="M73,239.1c-10,0-23-3.1-29-17.5c-4.2-10-1.1-37.4-1.1-37.4c-0.2-33.9,9.7-45.6,44.1-47.6h0.2
	c34.5,2,44.3,13.6,44.1,47.6c0,0,3.1,27.3-1.1,37.3c-5.8,13.7-17.9,17.2-27.7,17.5L73,239.1z"/>
<path class="st3" d="M38.8,24.9c0,0-5.9,74.8,5.5,103c11.3,28.2,91.5-2.1,91.5-2.1s13-106.9,21.1-111.7
	C164.9,9.2,76.1,1.1,38.8,24.9z"/>
<g>
	<path class="st4" d="M84.9,94.9c-18.3,0-38.9,6.1-48.4,20.5c-5.7,8.6-3.8,20.6-4.4,33.5c-0.4,8.1-1.7,25.9,1.5,32.7
		c0,0,50.4-24.2,102.8,0c4.9,2.3,1.8-24.7,1.5-32.7c-0.6-12.9,1.3-24.9-4.4-33.5C123.8,101,103.2,94.9,84.9,94.9"/>
</g>
<ellipse transform="matrix(0.5439 -0.8391 0.8391 0.5439 -222.6177 228.4724)" class="st4" cx="98.9" cy="319" rx="10.4" ry="9"/>
<ellipse transform="matrix(0.5439 -0.8391 0.8391 0.5439 -211.6979 217.9294)" class="st4" cx="94.6" cy="303.7" rx="10.4" ry="9"/>
<ellipse transform="matrix(0.5439 -0.8391 0.8391 0.5439 -199.713 205.9803)" class="st4" cx="89.6" cy="286.7" rx="10.4" ry="9"/>
<ellipse transform="matrix(0.5439 -0.8391 0.8391 0.5439 -192.4157 219.4065)" class="st4" cx="105.6" cy="286.7" rx="10.4" ry="9"/>
<ellipse transform="matrix(0.5439 -0.8391 0.8391 0.5439 -186.7966 233.7449)" class="st4" cx="121.6" cy="288.7" rx="10.4" ry="9"/>
<ellipse transform="matrix(0.5439 -0.8391 0.8391 0.5439 -205.397 232.157)" class="st4" cx="110.9" cy="305" rx="10.4" ry="9"/>
<ellipse transform="matrix(0.5439 -0.8391 0.8391 0.5439 -181.7259 207.0744)" class="st4" cx="99.6" cy="270.7" rx="10.4" ry="9"/>
<ellipse transform="matrix(0.5439 -0.8391 0.8391 0.5439 -176.0339 223.5471)" class="st4" cx="117.6" cy="273.7" rx="10.4" ry="9"/>
<path class="st4" d="M46,210.6c-4.2-10-1.1-37.1-1.1-37.1c0-2.6,0-5.1,0.1-7.5C30.7,166,24,187.3,24,187.3
	c5.3-1.5,10.6,1.3,10.6,1.3s-2.9,2.9-3.7,6.8c-0.6,3.3,0.4,13.4,0.4,13.4l6.2-1.8l3.4,10.4l4.7,8.7c0,0,3.2-2.9,6.6-5.9
	C49.8,217.6,47.6,214.5,46,210.6z"/>
<path class="st4" d="M128.3,212.6c4.2-10,1.1-37.1,1.1-37.1c0-2.6,0-5.1-0.1-7.5c14.4-0.1,21.1,21.3,21.1,21.3
	c-5.3-1.5-10.6,1.3-10.6,1.3s2.9,2.9,3.7,6.8c0.6,3.3-0.4,13.4-0.4,13.4l-6.2-1.8l-3.4,10.4l-4.7,8.7c0,0-3.2-2.9-6.6-5.9
	C124.5,219.6,126.6,216.5,128.3,212.6z"/>
<polygon class="st4" points="97.7,153.7 68.9,153.7 63.9,56.7 102.8,56.7 "/>
<polygon class="st4" points="95.4,143.7 71.2,143.7 67,62.7 99.7,62.7 "/>
<g>
	<path class="st4" d="M57.4,213.3L57.4,213.3c-0.4,0-0.7-0.1-1-0.1c-4.4-0.4-5.2,0.5-4.1,4.7c0,0.1,0.2,0.1,0.3,0.1l0.5,1.6
		c-0.2-0.4-0.6-0.7-0.8-0.6c-1.8,0.5-3.7,1-5.4,1.7c-1.4,0.5-2.1,1.6-1.5,3.2c0.4,1,0.3,1.6-0.8,2.2c-0.5,0.3-0.8,1.1-0.9,1.8
		c-0.1,0.9,0.1,1.8,0.2,2.7l0-0.1c-1.2,0.7-2.3,1.5-3.5,2.2c-1.5,0.8-1.8,2-0.6,3c1.8,1.4,3.6,3,6.1,2.6c1.1-0.1,2.2-0.2,3.3-0.1
		c0.9,0.1,1.7,0.4,2.5,0.6c-3.3,1.5-6.3,2.9-7.8,6.3c0.6,0.3,1,0.5,1.6,0.7c-2.3,2.3-4.5,4.6-6.9,7c1.7,0.7,3.9,0.4,2.6,3
		c0.4,0.3,0.7,0.6,1,0.9c-0.7,1.6-1.5,3.1-1.8,4.6c-0.6,3.6-1.5,3,1.9,4.6c0.1,0,0.1,0.2,0.3,0.6c-0.8,1.1-1.7,2.3-2.6,3.6
		c1.3,0.7,2.4,1.1,2.4,1.6c0.3,2.8,0.4,5.6,0.6,8.3c0,0.8,0,1.6,0,2.6c0.9-0.3,1.5-0.5,2.2-0.7c2.3-0.7,4.5-1.8,6.8-1.9
		c3.5-0.1,6.2-0.7,7.7-4.3c0.2-0.6,0.9-1.4,2.1-0.8c1.7,0.9,2.4,0.4,2.7-1.5c0.3-1.8,0.6-3.6,1-5.4c0.3-0.9,0.6-1.8,0.9-2.7
		c0.3-0.3,0.5-0.6,0.8-1c0.7-0.9,1.4-1.8,2.4-3.1c1,2.1,0.7,3.5,0,4.9c-0.9,1.9-1.8,3.8-2.6,5.7l0-0.1c-0.9,1.7-1.9,3.3-2.8,5
		c-0.3,0.6-0.7,1.7-0.6,1.8c1.2,0.7,0.3,1.6,0.2,2.3c0,0.4,0,0.8-0.1,1.1l0-0.1c0,1.7,0,3.4,0.1,5.1c0,0.3,0.4,0.6,0.6,0.8
		c0.3,0.3,0.9,0.6,0.9,0.9c0.5,2.3,1,4.7,1.5,7.5c1.4-2.6,3.7-3.4,6-4.1c0.2-0.1,0.3-0.3,0.5-0.5c1.3-1.4,2.4-1.3,3.1,0.4
		c0.6,1.5,0.9,3.1,1,4.7c0.2,2.1,0.7,2.5,2.5,1.4c2.6-1.5,4.6-0.8,5.8,1.8c0.8,1.9,2.1,3.2,3.9,4.2c1.1,0.6,2,1.7,2.6,2.7
		c1.2,1.8,2.1,3.8,3.3,5.7c0.6,0.9,1.4,1.5,2.3,2.4c0.2-2.2,0.3-4,0.5-5.8c0.2-1.6,0.4-3.3,0.6-4.9c0.7-2.7,1.4-5.4,2-8.1
		c1.2-0.3,1.5-1,1.6-2.3c0.2-2.2,0.2-4.7,3.1-5.6c0-0.4,0-0.7-0.1-1.1c-0.4-1.9-0.9-3.7-1.1-5.6c-0.2-1.9,0.3-2.2,2.1-1.9
		c1.3,0.2,2.5,0.3,3.8,0.5c0.6,0.1,1.3,0.2,2,0.2c-0.5-2.3-0.9-4.2-1.4-6.2c0.8-0.2,1.3-0.3,1.7-0.4c-0.6-1.4-1.2-2.8-1.8-4.1
		c0.2-0.1,0.4-0.3,0.6-0.4c1,1.1,2,2.3,3,3.5c1.7,2.1,3.4,4.2,6,5.2c0.4,0.1,0.9,0,1.3-0.1c0.6-0.1,1.1-0.6,1.7-0.6
		c1.9,0.1,3.8,0.4,5.9,0.7c-0.1-0.8-0.1-1.4-0.2-2c-0.2-2.6-1.3-5.3,1.6-7.3c0.1,0,0-0.2,0.1-0.5c-0.9-0.9-1.9-1.9-2.8-2.9
		c-0.4-0.9-1.3-1.9-1.1-2.6c0.2-0.8,1.5-1.2,2.4-1.7c0.3-0.2,0.7-0.3,1-0.4c-1.8-2.3-3.6-4.6-5.7-7.3c2.3-0.7,4-1.3,5.7-1.8
		c0.8-0.2,1.6-0.6,1-1.5c-1.6-2.4-2.8-5.1-5.6-6.6c-1.2-0.6-2.1-1.6-0.2-3.2c-1.3-0.1-2.2-0.1-3-0.1c-0.6-0.2-1.1-0.4-1.7-0.5
		c-1-0.2-2.1-0.2-3.1-0.4c-0.5-0.1-0.9-0.5-1.4-0.8c0.3-0.5,0.5-1.2,1-1.4c1-0.4,2.1-0.7,3.2-0.8c4.1-0.5,8.2-0.9,12.5-1.3
		c-0.7-2.7-1-5.1-2-7.2c-1-2.1-2.7-3.9-4.1-5.8c0.4-0.2,0.8-0.5,1.3-0.7c-0.2-0.4-0.3-0.7-0.5-1c-1.3-2-3.4-3.1-5.6-3.9
		c-1.3-0.5-1.2-1.1-0.6-2c0.3-0.5,0.7-1,1.2-1.8c-1.7-0.1-3.1-0.3-4.5-0.3c-1.4,0-2.8,0.4-4.2,0.2c-1.2-0.1-2.4-0.8-4.1-1.4
		c-0.2-0.6-0.6-1.7-0.9-3c-0.8,0.6-4.9,2.4-5.5,2.8c0,0-0.8,10.1-13.9,14.8c-0.4,0.2-3.5,0-5.2-0.3l-7.7-3c0,0-5-2.4-7.8-6.5
		c-1.6-2.2-1.6-5.1-1.6-7.9c-1.2-0.1-3.2,0.1-2.7,4.5c0,0.4-0.5,0.8-0.7,1.2c-0.5-0.3-1.2-0.9-1.6-0.7
		C61.2,213.7,59.3,213.4,57.4,213.3c-0.4,0-0.7-0.1-1-0.1c-4.4-0.4-5.2,0.5-4.1,4.7c0,0.1,0.2,0.1,0.3,0.1"/>
	<path d="M63,212.8c0.3-0.2,1,0.5,1.6,0.7l0,0"/>
	<path class="st3" d="M106.6,265.2c-1.8-2.2-3.5-4.3-5.3-6.5c-0.5-0.6-0.9-1.3-1.5-2.1c2.4-0.6,3.4,0.9,4.3,2.1
		c1.4,2,2.5,4.3,3.9,6.8C107.2,265.4,106.9,265.3,106.6,265.2L106.6,265.2z"/>
</g>
<path class="st5" d="M81.4,232.9c-11.2-0.2-15.3,13.2-16.6,24.5l-0.2,1.3c-1.6,13.3-3.8,31.6-23.8,32.6c-10,0.5-19.9-5-24.7-13.8
	c-4.5-8.2-3.2-16.8,3.5-22.8c6.7-6.1,17.7-5.5,24-1.4c5.7,3.7,7.1,9.4,3.7,15.4c-1.3,2.4-5.1,7.9-11.1,6.5c-3.7-0.9-6.7-4.3-6.8-7.8
	c0-2.9,2.1-5,5.7-5.7l0.6,2.3c-2.4,0.4-3.7,1.6-3.7,3.4c0,2.3,2.2,4.8,4.7,5.4c2.9,0.7,5.8-1.2,8.1-5.4c2.8-5,1.7-9.5-2.8-12.4
	c-5.4-3.5-15-3.8-20.5,1.2c-5.9,5.3-7,12.9-3.1,20.2c3.6,6.5,11.8,12.9,22,12.4c17.8-0.9,19.8-17.3,21.4-30.6l0.2-1.4
	c0.8-7,2.4-12.7,4.6-17c3.3-6.4,8-9.9,14-9.7l16.1,0.3c6.1,0.1,10.9,3.8,14.5,10.3c2.4,4.3,4.2,10.1,5.4,17.1l0.2,1.4
	c2.2,13.3,5,29.9,22.9,31.5c10.3,0.9,18.2-5.1,21.5-11.4c3.7-7.1,2.1-14.7-4-20.3c-5.8-5.3-15.4-5.3-20.6-2.1
	c-4.4,2.7-5.2,7.2-2.2,12.3c2.5,4.2,5.5,6.3,8.4,5.7c2.5-0.5,4.5-2.9,4.4-5.2c-0.1-1.8-1.4-3-3.8-3.6l0.5-2.3c3.6,0.8,5.9,3,6,5.9
	c0.1,3.4-2.8,6.8-6.4,7.5c-5.9,1.2-10-4.5-11.4-7c-3.6-6.2-2.5-11.9,3-15.3c6.1-3.8,17.1-4,24.1,2.4c7,6.3,8.7,14.9,4.6,23
	c-4.4,8.5-14,13.6-24.1,12.7c-20.1-1.8-23.1-20.2-25.4-33.6l-0.2-1.3c-1.9-11.5-6.6-25-17.8-25.3L81.4,232.9z"/>
<path class="st0" d="M114.9,258.5l-0.2-1.4c-1.2-7-3-12.8-5.4-17.1c-3.6-6.5-8.5-10.2-14.5-10.3l-16.1-0.3c-6.1-0.1-10.8,3.4-14,9.7
	c-2.2,4.2-3.7,10-4.6,17l-0.2,1.4l2.7,0.4l0.2-1.3c1.4-11.4,5.4-24.8,16.6-24.5l14.9,0.3c11.2,0.2,15.9,13.8,17.8,25.3l0.2,1.3
	L114.9,258.5z"/>
<path class="st4" d="M114.9,259.5l-0.2-1.4c-1.2-7-3-12.8-5.4-17.1c-3.6-6.5-8.5-10.2-14.5-10.3l-16.1-0.3c-6.1-0.1-10.8,3.4-14,9.7
	c-2.2,4.2-3.7,10-4.6,17l-0.2,1.4l2.7,0.4l0.2-1.3c1.4-11.4,5.4-24.8,16.6-24.5l14.9,0.3c11.2,0.2,15.9,13.8,17.8,25.3l0.2,1.3
	L114.9,259.5z"/>
<path class="st4" d="M114.7,195c-5.1,7.7-17.6,4.3-17.6,4.3s3.9-2.6,5-3.7c1.8-1.8,1.5-3.4,1.1-4.3c-0.3-0.8-1-1.3-1-1.3
	c-1.7-1.3-6.8-4.9-6.8-4.9l3.4-4.8c0,0,5,3.9,6.8,4.9c1,0.5,2.7,1.2,4.3-0.8c2.4-3,2.2-7.3,2.2-7.3S120.8,185.8,114.7,195z"/>
<path class="st4" d="M111.6,171.8l-0.2,0.2l-7.4,7.7l0.5,1.6l-1.1,0.3l-1,1.2c0,0-9.9,14.1-12.4,17.7c-0.3,0.5-0.8,1.2-1.1,2
	c0,0,0,0,0,0l0.5,1.2c4.1-1.7,8.3-1,11.2,2c2.8,2.8,2.7,7.4,0.7,9.9c-1.6,2.1-4.1,2.5-6.9,1c-2.3-1.2-3.4-2.7-3-4
	c0.3-1.2,1.7-2.2,3-2.1c1,0,1.7,0.7,1.9,1.9l1.3-0.2c-0.4-1.8-1.6-2.8-3.2-2.9c-1.9-0.1-3.8,1.3-4.3,3.1c-0.8,2.8,2.3,4.8,3.7,5.5
	c2,1.1,4,1,5.7,0.4c-3.2,3.7-7.7,6.3-11.7,6.3c0,0,0,0,0,0c-5,0-14.2-4.4-17.8-9.5c-1.6-2.2-2-4.5-1.2-6.5
	c1.5-4.2,10.7-14.2,14.6-15.8l-0.5-1.1c-4.1,1.6-13.7,12.1-15.3,16.6c-0.9,2.4-0.4,4.8,1.4,7.3c3.9,5.6,13.5,9.9,18.8,9.9
	c0,0,0,0,0,0c4.3,0,10.1-3.3,13.7-8.5c0.3-0.3,0.6-0.4,0.8-0.8c2.2-2.9,2.6-8.1-0.9-11.5c-2.6-2.6-6.1-3.7-9.6-3.1
	c2.5-3.7,4.1-5.7,12.3-17.6l0.8-1.3l-0.1-1.1l1.7-0.1L111.6,171.8z"/>
<g>
	<g>
		<path class="st4" d="M48.2,181.3c0.5,0.5,7.1,4,7.3,5.2c0.3,0.6,0.6,1.2,0.9,1.8c0.3,0.7,0.5,1.4,0.8,2.2c0.3,0.8,0.5,1.7,0.9,2.5
			c0.4,0.9,0.9,1.8,1.5,2.6c0.6,0.9,1.4,1.6,2.3,2.2c0.9,0.6,1.9,1.1,2.9,1.4c0.1,0,0.2,0.1,0.3,0.2c1.1,0.7,2.2,1.3,3.4,1.6
			c1.1,0.3,2.2,0.5,3.4,0.4c1.2-0.1,2.3-0.5,3.2-1.2c0.8-0.6,1.5-1.4,2-2.3c0.4-0.7,0.7-1.5,0.8-2.3c0.2-0.8,0.2-1.5,0.1-2.3
			c-0.1-1-0.2-1.9-0.5-2.9c-0.3-1.1-0.8-2.1-1.3-3c-0.9-1.5-1.9-2.8-3.2-4c-0.8-0.8-1.7-1.4-2.6-2c-0.5-0.3-1-0.5-1.3-0.6
			c-1.4-0.5-2.6-0.9-3.8-1.1c-1.1-0.2-2.3-0.4-3.4-0.5c-1-0.1-1.9-0.2-2.9-0.3c-0.9-0.1-1.8-0.2-2.7-0.3c-1.1-0.1-2.1-0.3-3.1-0.5
			c-0.8-0.2-1.6-0.5-2.3-0.9L48.2,181.3z"/>
	</g>
	<g>
		<path class="st4" d="M52.5,182.1c0.1-0.2,0.1-0.4,0.1-0.6c0-0.3-0.1-0.5-0.4-0.7c-0.4-0.3-0.8-0.6-1.1-1c-0.5-0.6-0.4-1.3,0.2-1.9
			c0.1-0.1,0.5-0.2,0.6-0.3c-0.4-0.2-1.1-0.4-1.5-0.7c-2.2-1.1-4.5-2.2-6.6-3.4c-0.6-0.3-1.1-0.7-1.7-1c-0.7-0.4-1.1-1-1.2-1.8
			c-0.1-0.6-0.2-1.3-0.2-1.9c-0.1-0.8-0.6-1.3-1.2-1.6c-0.6-0.4-1.2-0.5-1.9-0.4c-0.8,0.1-1.5,0.9-1.4,1.8c0.1,1.3,0,2.6-0.3,3.9
			c-0.2,0.7-0.7,1.3-1.1,1.9c-0.4,0.5-0.8,1-1.2,1.6c-0.3,0.4-0.4,1-0.4,1.5c0,1,0.7,1.7,1.7,1.8c0.8,0.1,1.5-0.1,2.2-0.4
			c0.6-0.2,1.2-0.5,1.9-0.7c0.8-0.3,1.7-0.4,2.5-0.1c1.3,0.5,2.5,1,3.8,1.6c1.2,0.6,2.3,1.2,3.4,1.9c1.1,0.6,2.2,1.4,3.2,2
			c0,0,0.1,0,0.1,0C52.2,183.2,52.3,182.7,52.5,182.1z"/>
	</g>
</g>
<g>
	<g>
		<path class="st4" d="M48.5,180.4c0.5,0.5,7.1,4,7.3,5.2c0.3,0.6,0.6,1.2,0.9,1.8c0.3,0.7,0.5,1.4,0.8,2.2c0.3,0.8,0.5,1.7,0.9,2.5
			c0.4,0.9,0.9,1.8,1.5,2.6c0.6,0.9,1.4,1.6,2.3,2.2c0.9,0.6,1.9,1.1,2.9,1.4c0.1,0,0.2,0.1,0.3,0.2c1.1,0.7,2.2,1.3,3.4,1.6
			c1.1,0.3,2.2,0.5,3.4,0.4c1.2-0.1,2.3-0.5,3.2-1.2c0.8-0.6,1.5-1.4,2-2.3c0.4-0.7,0.7-1.5,0.8-2.3c0.2-0.8,0.2-1.5,0.1-2.3
			c-0.1-1-0.2-1.9-0.5-2.9c-0.3-1.1-0.8-2.1-1.3-3c-0.9-1.5-1.9-2.8-3.2-4c-0.8-0.8-1.7-1.4-2.6-2c-0.5-0.3-1-0.5-1.3-0.6
			c-1.4-0.5-2.6-0.9-3.8-1.1c-1.1-0.2-2.3-0.4-3.4-0.5c-1-0.1-1.9-0.2-2.9-0.3c-0.9-0.1-1.8-0.2-2.7-0.3c-1.1-0.1-2.1-0.3-3.1-0.5
			c-0.8-0.2-1.6-0.5-2.3-0.9L48.5,180.4z"/>
	</g>
	<g>
		<path class="st3" d="M52.8,181.2c0.1-0.2,0.1-0.4,0.1-0.6c0-0.3-0.1-0.5-0.4-0.7c-0.4-0.3-0.8-0.6-1.1-1c-0.5-0.6-0.4-1.3,0.2-1.9
			c0.1-0.1,0.5-0.2,0.6-0.3c-0.4-0.2-1.1-0.4-1.5-0.7c-2.2-1.1-4.5-2.2-6.6-3.4c-0.6-0.3-1.1-0.7-1.7-1c-0.7-0.4-1.1-1-1.2-1.8
			c-0.1-0.6-0.2-1.3-0.2-1.9c-0.1-0.8-0.6-1.3-1.2-1.6c-0.6-0.4-1.2-0.5-1.9-0.4c-0.8,0.1-1.5,0.9-1.4,1.8c0.1,1.3,0,2.6-0.3,3.9
			c-0.2,0.7-0.7,1.3-1.1,1.9c-0.4,0.5-0.8,1-1.2,1.6c-0.3,0.4-0.4,1-0.4,1.5c0,1,0.7,1.7,1.7,1.8c0.8,0.1,1.5-0.1,2.2-0.4
			c0.6-0.2,1.2-0.5,1.9-0.7c0.8-0.3,1.7-0.4,2.5-0.1c1.3,0.5,2.5,1,3.8,1.6c1.2,0.6,2.3,1.2,3.4,1.9c1.1,0.6,2.2,1.4,3.2,2
			c0,0,0.1,0,0.1,0C52.5,182.4,52.7,181.8,52.8,181.2z"/>
	</g>
</g>
</svg>
