<?xml version="1.0" encoding="UTF-8"?>
<svg width="130px" height="130px" viewBox="0 0 130 130" version="1.1" xmlns="http://www.w3.org/2000/svg" xmlns:xlink="http://www.w3.org/1999/xlink">
    <!-- Generator: Sketch 42 (36781) - http://www.bohemiancoding.com/sketch -->
    <title>selim</title>
    <desc>Created with Sketch.</desc>
    <defs></defs>
    <g id="Page-1" stroke="none" stroke-width="1" fill="none" fill-rule="evenodd">
        <g id="selim" transform="translate(23.000000, 0.000000)">
            <path d="M50.4375835,60.4904271 C67.8358894,60.4904271 81.9398894,75.4346976 81.9398894,93.8705531 C81.9398894,112.305918 67.8358894,127.2512 50.4375835,127.2512 C33.0392776,127.2512 18.9357835,112.305918 18.9357835,93.8705531" id="Fill-1" fill="#F0F0F0"></path>
            <path d="M71.0572471,69.02704 C71.0572471,92.1377542 60.1914,110.872095 46.7875412,110.872095 C33.3831765,110.872095 22.5173294,92.1377542 22.5173294,69.02704 C22.5173294,45.9163106 33.3831765,27.1819694 46.7875412,27.1819694 C60.1914,27.1819694 71.0572471,45.9163106 71.0572471,69.02704" id="Fill-2" fill="#E0E0E0"></path>
            <path d="M63.0041059,93.7001719 C63.0041059,112.135537 48.9001059,127.080313 31.5018,127.080313 C14.104,127.080313 0,112.135537 0,93.7001719 C0,75.2648224 14.104,60.31954 31.5018,60.31954 C48.9001059,60.31954 63.0041059,75.2648224 63.0041059,93.7001719" id="Fill-3" fill="#F0090B"></path>
            <path d="M76.8808129,33.3422506 C76.8808129,50.8417329 62.7768129,65.0281918 45.3790129,65.0281918 C27.9807071,65.0281918 13.8767071,50.8417329 13.8767071,33.3422506 C13.8767071,15.8427682 27.9807071,1.65732118 45.3790129,1.65732118 C62.7768129,1.65732118 76.8808129,15.8427682 76.8808129,33.3422506" id="Fill-4" fill="#F0F0F0"></path>
            <path d="M54.4201929,37.1393024 C54.4201929,48.9921259 51.04444,57.5278788 42.0447929,61.5263729 C39.3873929,62.7076082 33.4872871,64.9395612 30.4717224,64.9395612 C17.2459341,64.9395612 6.52375765,52.4928318 6.52375765,37.1393024 C6.52375765,21.7857729 17.2459341,9.33954941 30.4717224,9.33954941 C43.6980165,9.33954941 54.4201929,21.7857729 54.4201929,37.1393024" id="Fill-5" fill="#E0E0E0"></path>
            <path d="M68.5278353,68.5211576 C68.5278353,91.6318668 60.5637294,110.651526 44.2581294,110.366208 C30.8557882,110.131479 19.9879176,91.6318668 19.9879176,68.5211576 C19.9879176,45.4104282 30.8537647,26.6760871 44.2581294,26.6760871 C57.6619882,26.6760871 68.5278353,45.4104282 68.5278353,68.5211576" id="Fill-6" fill="#F0F0F0"></path>
            <path d="M83.7944541,39.3020506 C83.7944541,54.5685682 72.4495365,66.9444741 58.4548071,66.9444741 C44.4605835,66.9444741 33.1156659,54.5685682 33.1156659,39.3020506 C33.1156659,24.0350271 44.4605835,11.6586153 58.4548071,11.6586153 C72.4495365,11.6586153 83.7944541,24.0350271 83.7944541,39.3020506" id="Fill-7" fill="#E0E0E0"></path>
            <path d="M81.7709247,37.7844035 C81.7709247,53.0509212 70.4260071,65.4268271 56.4312776,65.4268271 C42.4370541,65.4268271 31.0921365,53.0509212 31.0921365,37.7844035 C31.0921365,22.51738 42.4370541,10.1409682 56.4312776,10.1409682 C70.4260071,10.1409682 81.7709247,22.51738 81.7709247,37.7844035" id="Fill-8" fill="#FFFFFF"></path>
            <path d="M56.4437224,37.6451847 C56.4437224,49.4980082 53.0679694,58.0337612 44.0683224,62.0322553 C41.4109224,63.2134906 35.5108165,65.4454435 32.4952518,65.4454435 C19.2694635,65.4454435 8.54728706,52.9987141 8.54728706,37.6451847 C8.54728706,22.2916553 19.2694635,9.84543176 32.4952518,9.84543176 C45.7215459,9.84543176 56.4437224,22.2916553 56.4437224,37.6451847" id="Fill-9" fill="#FFFFFF"></path>
            <path d="M69.2851412,30.8845729 C69.2851412,46.1515965 58.7177647,58.5275024 45.6821882,58.5275024 C32.6471176,58.5275024 22.0797412,46.1515965 22.0797412,30.8845729 C22.0797412,15.6180553 32.6471176,3.24164353 45.6821882,3.24164353 C58.7177647,3.24164353 69.2851412,15.6180553 69.2851412,30.8845729" id="Fill-10" fill="#F0F0F0"></path>
            <path d="M70.9594094,30.8845729 C70.9594094,46.1515965 60.3920329,58.5275024 47.3569624,58.5275024 C34.3213859,58.5275024 23.7535035,46.1515965 23.7535035,30.8845729 C23.7535035,15.6180553 34.3213859,3.24164353 47.3569624,3.24164353 C60.3920329,3.24164353 70.9594094,15.6180553 70.9594094,30.8845729" id="Fill-11" fill="#FFFFFF"></path>
            <path d="M42.8763624,108.654661 L41.9885388,108.930873 L41.4447153,107.181026 L39.6948682,107.72485 L39.4191624,106.83652 L41.1685035,106.292697 L40.62468,104.54285 L41.5130094,104.26765 L42.0568329,106.016991 L43.8061741,105.473167 L44.0823859,106.360991 L42.3330447,106.90532 L42.8763624,108.654661 Z M25.3090918,115.131979 C25.6525859,121.885002 38.2875035,129.27392 44.0267388,128.537861 C67.2684918,126.522426 63.2295271,97.0107672 63.2295271,97.0107672 C63.2295271,97.0107672 60.4709506,101.331002 55.4090918,101.473155 C51.4647271,101.58445 48.7284094,95.7131789 48.7284094,95.7131789 C48.7284094,95.7131789 45.7644447,100.289391 45.7442094,100.567626 C45.72448,100.846367 43.9629976,96.1001789 43.9629976,96.1001789 C43.9629976,96.1001789 42.2308565,99.6079672 40.5493035,100.194285 C29.2994918,104.116391 25.8473506,94.5693789 25.8473506,94.5693789 L18.9203035,101.984097 C23.9841859,117.996791 25.1821153,112.636461 25.3090918,115.131979 L25.3090918,115.131979 Z" id="Fill-12" fill="#23324E"></path>
            <path d="M25.7653976,70.1239953 C26.0203624,70.0223129 26.4215271,69.9702071 26.8839035,70.3020659 C27.4246918,70.6895718 27.4474565,70.8656188 27.5572329,71.7139835 C27.6290682,72.2679247 27.7373271,73.10516 28.0570447,74.4189365 C28.2497859,75.2116541 28.5978329,75.8693012 29.0915741,76.37316 C29.3976329,76.6857953 29.7593388,76.9392424 30.1696094,77.1294541 C30.2905153,77.1851012 30.4154682,77.2356894 30.5444682,77.2807129 C31.5041271,77.6145953 32.3509741,77.5250541 32.3868918,77.5210071 L32.4081388,77.5184776 L32.4283741,77.5113953 C32.45468,77.5022894 35.0877976,76.5891718 37.6844918,75.6047247 C39.2117506,75.0265012 40.4278918,74.5368071 41.2995271,74.1498071 C41.8215976,73.9181129 42.2257976,73.7198071 42.5020094,73.5614659 C42.9016565,73.3312894 43.0478565,73.1820541 43.0417859,73.0095482 C43.0392565,72.95036 43.0114329,72.8056776 42.7984565,72.7485129 C42.1205741,72.5674071 41.5094682,72.2573012 40.9818329,71.8262894 C40.5326094,71.4600306 40.1324565,70.9976541 39.7919976,70.4513012 C39.1692565,69.4511718 38.8723035,68.3948894 38.6760212,67.69576 C38.55208,67.2541247 38.4933976,67.0543012 38.4003153,66.9495835 C38.0502447,66.5539835 37.6607153,66.6404894 37.5033859,66.74116 L37.4963035,66.7457129 L37.4902329,66.7507718 C37.47708,66.7603835 36.1885976,67.74736 34.5328447,68.65036 C33.56408,69.1785012 32.6625976,69.5741012 31.8531859,69.8260306 C30.8571035,70.1356306 30.00368,70.2261835 29.3166918,70.09516 L29.2448565,70.4720424 C29.9945741,70.6152071 30.9102212,70.5211129 31.9675153,70.1922894 C32.8007035,69.9332776 33.7254565,69.52756 34.7169859,68.9872776 C36.3191153,68.1136188 37.5863506,67.1600306 37.7138329,67.0629012 C37.7244565,67.0578424 37.7623976,67.0416541 37.81248,67.0401365 C37.9126447,67.0371012 38.0133153,67.0922424 38.1119624,67.2030306 C38.1549624,67.2612071 38.2353976,67.5470306 38.3062212,67.7994659 C38.4964329,68.4758306 38.8141271,69.6074894 39.4662094,70.65416 C40.0818682,71.6426541 40.8745859,72.3635365 41.8301976,72.8061835 C42.0603741,72.9129247 42.3006682,73.0029718 42.5495624,73.0773365 C42.4741859,73.1314659 42.3517624,73.2093718 42.1534565,73.3151012 C41.8559976,73.47496 41.4401624,73.6707365 40.9175859,73.8978776 C40.0322918,74.2828541 38.8328447,74.7614188 37.3511153,75.3204188 C34.9517153,76.2259482 32.5760918,77.0535718 32.3241624,77.1410894 C32.19668,77.1517129 31.4712447,77.1967365 30.6704329,76.9179953 C30.1589859,76.7399247 29.71988,76.4662424 29.3657624,76.1045365 C28.9210918,75.65076 28.6059271,75.0528071 28.42988,74.3283835 C28.1157271,73.0348424 28.0089859,72.2102541 27.9381624,71.6644071 C27.8804918,71.2202424 27.8425506,70.9263247 27.73328,70.6784424 C27.6229976,70.4265129 27.4474565,70.2332659 27.1075035,69.9899365 C26.6365271,69.6520071 26.1093976,69.5730894 25.6232447,69.7673482" id="Fill-13" fill="#23324E"></path>
            <path d="M29.4999729,70.2898235 C32.6490906,70.8913176 37.8262906,66.9090118 37.8262906,66.9090118 C37.8262906,66.9090118 38.1424671,66.7066588 38.4758435,67.0830353 C38.80922,67.4594118 39.1689024,71.9238235 42.9680788,72.9406471 C44.2671847,73.2881882 32.5848435,77.3362588 32.5848435,77.3362588 C32.5848435,77.3362588 29.2713141,77.7060588 28.4629141,74.3798824 C27.6545141,71.0537059 28.2084553,70.6398941 26.8623024,69.7849529 L29.4999729,70.2898235 Z" id="Fill-14" fill="#FFFFFF"></path>
            <path d="M43.2930071,50.8456788 C43.2930071,50.8456788 44.4221365,47.5918435 48.1353129,45.9588553 C51.8484894,44.3253612 48.9138659,48.1766435 48.9138659,48.1766435 L43.2930071,50.8456788 Z" id="Fill-15" fill="#23324E"></path>
            <path d="M51.2191212,52.5986118 C51.2191212,52.5986118 52.5672976,50.3747529 51.7189329,47.3753765 C50.87158,44.376 50.0500271,47.9647294 50.0500271,47.9647294 L51.2191212,52.5986118 Z" id="Fill-16" fill="#23324E"></path>
            <path d="M48.3656462,49.0570812 L44.6701756,61.4127518 L45.6070698,67.3315753 C45.6070698,67.3315753 49.7760462,47.7443165 52.0975353,43.1574812 C54.8358765,37.7470694 60.0530412,27.6542106 66.1641,19.3056341 C72.1841,11.0825165 79.1688176,4.06845765 82.3194529,1.37969294 C82.3194529,1.37969294 61.7512882,14.5629871 48.3656462,49.0570812" id="Fill-17" fill="#23324E"></path>
            <path d="M55.8044388,30.8461765 C55.8044388,30.8461765 55.2186271,28.4088353 54.5316388,26.8562824 C53.8911918,25.4089529 53.7399329,23.7370118 53.8962506,23.0424353 C53.9807329,24.3572235 55.0258859,26.574 55.0258859,26.574 C55.3754506,27.2311412 56.2268506,30.1055647 56.2268506,30.1055647 L55.8044388,30.8461765 Z M75.4584741,22.6650471 C74.8230859,15.8275412 78.2514506,7.37171765 83.9502153,0 C77.6828388,0.754270588 71.5125918,3.77995294 66.1274741,8.03138824 C65.7637447,9.23791765 65.9772271,11.2179412 65.9772271,11.2179412 C66.0202271,11.9282 66.4244271,15.1876 66.4244271,15.1876 L65.9595212,15.7708824 C65.9595212,15.7708824 65.4678035,12.4431882 65.4865212,10.8208235 C65.50018,9.65628235 65.8472153,8.56003529 66.0541212,8.08855294 C64.2450859,9.52272941 62.5250859,11.0945059 60.9199212,12.7644235 C60.3786271,14.4363647 60.6851918,17.2870118 60.6851918,17.2870118 C60.7458976,18.2770235 61.1450388,22.4282941 61.1450388,22.4282941 L60.6760859,23.1840824 C60.6760859,23.1840824 59.9759447,18.9943647 60.0017447,16.7335765 C60.0209682,15.0641647 60.5319094,13.4964353 60.8162153,12.8726824 C52.9972976,21.0548235 47.9430321,31.5630118 48.7038792,39.7507176 C48.8794204,41.6462588 49.2006556,43.3166824 49.6660674,44.7857647 C63.0375447,12.8367647 82.2403329,0.528141176 82.2403329,0.528141176 C79.0896976,3.21690588 72.10498,10.2309647 66.08498,18.4545882 C62.2746741,23.6591059 58.8655329,29.4393176 56.1747447,34.3640824 C57.3524388,34.3291765 61.8057212,34.1961294 62.9844271,34.1207529 C62.9844271,34.1207529 67.2125918,34.0479059 69.3448859,32.9142235 C69.2502859,33.1287176 66.7309918,34.5654235 63.8565682,34.959 C61.1951212,35.3237412 56.8450388,35.2493765 55.7083212,35.2220588 C54.21698,37.9806353 52.9674506,40.4311294 52.0189212,42.3059294 C51.5464271,43.2392824 50.9970388,44.7953765 50.4218556,46.6802941 C51.0633094,46.7374588 63.1331565,47.5939176 70.6121212,32.1326353 C72.2628153,28.7204588 73.3681682,26.4025059 74.0860153,24.8661412 C74.0860153,24.8661412 69.1283682,27.3328235 66.3424741,26.2315176 C63.5560741,25.1302118 75.4584741,22.6650471 75.4584741,22.6650471 L75.4584741,22.6650471 Z" id="Fill-18" fill="#23324E"></path>
            <polygon id="Fill-19" fill="#E0E0E0" points="18.5242482 71.7960882 44.1294835 62.0608882 15.1748012 56.7228176"></polygon>
            <path d="M58.0269318,72.7137588 C55.7185906,72.4335 54.8206494,70.0841824 53.2109318,69.6496294 C52.2831435,69.3992176 51.5359553,70.5809588 51.4287082,71.4662529 C51.1641318,73.6440765 53.8210259,76.1208765 56.8740259,76.4911824 C59.9270259,76.8619941 63.9988729,75.3514294 64.2634494,73.1736059 C64.3276965,72.6424294 63.8167553,71.6741706 63.2972141,71.5340412 C61.9429671,71.1682882 59.8390024,72.9338176 58.0269318,72.7137588" id="Fill-20" fill="#23324E"></path>
            <path d="M64.2448835,72.9095353 C64.3217776,73.1017706 65.3745188,72.9297706 65.93706,72.8807 C65.8712953,72.7107235 65.4888482,72.6287706 65.1898718,72.4957235 C65.1428247,72.4436176 65.3219071,72.4203471 65.5743424,72.3237235 C65.9785424,72.1699353 66.2901659,71.8997941 66.6640129,71.6817588 C66.2572835,71.7449941 65.8409424,71.7439824 65.4347188,71.6787235 C65.3902012,71.6716412 65.3416365,71.6615235 65.3133071,71.6256059 C65.2728365,71.5745118 65.2950953,71.4996412 65.3214012,71.4394412 C65.4665894,71.1111235 65.6846247,70.8151824 65.9552718,70.5789353 C65.6891776,70.7231118 65.4230835,70.8672882 65.1574953,71.0114647 C65.0573306,71.0655941 64.8716718,71.1328765 64.8458718,71.0220882 C64.7446953,70.5936059 65.0123071,70.1575353 65.0957776,69.7255118 C64.5372835,70.3927706 64.08806,71.1510882 63.7703659,71.9615118 C63.7703659,71.9615118 64.0379776,72.3920176 64.2448835,72.9095353" id="Fill-21" fill="#23324E"></path>
            <path d="M52.4254988,69.6912635 C52.3111694,68.8287341 52.0562047,67.9849224 51.6737576,67.2028282 C51.6509929,67.64244 51.6287341,68.0820518 51.6059694,68.5216635 C51.51744,68.5929929 51.3899576,68.5135694 51.3059812,68.4371812 C51.0823812,68.2333106 50.8587812,68.0299459 50.6351812,67.8260753 C50.8410753,68.1199929 50.9817106,68.4599459 51.0439341,68.8135576 C51.0555694,68.8778047 51.0591106,68.9562165 51.0075106,68.9961812 C50.9715929,69.0240047 50.9220165,69.0219812 50.8769929,69.01844 C50.4667224,68.9845459 50.0625224,68.8858988 49.6826047,68.7275576 C49.9937224,69.0285576 50.2481812,69.2324282 50.5183224,69.5703576 C50.5618282,69.6249929 50.8350047,69.8197576 50.7985812,69.9143576 C50.6200047,69.8809694 50.2061929,69.9158753 50.1014753,70.0651106 C50.6361929,70.2472282 51.1830518,70.3924165 51.7380047,70.4981459" id="Fill-22" fill="#23324E"></path>
            <path d="M44.0498576,94.1465625 C42.1452106,95.6424566 39.72254,96.2965625 37.3180812,96.5839036 C35.9577635,96.7467978 34.5837871,96.8312801 33.2168929,96.7381978 C31.1604812,96.5990801 29.1541518,96.0623389 27.1635047,95.5281272 C24.6958106,94.8654213 21.9296459,93.9624213 20.8561635,91.6439625 C22.3242341,93.0098448 24.4742341,93.3578919 26.47854,93.3047742 C30.2792341,93.2046095 34.0374341,91.8604801 37.03934,89.5273507 C38.9455047,88.0456213 40.9361518,86.0514331 43.3254341,86.3989742 C44.7014341,86.5987978 45.9120106,87.6692448 46.2787753,89.0108448 C46.2787753,89.0108448 46.8104576,91.9778448 44.0498576,94.1465625" id="Fill-23" fill="#24334F"></path>
            <path d="M49.365118,93.9250872 C51.3694188,95.2843931 53.8320541,95.7675107 56.2511835,95.8858872 C57.6195953,95.9531695 58.9955953,95.9410284 60.3528776,95.753346 C62.3946188,95.4705578 64.3579482,94.7946989 66.3066071,94.1223813 C68.7221953,93.2891931 71.4185482,92.1949695 72.3266071,89.8072048 C70.9581953,91.2722401 68.8375365,91.7695225 66.8342424,91.8570401 C63.0360776,92.0229695 59.1933953,90.9449342 56.0356776,88.8268048 C54.03036,87.4821695 51.9056541,85.6321578 49.5462239,86.1456284 C48.1874239,86.4415695 47.0547533,87.5934636 46.7825886,88.9573225 C46.7825886,88.9573225 46.4593298,91.9546754 49.365118,93.9250872" id="Fill-24" fill="#24334F"></path>
            <path d="M27.860864,95.8214529 C20.5478287,93.3315 20.409217,92.5362529 20.9459582,90.4075 C21.6901111,87.4541588 19.6200405,86.7585706 20.1183346,84.9151353 C20.9575934,81.8090176 32.5746758,76.1896765 34.7327699,73.8039353 C35.0792993,73.4209824 35.407617,72.9252176 35.2821582,72.4243941 C35.1243229,71.7925471 34.2794993,71.5436529 33.6825582,71.8031706 C33.085617,72.0626882 32.698617,72.6545706 32.4431464,73.2535353 C30.927017,76.8058412 23.8957582,84.8863 26.2835229,87.4222882 C28.1461817,89.4002882 30.6993699,86.9836882 31.8011817,86.0892882 C35.1334287,83.3838294 36.809417,79.1131706 40.5488993,79.3413235 C42.6007582,79.4662765 38.7889346,86.3260412 40.6445111,85.4417588 C41.9744758,84.8083941 43.8042523,85.0633588 44.3055817,83.6777471 C44.5382876,83.0337588 43.4015699,82.3219824 42.6265582,82.7094882 C42.0139346,83.0155471 41.7741464,83.3706765 41.8399111,84.0521 C41.9355229,85.0375588 43.3575582,85.0603235 44.3207582,84.8326765 C47.2907934,84.1310176 51.3317817,85.5651941 54.3776993,85.7564176 C56.2459229,77.1407353 48.8762287,75.6878412 48.8762287,75.6878412 C47.3125464,75.2411471 45.0279817,74.3826647 44.4942758,72.8468059 C43.8937934,71.1207353 44.3227817,70.3492647 44.7021934,69.0491471 C45.0810993,67.7490294 46.028617,66.6618882 47.167864,65.9293706" id="Stroke-25" stroke="#23324E" stroke-width="1.129"></path>
            <path d="M20.1983141,98.9357456 C22.5354906,95.9191692 25.8970788,94.6099456 27.7071259,96.0122515 C29.5171729,97.4145574 29.0897024,100.99671 26.7530318,104.013287 C24.4158553,107.030369 21.0542671,108.339087 19.24422,106.936781 C17.4341729,105.534475 17.8611376,101.952322 20.1983141,98.9357456" id="Fill-26" fill="#E0E0E0"></path>
            <path d="M26.1208311,71.6855024 C26.1739487,71.4877024 26.4289134,71.3865259 26.6165958,71.4679729 C26.8042782,71.54942 26.9064664,71.7735259 26.8771252,71.9763847 C26.8472782,72.1787376 26.7046193,72.3527612 26.5270546,72.4554553 C26.1415723,72.6785494 25.6083723,72.5601729 25.3159723,72.2237612 C25.0230664,71.8873494 24.968937,71.3789376 25.1373958,70.9661376 C25.3498664,70.4435612 25.9078546,70.0823612 26.4714076,70.1025965 C27.0354664,70.1223259 27.566137,70.5224788 27.7411723,71.0587141 C27.9339134,71.6495847 28.0598782,72.2060553 28.1656076,72.9780318" id="Stroke-27" stroke="#23324E" stroke-width="0.75"></path>
            <path d="M21.3423165,99.0687472 C22.8660341,97.1013707 24.5774341,95.8751119 25.1637518,96.3299001 C25.7505753,96.7841825 24.99074,98.7475119 23.4670224,100.714382 C21.9427988,102.681759 20.2319047,103.908018 19.6450812,103.453735 C19.0587635,102.998947 19.8185988,101.036124 21.3423165,99.0687472" id="Fill-28" fill="#23324E"></path>
            <path d="M23.5522129,101.831062 C25.0759306,99.8636856 26.7873306,98.6374268 27.3736482,99.0922151 C27.9604718,99.5464974 27.2006365,101.509827 25.6769188,103.476697 C24.1526953,105.444074 22.4418012,106.670333 21.8549776,106.21605 C21.26866,105.761262 22.0284953,103.798439 23.5522129,101.831062" id="Fill-29" fill="#23324E"></path>
        </g>
    </g>
</svg>